<svg xmlns="http://www.w3.org/2000/svg" width="246" height="262" viewBox="0 0 2455 2615" fill="currentColor" role="img" aria-label="Soar Appliance Repair">
<g transform="translate(0.000000,2615.000000) scale(0.062500,-0.062500)">
<path d="M17992 39004 c-60 -33 -90 -36 -440 -41 -343 -6 -381 -9 -440 -40
-55 -28 -100 -34 -320 -40 -216 -6 -266 -12 -319 -39 -48 -24 -107 -34 -240
-40 -130 -6 -193 -16 -238 -39 -39 -20 -111 -34 -200 -40 -87 -6 -161 -21
-199 -39 -33 -17 -105 -35 -160 -40 -55 -6 -127 -24 -160 -40 -33 -17 -105
-35 -160 -40 -55 -6 -127 -24 -160 -40 -33 -17 -105 -35 -160 -40 -55 -6 -127
-24 -160 -40 -33 -17 -105 -35 -160 -40 -55 -6 -126 -23 -157 -39 -31 -16 -85
-34 -120 -40 -35 -6 -90 -25 -123 -41 -33 -17 -105 -35 -160 -40 -55 -6 -126
-23 -157 -39 -31 -16 -85 -34 -120 -40 -35 -6 -89 -24 -120 -40 -31 -16 -85
-34 -120 -40 -35 -6 -126 -42 -203 -80 -76 -38 -166 -74 -200 -80 -33 -6 -123
-42 -200 -80 -76 -38 -166 -74 -200 -80 -33 -6 -158 -60 -278 -120 -120 -60
-246 -114 -280 -120 -82 -15 -1553 -749 -1614 -806 -26 -25 -152 -97 -280
-160 -128 -64 -254 -136 -280 -161 -26 -24 -84 -63 -128 -85 -44 -22 -94 -56
-112 -75 -18 -20 -72 -56 -120 -80 -48 -24 -102 -60 -120 -80 -18 -20 -72 -56
-120 -80 -48 -24 -102 -60 -120 -80 -18 -19 -68 -54 -111 -76 -44 -22 -119
-78 -168 -124 -49 -46 -121 -100 -160 -120 -39 -20 -111 -74 -160 -120 -49
-46 -121 -100 -160 -120 -39 -20 -111 -74 -160 -120 -49 -46 -121 -100 -161
-120 -40 -20 -148 -110 -240 -200 -92 -91 -200 -180 -240 -200 -106 -52 -1699
-1644 -1746 -1744 -21 -46 -111 -151 -246 -288 -134 -136 -222 -240 -239 -280
-15 -35 -86 -125 -160 -200 -73 -75 -145 -164 -160 -199 -14 -35 -68 -107
-120 -161 -52 -54 -106 -126 -120 -159 -14 -34 -50 -89 -81 -123 -30 -34 -66
-88 -80 -120 -13 -32 -49 -86 -80 -120 -30 -34 -66 -88 -80 -120 -13 -32 -49
-86 -80 -120 -30 -34 -66 -88 -80 -120 -13 -32 -49 -86 -80 -120 -30 -34 -67
-88 -80 -122 -14 -33 -46 -82 -72 -108 -25 -26 -80 -116 -121 -200 -42 -84
-100 -179 -129 -212 -29 -32 -64 -85 -77 -117 -13 -31 -50 -87 -81 -124 -72
-83 -85 -130 -47 -172 35 -39 59 -39 133 0 202 106 392 193 445 202 33 6 88
25 121 41 33 17 105 35 160 40 55 6 127 24 160 40 33 17 105 35 160 40 55 6
127 24 161 41 39 20 111 34 200 40 95 6 159 20 203 43 57 30 98 34 400 39 301
6 342 10 400 40 80 41 289 45 376 7 47 -21 61 -22 97 -3 57 29 138 123 168
195 13 32 66 102 118 156 52 54 106 126 120 161 15 34 86 124 160 199 73 75
145 165 160 200 18 45 152 190 440 480 289 290 422 435 440 479 35 85 66 117
161 164 55 28 181 141 408 365 210 208 354 338 400 360 41 21 161 123 280 240
116 114 240 220 279 240 39 20 111 74 160 120 49 46 125 102 169 124 44 22 94
57 112 76 18 20 72 56 120 80 48 24 102 60 120 80 18 20 72 56 120 80 48 24
102 60 120 80 18 20 72 56 120 80 48 24 102 60 120 80 18 20 72 56 120 80 48
24 102 60 119 79 17 19 140 89 272 155 133 66 263 141 289 165 61 57 1185 619
1267 634 33 6 159 60 279 120 120 60 246 114 280 120 34 6 125 42 202 80 76
38 166 74 200 80 33 6 86 24 117 40 31 16 85 34 120 40 35 6 89 24 120 40 31
16 85 34 120 40 35 6 89 24 120 40 31 16 85 34 120 40 35 6 90 25 123 41 33
17 105 35 160 40 55 6 127 24 160 40 33 17 105 35 160 40 55 6 127 24 160 40
33 17 105 35 160 40 55 6 127 24 160 40 33 17 105 35 160 40 55 6 127 24 161
41 39 20 111 34 200 40 91 6 161 20 202 41 48 24 108 34 240 40 135 6 192 16
241 41 52 26 104 34 280 40 179 6 227 13 280 41 59 31 95 34 440 39 313 5 381
10 404 31 44 40 43 2145 -1 2186 -47 42 -295 36 -379 -10z"/>
<path d="M20172 39011 c-96 -64 -91 0 -91 -1125 -1 -964 1 -1035 27 -1058 23
-21 88 -26 364 -31 303 -5 342 -9 400 -40 55 -29 99 -34 320 -40 218 -6 265
-12 320 -40 49 -25 105 -35 241 -41 132 -6 192 -16 240 -40 41 -21 111 -35
202 -41 89 -6 161 -20 200 -40 39 -19 111 -34 200 -40 89 -6 161 -20 200 -40
34 -17 106 -35 161 -41 55 -5 127 -23 160 -40 33 -16 105 -34 160 -40 55 -5
127 -23 160 -40 33 -16 88 -35 123 -41 35 -6 89 -24 120 -40 31 -16 85 -34
120 -40 35 -6 89 -24 120 -40 31 -16 85 -34 120 -40 35 -6 89 -24 120 -40 31
-16 85 -34 120 -40 35 -6 89 -24 120 -40 31 -16 85 -34 120 -40 35 -6 89 -24
120 -40 31 -16 84 -34 117 -40 34 -6 124 -42 200 -80 77 -38 168 -74 202 -80
34 -6 196 -78 360 -160 164 -82 326 -154 361 -160 81 -15 563 -256 625 -314
26 -24 152 -96 280 -160 128 -63 254 -135 280 -160 26 -24 120 -80 209 -125
88 -44 175 -96 192 -115 17 -19 67 -52 111 -74 44 -22 102 -60 128 -85 26 -25
116 -79 200 -121 94 -47 186 -108 241 -160 49 -46 124 -101 168 -123 43 -22
93 -56 111 -76 18 -20 68 -53 112 -76 44 -22 138 -95 208 -164 70 -68 160
-140 200 -160 41 -20 162 -124 280 -240 127 -124 239 -220 288 -245 112 -57
1403 -1350 1441 -1443 16 -39 94 -133 200 -240 102 -104 184 -202 200 -239 14
-34 68 -107 120 -161 52 -54 105 -125 119 -158 14 -34 70 -109 125 -169 54
-59 111 -130 126 -157 36 -69 183 -140 313 -153 55 -6 127 -24 160 -41 33 -16
105 -34 160 -40 55 -5 127 -23 160 -40 33 -16 88 -35 123 -41 35 -6 89 -24
120 -40 31 -16 85 -34 118 -40 79 -14 1067 -509 1108 -554 17 -19 67 -53 111
-75 44 -22 120 -78 169 -124 49 -46 121 -100 160 -119 97 -49 874 -822 888
-884 5 -24 40 -79 77 -121 37 -42 78 -100 89 -129 12 -29 46 -76 77 -104 30
-28 67 -76 81 -107 30 -62 47 -69 73 -29 13 22 9 36 -17 64 -19 20 -42 66 -51
101 -10 35 -28 80 -42 99 -13 19 -29 70 -34 112 -6 42 -24 96 -40 119 -17 24
-30 48 -30 55 0 7 -36 82 -79 168 -43 86 -84 184 -90 218 -14 82 -589 1232
-646 1293 -25 26 -97 152 -160 280 -63 128 -136 254 -161 280 -26 26 -58 75
-72 108 -13 34 -50 88 -80 122 -31 34 -67 88 -80 120 -14 32 -50 86 -80 120
-31 34 -67 88 -80 120 -14 32 -50 86 -80 120 -31 34 -67 88 -80 120 -14 32
-50 86 -80 120 -31 34 -67 89 -81 123 -14 33 -68 105 -120 159 -52 54 -106
126 -120 160 -14 34 -68 106 -120 160 -52 54 -106 126 -120 161 -15 35 -87
124 -160 199 -74 76 -145 165 -160 200 -17 43 -123 162 -319 360 -199 201
-304 319 -327 368 -45 99 -1000 1053 -1105 1104 -42 21 -160 122 -280 240
-118 116 -239 220 -280 240 -40 20 -130 91 -200 160 -70 68 -160 140 -200 160
-40 20 -112 74 -161 120 -49 46 -121 100 -160 120 -39 20 -111 74 -160 120
-49 46 -124 102 -168 124 -43 22 -93 56 -111 76 -18 20 -68 53 -112 75 -44 22
-120 79 -168 126 -60 58 -139 111 -248 165 -88 43 -175 95 -192 114 -18 20
-68 53 -112 75 -44 22 -102 61 -128 85 -26 25 -188 115 -360 201 -172 85 -334
175 -360 200 -61 57 -1212 631 -1294 646 -34 6 -160 60 -280 120 -120 60 -245
114 -278 120 -34 6 -124 42 -200 80 -77 38 -168 74 -203 80 -35 6 -89 24 -120
40 -31 16 -85 34 -120 40 -35 6 -89 24 -120 40 -31 16 -85 34 -120 40 -35 6
-89 24 -120 40 -31 16 -85 34 -120 40 -35 6 -89 24 -120 40 -31 16 -85 34
-120 40 -35 6 -89 24 -120 40 -31 16 -85 34 -120 40 -35 6 -89 24 -120 40 -31
16 -102 33 -157 39 -55 5 -127 23 -160 40 -33 16 -105 34 -160 40 -55 5 -127
23 -160 40 -33 16 -105 34 -160 40 -55 5 -127 23 -160 40 -33 16 -105 34 -160
40 -55 5 -129 24 -164 42 -39 20 -94 32 -147 32 -162 1 -204 15 -247 83 -51
82 -75 89 -160 47 -87 -42 -165 -43 -243 -4 -50 26 -105 31 -355 37 -262 6
-303 10 -360 40 -58 30 -97 34 -400 40 -309 6 -341 9 -403 42 -92 48 -403 52
-473 6z"/>
<path d="M17527 29488 c-55 -35 -554 -1013 -574 -1124 -6 -33 -420 -879 -920
-1880 -500 -1001 -914 -1848 -920 -1882 -15 -84 -98 -244 -170 -326 -45 -52
-61 -87 -70 -151 -9 -66 -24 -97 -80 -159 -56 -62 -71 -92 -80 -160 -9 -67
-24 -98 -80 -160 -51 -57 -71 -94 -78 -146 -7 -49 -560 -1171 -1800 -3653
-985 -1971 -1796 -3610 -1802 -3643 -8 -47 -438 -937 -602 -1246 -39 -73 -39
-98 -2 -132 27 -24 156 -26 1530 -26 1738 0 1562 -19 1660 179 32 65 62 144
68 177 6 33 204 447 440 920 236 473 435 889 441 924 18 104 1319 2680 1373
2719 45 33 53 33 2256 33 2211 0 2211 0 2278 -36 95 -50 177 -47 255 10 135
101 1171 1161 1197 1226 20 48 295 333 1090 1129 1063 1064 1063 1064 1063
1141 0 71 -134 346 -1521 3120 -837 1673 -1532 3054 -1546 3069 -21 24 -80 27
-522 32 -482 5 -501 6 -566 41 -98 52 -704 55 -805 4 -76 -39 -226 -43 -309
-8 -50 21 -63 21 -114 -1 -51 -21 -63 -21 -114 0 -51 22 -64 22 -114 1 -83
-35 -233 -31 -309 8 -92 47 -480 47 -553 0z m1696 -2714 c32 -12 356 -658 370
-738 6 -33 204 -447 440 -920 236 -473 434 -887 440 -920 6 -33 186 -411 400
-840 214 -429 394 -807 400 -840 5 -33 42 -123 81 -200 38 -77 70 -150 70
-162 0 -67 54 -66 -2206 -75 -1185 -6 -2172 -13 -2194 -16 -36 -6 -40 -1 -45
54 -3 39 6 80 25 112 17 29 36 82 41 118 6 38 208 460 481 1008 259 517 475
968 481 1001 6 33 186 411 400 840 214 429 394 807 400 840 13 72 337 726 365
737 11 5 21 9 23 10 1 0 14 -3 28 -9z"/>
<path d="M22186 29491 c-34 -38 -33 -58 5 -129 186 -350 994 -2000 1002 -2046
6 -33 422 -883 924 -1889 914 -1828 914 -1828 880 -1896 -19 -37 -38 -110 -42
-163 -6 -76 -27 -135 -99 -280 -83 -166 -109 -201 -264 -360 -103 -105 -183
-202 -199 -240 -19 -47 -237 -275 -808 -848 -528 -530 -784 -798 -791 -828 -7
-27 -34 -59 -74 -84 -35 -22 -75 -63 -89 -92 -14 -29 -698 -725 -1519 -1548
-1129 -1131 -1500 -1512 -1519 -1560 -20 -48 -336 -374 -1280 -1320 -944 -945
-1261 -1272 -1280 -1320 -20 -48 -291 -329 -1080 -1120 -789 -790 -1061 -1072
-1080 -1120 -20 -48 -321 -360 -1208 -1248 -809 -812 -1184 -1198 -1191 -1228
-7 -28 -34 -59 -74 -84 -40 -25 -76 -66 -97 -110 -46 -98 -788 -834 -853 -846
-68 -12 -125 9 -217 81 -45 36 -97 70 -116 76 -19 6 -72 42 -118 79 -47 38
-101 74 -120 80 -20 7 -74 43 -120 80 -47 38 -101 74 -120 80 -20 7 -74 43
-120 80 -47 38 -101 74 -120 80 -20 7 -74 43 -120 80 -47 38 -101 74 -122 81
-20 6 -82 53 -136 106 -55 52 -133 109 -175 127 -47 21 -124 83 -205 165 -71
71 -154 140 -185 152 -32 13 -147 112 -272 234 -132 129 -247 227 -296 252
-111 57 -1163 1110 -1201 1203 -17 41 -103 142 -240 280 -135 136 -223 240
-240 280 -15 35 -87 125 -160 200 -74 75 -145 164 -159 197 -13 33 -50 87 -80
121 -31 34 -67 89 -81 123 -14 33 -68 104 -119 158 -51 53 -108 131 -128 173
-70 151 35 140 -1389 140 -686 0 -1260 -4 -1274 -10 -40 -15 -29 -65 30 -131
30 -33 60 -80 66 -104 6 -24 42 -78 80 -121 56 -62 71 -92 80 -159 9 -65 25
-99 73 -154 35 -39 73 -97 87 -128 13 -32 49 -85 79 -119 31 -34 67 -88 80
-120 14 -32 50 -86 80 -120 31 -34 67 -88 80 -120 14 -32 50 -86 80 -120 31
-34 68 -90 82 -124 14 -34 86 -123 159 -198 74 -75 146 -165 160 -200 15 -35
87 -125 160 -200 74 -76 145 -165 160 -200 17 -42 117 -156 286 -328 142 -145
267 -284 278 -308 36 -87 117 -48 130 63 9 77 9 77 89 77 80 0 80 0 80 -64 0
-64 0 -64 67 -69 56 -4 71 2 96 38 55 79 85 103 131 103 55 0 77 -23 85 -88 4
-41 13 -49 66 -57 71 -12 153 2 239 39 60 27 61 26 101 -16 49 -53 44 -73 -23
-90 -28 -7 -74 -27 -103 -45 -77 -46 -303 -44 -403 4 -72 35 -73 36 -129 6
-61 -33 -90 -99 -53 -123 26 -17 587 -7 725 12 87 13 96 18 107 61 7 27 38 71
70 100 95 87 61 149 -81 149 -58 0 -75 27 -27 41 15 5 61 26 102 48 120 63
194 54 249 -29 70 -104 113 -100 182 16 25 42 41 52 85 52 82 0 98 -31 49 -97
-54 -74 -46 -114 28 -135 78 -21 87 -34 54 -71 -30 -33 -22 -65 17 -65 35 0
102 79 102 121 0 20 18 58 40 84 52 61 50 85 -6 127 -40 30 -47 48 -55 135 -5
56 -14 124 -20 153 -9 46 -7 52 24 52 61 0 129 -84 129 -159 0 -73 1 -74 64
-41 77 40 91 22 100 -133 5 -83 19 -162 36 -196 25 -54 26 -61 2 -108 -25 -47
-25 -54 6 -110 17 -33 32 -73 32 -89 0 -21 13 -28 56 -28 65 0 68 9 24 56 -39
42 -63 117 -50 156 11 29 156 156 178 156 7 0 31 -31 53 -68 23 -37 95 -122
162 -188 135 -133 141 -151 73 -216 -53 -51 -59 -75 -25 -103 33 -28 87 5 108
66 27 76 201 139 250 90 29 -29 23 -74 -13 -93 -18 -9 -32 -28 -32 -41 0 -30
49 -30 89 0 55 42 126 30 201 -33 39 -33 102 -73 141 -90 41 -19 124 -86 200
-163 71 -71 154 -141 185 -153 31 -13 93 -53 139 -90 45 -37 99 -72 118 -78
20 -7 74 -43 120 -80 47 -38 101 -74 120 -80 20 -7 74 -43 120 -80 47 -38 101
-74 120 -80 20 -7 74 -43 120 -80 47 -38 101 -74 122 -81 20 -6 69 -38 109
-71 112 -93 430 -247 474 -230 19 8 384 359 810 780 426 421 796 775 822 786
25 10 56 31 68 46 31 37 61 32 91 -14 35 -53 72 -51 123 7 32 35 62 49 119 57
42 5 88 12 101 13 23 4 30 52 15 107 -6 19 15 25 107 29 114 4 152 -10 169
-63 12 -36 76 4 112 70 33 59 47 70 117 85 44 10 103 30 130 44 28 14 104 34
168 43 65 10 141 21 169 26 41 8 79 -6 188 -65 105 -57 137 -69 137 -49 0 14
29 52 64 85 36 32 70 79 76 103 17 62 37 61 58 -3 27 -83 83 -109 158 -74 77
37 115 28 121 -27 5 -44 53 -85 74 -63 6 6 92 15 190 19 157 7 179 12 184 37
8 41 -39 87 -99 99 -108 22 -132 42 -112 95 17 46 62 43 161 -10 92 -49 104
-61 150 -161 58 -125 71 -130 207 -67 63 30 126 44 224 50 83 6 159 21 194 39
163 81 680 80 782 -2 65 -53 154 -119 186 -138 25 -14 27 -25 14 -64 -19 -53
-86 -71 -119 -31 -28 34 -101 33 -94 -1 9 -44 134 -76 216 -55 86 22 216 7
296 -33 72 -36 109 -38 150 -7 35 27 96 32 110 10 5 -8 -9 -36 -31 -62 -66
-78 -115 -227 -75 -227 49 0 519 481 495 506 -5 4 -36 -11 -69 -34 -70 -47
-109 -47 -116 3 -10 69 39 146 116 182 89 42 217 179 217 233 0 21 -14 65 -32
97 -39 74 -18 118 38 77 109 -79 100 -76 150 -50 60 31 147 129 167 189 31 89
107 94 150 11 15 -28 37 -46 57 -46 46 0 229 180 268 263 19 42 54 82 88 102
31 18 68 57 83 86 14 29 698 726 1519 1549 1129 1131 1500 1512 1519 1560 20
48 309 347 1160 1200 852 853 1141 1152 1160 1200 20 48 284 323 1054 1093
922 924 1038 1035 1135 1084 121 62 251 74 350 32 48 -20 61 -19 110 4 50 24
157 27 936 32 1126 7 1055 14 1206 -131 68 -65 132 -144 150 -184 17 -38 55
-96 85 -129 30 -34 66 -87 79 -119 14 -32 49 -86 78 -118 29 -33 87 -128 129
-212 41 -84 96 -174 121 -200 26 -26 58 -75 72 -108 13 -34 50 -88 80 -122 31
-34 67 -88 80 -120 14 -32 49 -86 78 -118 29 -33 87 -128 129 -212 41 -84 96
-174 121 -200 26 -26 58 -75 72 -108 13 -34 49 -88 78 -120 29 -33 87 -128
129 -212 41 -84 96 -174 121 -200 26 -26 58 -75 72 -108 13 -34 49 -88 78
-120 29 -33 87 -128 129 -212 41 -84 96 -174 121 -200 26 -26 58 -75 72 -108
13 -34 50 -88 80 -122 31 -34 67 -88 80 -120 14 -32 49 -86 78 -118 29 -33 87
-128 129 -212 41 -84 96 -174 121 -200 26 -26 58 -75 72 -108 13 -34 49 -88
78 -120 29 -33 87 -128 129 -212 41 -84 96 -174 121 -200 26 -26 58 -75 72
-108 13 -34 50 -88 80 -122 31 -34 67 -88 80 -120 14 -32 49 -86 78 -118 29
-33 87 -128 129 -212 41 -84 96 -174 121 -200 26 -26 58 -75 72 -108 13 -34
50 -88 80 -122 31 -34 67 -88 80 -120 14 -32 49 -86 78 -118 29 -33 87 -128
129 -212 41 -84 95 -174 120 -200 25 -26 80 -119 122 -205 91 -185 132 -219
208 -172 76 47 113 96 192 257 41 84 95 174 120 200 25 26 79 116 120 200 41
84 95 174 120 200 58 62 792 1532 806 1616 6 35 25 88 42 117 55 93 43 193
-33 280 -36 40 -75 99 -89 130 -13 32 -48 85 -77 117 -29 33 -87 128 -129 212
-41 84 -96 174 -121 200 -26 26 -58 75 -72 108 -13 34 -49 88 -78 120 -29 33
-87 128 -129 212 -41 84 -96 174 -121 200 -26 26 -58 75 -72 108 -13 34 -50
88 -80 122 -31 34 -67 88 -80 120 -14 32 -50 86 -80 120 -31 34 -67 88 -80
120 -14 32 -50 86 -80 120 -31 34 -67 88 -80 120 -14 32 -50 86 -80 120 -31
34 -67 88 -80 120 -14 32 -50 86 -80 120 -31 34 -67 88 -80 120 -14 32 -49 86
-78 118 -29 33 -87 128 -129 212 -41 84 -96 174 -121 200 -26 26 -58 75 -72
108 -13 34 -50 88 -80 122 -31 34 -67 88 -80 120 -14 32 -50 86 -80 120 -31
34 -67 88 -80 120 -14 32 -49 86 -78 118 -29 33 -87 128 -129 212 -41 84 -95
174 -121 200 -48 50 -112 182 -112 231 0 44 36 67 368 232 253 125 329 171
400 240 48 47 120 102 159 121 39 20 111 74 160 120 49 46 121 100 161 120
102 51 501 449 545 543 19 40 76 117 127 170 51 54 105 126 119 160 15 35 47
85 73 111 58 61 393 730 407 816 6 35 24 86 40 113 15 26 33 80 39 119 6 38
25 96 42 127 16 31 33 102 37 156 5 56 22 125 41 160 26 49 33 96 37 237 4
148 11 186 41 237 36 60 36 67 36 691 0 625 0 631 -36 691 -32 54 -37 87 -41
277 -4 182 -9 226 -37 277 -19 35 -36 104 -41 160 -4 54 -21 124 -37 155 -16
31 -34 85 -40 120 -6 35 -42 126 -80 202 -39 76 -75 166 -81 200 -15 84 -270
594 -327 654 -26 26 -58 77 -73 112 -15 35 -86 125 -159 200 -73 75 -148 169
-167 210 -42 90 -206 252 -305 302 -40 19 -130 91 -200 160 -70 68 -160 140
-200 160 -40 19 -94 56 -120 81 -61 57 -891 471 -975 486 -35 7 -89 24 -120
40 -31 16 -85 34 -120 40 -35 6 -89 24 -120 40 -35 17 -112 32 -196 38 -89 6
-161 20 -200 40 -34 17 -106 35 -161 41 -55 5 -129 24 -164 42 -61 31 -92 32
-1387 33 -861 0 -1350 6 -1397 17 -125 29 -290 48 -483 56 -172 7 -192 5 -256
-29 -69 -37 -69 -37 -949 -37 -782 0 -887 3 -944 26 -59 25 -70 25 -120 2 -78
-35 -370 -35 -448 0 -50 23 -61 23 -120 -2 -88 -36 -439 -35 -520 2 -49 22
-61 22 -115 1 -41 -16 -90 -21 -160 -15 -146 13 -320 36 -359 49 -22 8 -58 -1
-104 -25 -90 -48 -446 -55 -542 -11 -49 23 -61 23 -115 2 -40 -16 -84 -21
-129 -14 -435 65 -416 64 -489 26 -84 -42 -160 -42 -250 2 -72 35 -72 35 -153
-3 -81 -38 -81 -38 -153 -3 -87 43 -106 43 -141 6z m7806 -1533 c35 -18 110
-38 166 -44 113 -11 146 -29 146 -79 0 -23 -324 -358 -1032 -1067 -787 -788
-1032 -1042 -1032 -1071 0 -21 50 -137 111 -258 61 -121 116 -248 122 -282 5
-33 41 -123 79 -199 39 -76 75 -166 81 -200 9 -56 179 -419 216 -464 25 -29
241 -128 307 -140 34 -7 124 -43 200 -81 77 -38 167 -74 200 -80 34 -6 124
-42 200 -80 77 -38 168 -74 203 -80 35 -6 91 -25 124 -42 88 -46 172 -40 247
15 137 102 1331 1321 1357 1386 34 84 625 680 674 680 52 0 99 -64 112 -151 6
-43 26 -104 44 -134 25 -41 35 -91 39 -193 4 -104 15 -154 41 -202 54 -98 54
-686 0 -784 -29 -53 -36 -95 -40 -240 -4 -144 -11 -187 -39 -233 -18 -31 -38
-87 -44 -124 -6 -37 -42 -131 -81 -208 -38 -76 -75 -167 -80 -201 -15 -82 -98
-244 -163 -318 -29 -32 -64 -86 -78 -119 -14 -33 -67 -103 -119 -157 -52 -54
-106 -127 -120 -161 -35 -85 -300 -351 -400 -402 -44 -22 -119 -79 -168 -125
-49 -46 -125 -102 -169 -124 -44 -22 -94 -57 -112 -76 -42 -47 -225 -138 -305
-153 -35 -6 -89 -24 -120 -40 -31 -16 -85 -34 -120 -40 -35 -6 -90 -25 -123
-41 -33 -17 -105 -35 -160 -40 -55 -6 -129 -26 -164 -44 -62 -33 -90 -34 -848
-42 -709 -7 -789 -11 -836 -36 -28 -16 -96 -33 -152 -38 -55 -6 -126 -23 -157
-39 -31 -16 -85 -33 -120 -40 -84 -15 -594 -269 -655 -327 -26 -24 -84 -63
-128 -85 -44 -22 -94 -55 -112 -75 -18 -20 -68 -53 -112 -75 -108 -54 -2424
-2362 -2471 -2463 -18 -39 -54 -79 -87 -99 -31 -18 -68 -57 -83 -86 -14 -29
-431 -460 -927 -957 -611 -614 -903 -918 -910 -948 -7 -27 -34 -59 -74 -84
-35 -22 -75 -63 -89 -92 -14 -29 -554 -581 -1199 -1228 -882 -883 -1180 -1192
-1199 -1240 -19 -48 -239 -277 -854 -893 -1021 -1024 -909 -947 -1379 -947
-328 0 -328 0 -440 58 -83 44 -153 101 -266 217 -142 144 -156 164 -167 236
-6 43 -27 104 -45 136 -31 51 -34 81 -34 305 0 248 0 248 94 432 94 184 94
184 1387 1480 973 976 1299 1312 1318 1360 20 48 336 374 1280 1320 945 946
1261 1272 1280 1320 20 48 336 374 1280 1320 942 943 1261 1272 1280 1320 18
44 129 168 360 400 226 228 342 356 360 399 14 35 68 107 120 161 52 54 106
127 120 161 15 35 47 85 73 111 58 60 233 411 248 496 6 35 24 89 40 120 16
31 33 101 37 155 5 58 22 124 41 160 33 60 34 80 38 997 4 927 4 937 39 1000
21 38 38 104 42 164 5 58 21 122 39 153 17 28 36 82 41 118 14 88 257 572 325
649 29 32 65 86 78 120 38 92 615 666 728 723 48 25 102 61 119 80 42 46 548
300 627 314 34 6 88 24 119 40 31 16 85 34 120 40 35 6 90 25 123 41 33 17
105 35 160 40 55 6 122 22 148 35 86 44 152 48 688 46 503 -3 531 -5 592 -37z"/>
<path d="M16200 29468 c-25 -16 -1178 -22 -5216 -28 -5035 -8 -5186 -9 -5239
-38 -41 -22 -101 -32 -232 -38 -129 -6 -193 -16 -237 -38 -33 -17 -105 -35
-160 -40 -55 -6 -126 -23 -157 -39 -31 -16 -85 -34 -120 -40 -35 -6 -89 -24
-120 -40 -31 -16 -85 -33 -120 -40 -84 -15 -754 -349 -815 -407 -26 -24 -84
-63 -128 -85 -44 -22 -94 -55 -112 -75 -18 -20 -68 -54 -112 -76 -108 -54
-349 -292 -393 -386 -18 -41 -90 -132 -159 -202 -123 -125 -132 -139 -341
-560 -119 -238 -220 -461 -227 -496 -6 -35 -24 -89 -40 -120 -16 -31 -33 -101
-37 -155 -4 -55 -22 -126 -40 -160 -18 -34 -36 -105 -40 -160 -5 -56 -22 -125
-41 -160 -28 -51 -33 -95 -37 -277 -4 -190 -9 -223 -41 -277 -35 -60 -36 -71
-36 -571 0 -500 1 -511 36 -571 32 -54 37 -87 41 -277 4 -182 9 -226 37 -277
19 -35 36 -104 41 -160 4 -54 21 -124 37 -155 16 -31 34 -85 40 -120 7 -35
108 -258 227 -496 182 -367 228 -445 301 -520 47 -48 101 -122 120 -162 41
-90 205 -251 304 -302 40 -19 130 -91 200 -160 70 -68 160 -140 200 -160 40
-19 94 -56 120 -80 61 -58 731 -392 815 -407 35 -7 89 -24 120 -40 31 -16 85
-34 120 -40 35 -6 89 -24 120 -40 31 -16 102 -33 157 -39 55 -5 127 -23 160
-40 38 -18 112 -33 199 -39 90 -6 160 -20 200 -40 53 -28 103 -32 397 -38 311
-6 341 -9 405 -42 66 -35 78 -36 424 -28 195 4 386 8 423 8 103 1 235 1 316 0
66 -1 870 -2 1040 -1 40 0 164 0 276 0 249 0 369 9 442 33 47 16 64 14 109
-10 49 -27 129 -30 1077 -37 1004 -8 1025 -9 1088 -42 35 -18 92 -39 126 -45
34 -6 94 -27 133 -46 115 -56 162 -19 287 229 54 107 103 223 108 257 14 85
179 409 250 491 42 47 62 88 69 137 13 96 492 1052 574 1145 33 39 61 79 61
88 0 10 18 52 40 93 67 126 43 163 -116 179 -55 5 -127 23 -160 40 -33 16 -88
35 -123 41 -35 6 -89 24 -120 40 -31 16 -102 33 -157 39 -55 5 -127 23 -160
40 -47 24 -106 32 -276 37 -173 6 -227 14 -272 38 -54 30 -132 31 -2800 39
-2744 8 -2744 8 -2808 42 -35 18 -109 38 -164 44 -55 5 -127 23 -160 40 -33
17 -91 35 -128 42 -43 7 -93 32 -135 67 -37 30 -100 72 -140 93 -93 48 -280
237 -313 317 -14 34 -53 91 -87 128 -47 51 -65 86 -74 146 -6 43 -26 103 -43
132 -18 31 -34 95 -39 153 -4 59 -21 126 -42 164 -49 91 -48 293 1 384 25 47
36 100 41 200 6 128 12 147 98 320 88 175 104 195 319 413 236 240 354 321
499 348 35 6 90 25 123 41 33 17 105 35 160 40 55 6 129 26 164 44 64 34 64
34 4362 38 4059 4 4299 6 4322 32 44 49 504 985 515 1048 6 33 187 413 403
844 274 550 389 794 382 817 -12 35 -63 40 -112 11z"/>
<path d="M36472 24604 c0 -847 0 -852 -35 -916 -26 -48 -37 -98 -41 -200 -4
-100 -15 -154 -40 -200 -19 -37 -37 -106 -41 -164 -5 -58 -21 -122 -39 -153
-17 -29 -36 -85 -42 -125 -6 -39 -24 -92 -40 -119 -16 -26 -34 -78 -40 -116
-6 -37 -42 -131 -81 -208 -38 -76 -75 -167 -80 -201 -14 -80 -97 -245 -154
-306 -25 -26 -79 -116 -120 -200 -51 -103 -105 -183 -168 -249 -51 -54 -104
-125 -118 -160 -15 -34 -86 -124 -160 -199 -73 -75 -145 -165 -160 -200 -17
-41 -118 -156 -288 -328 -262 -265 -262 -265 -267 -496 -5 -206 -10 -239 -42
-293 -33 -55 -36 -81 -36 -288 0 -227 0 -227 57 -339 32 -62 78 -134 103 -160
26 -26 58 -75 72 -108 13 -34 50 -88 80 -122 31 -34 67 -88 80 -120 14 -32 50
-86 80 -120 31 -34 67 -88 80 -120 14 -32 50 -86 80 -120 31 -34 67 -88 80
-120 14 -32 49 -86 78 -118 29 -33 87 -128 129 -212 41 -84 96 -174 121 -200
26 -26 58 -75 72 -108 13 -34 50 -88 80 -122 31 -34 67 -88 80 -120 14 -32 49
-86 78 -118 30 -33 70 -94 90 -136 43 -93 149 -192 197 -185 27 4 37 20 46 73
6 38 26 96 43 128 17 33 35 105 39 160 5 58 21 122 39 153 17 28 36 84 42 123
6 38 25 96 42 127 16 31 33 102 37 156 4 55 22 126 40 160 18 34 36 105 40
160 4 55 22 126 40 160 18 34 36 105 40 160 4 56 22 126 40 160 24 44 35 99
39 197 4 101 15 153 40 200 28 52 35 97 40 240 4 144 11 187 40 240 30 55 35
94 39 280 5 189 10 224 41 280 34 62 36 80 40 560 4 482 5 498 40 557 36 60
36 65 36 731 0 666 0 671 -36 731 -35 59 -36 75 -40 557 -4 480 -6 498 -40
560 -31 56 -36 91 -41 280 -4 187 -9 224 -40 280 -30 56 -36 93 -41 288 -4
193 -10 230 -38 269 -21 30 -35 82 -40 152 -5 62 -25 140 -46 187 -24 50 -38
110 -38 161 0 73 -42 151 -81 151 -4 0 -7 -383 -7 -852z"/>
<path d="M1596 21436 c4 -898 4 -900 40 -964 33 -59 36 -88 40 -360 5 -270 8
-302 40 -360 29 -53 36 -95 40 -240 5 -144 12 -188 40 -240 29 -52 36 -96 40
-240 5 -140 12 -188 38 -237 18 -34 37 -106 42 -160 14 -170 -101 -155 1164
-155 1277 0 1160 -17 1160 164 0 79 -9 121 -34 163 -20 35 -36 96 -41 157 -4
59 -21 126 -42 164 -28 52 -35 97 -39 240 -5 145 -12 187 -41 240 -31 57 -36
91 -40 320 -4 240 -7 261 -46 336 -59 113 -78 131 -151 142 -79 13 -267 106
-310 154 -18 20 -72 56 -120 80 -48 24 -102 60 -120 80 -18 20 -72 56 -120 80
-48 24 -102 60 -120 80 -18 19 -68 53 -112 75 -50 25 -158 117 -288 245 -114
112 -239 220 -277 239 -50 25 -76 52 -94 94 -13 32 -102 138 -197 235 -95 97
-186 205 -203 240 -17 35 -39 78 -49 96 -10 18 -31 59 -46 93 -22 50 -118 139
-150 139 -4 0 -6 -405 -4 -900z"/>
<path d="M26470 17874 c-136 -102 -1571 -1561 -1597 -1625 -16 -39 -98 -137
-210 -251 -214 -219 -221 -238 -122 -352 36 -40 138 -223 242 -430 99 -198
191 -373 205 -388 40 -44 3025 -43 3066 1 34 38 33 58 -5 129 -157 297 -514
1038 -522 1086 -11 62 -870 1799 -915 1848 -35 39 -70 35 -142 -18z"/>
<path d="M10392 17563 c-64 -35 -64 -35 -4128 -43 -2235 -5 -4067 -10 -4070
-12 -14 -10 50 -259 82 -318 15 -28 32 -82 38 -120 6 -39 24 -91 40 -117 16
-27 34 -80 40 -119 6 -40 23 -94 39 -121 16 -27 33 -78 39 -113 6 -35 42 -126
80 -202 39 -76 75 -166 80 -200 6 -34 42 -124 80 -200 39 -76 75 -166 80 -200
6 -34 42 -124 80 -200 39 -76 75 -166 81 -200 11 -64 231 -521 275 -570 39
-44 5905 -44 5944 0 14 15 286 550 605 1188 394 788 600 1183 642 1230 33 39
61 79 61 88 0 10 18 52 40 93 49 93 50 116 4 148 -45 32 -55 31 -132 -12z"/>
<path d="M32108 13812 c-14 -15 -52 -82 -85 -148 -35 -70 -99 -161 -152 -217
-51 -54 -104 -125 -118 -159 -14 -34 -68 -106 -120 -160 -52 -54 -106 -126
-120 -161 -15 -34 -86 -124 -160 -199 -73 -75 -145 -165 -160 -200 -18 -44
-133 -171 -360 -400 -230 -231 -342 -356 -360 -400 -36 -87 -298 -351 -401
-403 -53 -27 -176 -136 -368 -325 -179 -177 -315 -298 -360 -320 -40 -20 -148
-110 -240 -200 -92 -91 -200 -181 -240 -200 -39 -20 -115 -77 -168 -127 -53
-51 -121 -101 -151 -114 -30 -12 -102 -65 -160 -119 -58 -53 -132 -109 -164
-124 -33 -15 -87 -51 -120 -80 -34 -29 -88 -65 -120 -80 -33 -15 -87 -51 -120
-80 -34 -29 -88 -65 -120 -80 -33 -15 -87 -51 -120 -80 -34 -29 -87 -65 -119
-79 -32 -15 -84 -49 -116 -77 -32 -28 -117 -80 -190 -115 -73 -36 -162 -90
-200 -120 -86 -69 -1682 -868 -1761 -881 -33 -5 -121 -40 -196 -77 -75 -38
-165 -74 -200 -80 -34 -7 -127 -44 -206 -83 -104 -52 -169 -74 -240 -80 -70
-7 -135 -28 -234 -77 -75 -38 -165 -74 -200 -80 -35 -6 -91 -26 -126 -43 -34
-17 -106 -36 -160 -40 -53 -5 -133 -26 -177 -46 -44 -21 -96 -38 -117 -38 -20
0 -66 -15 -102 -34 -37 -18 -110 -37 -164 -42 -53 -5 -126 -23 -161 -41 -44
-22 -106 -35 -200 -40 -94 -5 -156 -17 -200 -40 -44 -22 -106 -35 -200 -40
-94 -5 -156 -17 -200 -40 -44 -22 -106 -35 -200 -40 -95 -5 -155 -17 -200 -40
-53 -28 -104 -35 -288 -42 -183 -8 -234 -15 -280 -41 -49 -27 -96 -33 -360
-40 -260 -7 -312 -12 -360 -39 -39 -21 -98 -33 -192 -38 -178 -9 -243 -64
-163 -137 48 -43 288 -37 376 10 60 32 96 36 371 44 261 7 312 12 360 39 42
23 101 33 240 40 137 7 198 17 240 40 38 21 100 33 192 38 94 5 156 17 200 40
44 22 106 35 200 40 94 5 156 17 200 40 44 22 106 35 200 40 92 5 156 17 199
39 34 17 106 35 160 40 53 5 125 23 160 40 34 17 106 36 160 40 53 5 133 26
177 46 44 21 96 38 117 38 20 0 63 14 96 31 33 17 89 36 124 42 35 6 89 24
120 40 31 16 85 33 120 39 35 7 87 25 116 42 29 16 83 35 120 40 37 6 93 23
124 39 31 16 85 34 120 40 34 7 124 43 200 80 75 38 165 73 200 79 35 7 87 25
116 42 29 16 83 35 120 41 85 13 1674 805 1768 881 38 30 169 105 293 166 123
61 250 135 283 163 32 29 86 64 118 79 33 15 87 51 120 80 34 29 88 65 120 80
33 15 87 51 120 81 34 29 86 63 116 75 30 13 102 66 160 120 58 53 132 109
164 124 33 15 87 51 120 80 34 29 86 64 117 78 31 14 87 52 126 84 81 68 90
69 186 22 111 -53 175 -1 137 113 -12 36 -17 76 -12 90 16 42 61 50 86 16 50
-70 68 -83 132 -93 37 -6 96 -25 130 -42 82 -42 234 -43 316 -2 92 46 245 57
348 25 109 -34 129 -26 142 64 13 86 40 106 169 119 74 8 88 15 88 41 0 23
-16 36 -56 46 -31 8 -83 25 -117 37 -74 27 -106 13 -157 -70 -46 -76 -57 -83
-129 -84 -94 0 -109 12 -109 87 0 96 53 145 144 133 53 -8 84 0 157 39 73 38
102 45 147 37 141 -28 429 -27 483 2 109 57 236 80 397 72 22 -1 128 3 235 10
170 11 199 16 233 48 21 20 52 36 70 36 41 0 132 -89 161 -156 12 -29 25 -52
30 -52 26 0 90 47 178 130 91 87 150 115 172 79 5 -8 -9 -36 -31 -62 -59 -70
-48 -131 25 -131 37 0 271 232 303 301 22 46 101 143 208 251 101 103 183 202
199 239 14 34 90 129 169 211 97 100 144 161 144 185 0 50 -104 250 -160 309
-26 26 -58 75 -72 108 -13 34 -49 88 -78 120 -29 33 -87 128 -129 212 -41 84
-95 174 -120 200 -25 26 -79 116 -120 200 -41 84 -95 174 -120 200 -25 26 -79
116 -120 200 -41 84 -95 174 -120 200 -25 26 -62 82 -81 124 -53 115 -160 171
-212 112z"/>
<path d="M14949 10760 c15 -96 48 -120 161 -120 120 1 146 14 132 70 -14 54
-76 85 -201 99 -102 12 -102 12 -92 -49z"/>
</g>
</svg>
