<svg xmlns="http://www.w3.org/2000/svg" width="629" height="264" viewBox="0 0 6290 2640" fill="#1e252b" role="img" aria-label="Soar Appliance Repair">
<g transform="translate(0.000000,2640.000000) scale(0.062500,-0.062500)">
<path d="M17992 39403 c-45 -34 -63 -35 -439 -40 -372 -5 -393 -7 -440 -40
-45 -32 -72 -35 -321 -40 -247 -5 -275 -9 -320 -40 -41 -30 -74 -36 -240 -41
-164 -5 -199 -11 -239 -39 -38 -27 -78 -35 -200 -40 -121 -6 -163 -14 -199
-39 -31 -23 -80 -35 -160 -40 -78 -6 -128 -18 -160 -40 -31 -23 -81 -35 -160
-40 -78 -6 -128 -18 -160 -40 -31 -23 -81 -35 -160 -40 -78 -6 -128 -18 -160
-40 -31 -23 -81 -35 -160 -40 -75 -6 -128 -19 -157 -38 -23 -17 -77 -35 -120
-40 -42 -6 -98 -25 -123 -43 -31 -21 -81 -34 -160 -39 -75 -6 -128 -19 -157
-38 -23 -17 -77 -35 -120 -40 -42 -6 -96 -24 -120 -40 -23 -17 -77 -35 -120
-40 -42 -6 -95 -23 -117 -38 -22 -15 -58 -33 -80 -40 -22 -7 -59 -26 -83 -42
-23 -17 -77 -35 -120 -40 -42 -6 -95 -23 -117 -38 -22 -15 -58 -33 -80 -40
-22 -7 -59 -26 -83 -42 -23 -17 -77 -35 -120 -40 -42 -6 -95 -23 -117 -38 -22
-15 -58 -33 -80 -40 -22 -7 -58 -25 -80 -40 -22 -15 -58 -33 -80 -40 -22 -7
-59 -26 -83 -42 -23 -17 -77 -35 -120 -40 -42 -6 -95 -23 -117 -38 -22 -15
-58 -33 -80 -40 -22 -7 -58 -25 -80 -40 -22 -15 -58 -33 -80 -40 -22 -7 -58
-25 -80 -40 -22 -15 -58 -33 -80 -40 -22 -7 -58 -25 -80 -40 -22 -15 -58 -33
-80 -40 -22 -7 -58 -25 -80 -40 -22 -15 -58 -33 -80 -40 -22 -7 -58 -25 -80
-40 -22 -15 -58 -33 -80 -40 -22 -7 -58 -25 -80 -40 -22 -15 -58 -33 -80 -40
-22 -7 -58 -25 -80 -40 -22 -15 -58 -33 -80 -40 -22 -7 -58 -25 -81 -41 -23
-16 -60 -34 -84 -40 -24 -6 -78 -41 -119 -79 -42 -37 -94 -73 -116 -80 -22 -7
-58 -25 -80 -40 -22 -15 -58 -33 -80 -40 -22 -7 -58 -25 -81 -41 -23 -16 -60
-34 -84 -40 -24 -6 -78 -42 -121 -80 -42 -38 -96 -74 -120 -80 -23 -6 -77 -42
-120 -80 -42 -38 -96 -74 -120 -80 -23 -6 -77 -42 -120 -80 -42 -38 -96 -74
-120 -80 -23 -6 -77 -42 -120 -80 -42 -38 -97 -74 -122 -80 -25 -7 -96 -61
-159 -120 -63 -60 -135 -114 -160 -120 -25 -7 -97 -61 -160 -120 -63 -60 -135
-114 -160 -120 -25 -7 -97 -61 -160 -120 -63 -60 -136 -114 -162 -121 -29 -7
-119 -81 -239 -199 -125 -123 -209 -192 -240 -200 -69 -16 -1743 -1690 -1759
-1759 -8 -32 -86 -124 -240 -280 -149 -152 -232 -248 -240 -280 -7 -29 -70
-108 -160 -200 -87 -90 -153 -172 -160 -200 -6 -26 -60 -98 -120 -161 -59 -63
-113 -134 -120 -159 -6 -25 -42 -80 -80 -122 -38 -43 -74 -97 -80 -120 -6 -24
-42 -78 -80 -120 -38 -43 -74 -97 -80 -120 -6 -24 -42 -78 -80 -120 -38 -43
-74 -97 -80 -120 -6 -24 -42 -78 -80 -120 -38 -43 -74 -97 -80 -120 -6 -24
-42 -78 -80 -120 -38 -43 -74 -97 -80 -121 -6 -24 -24 -61 -40 -84 -16 -23
-34 -59 -41 -81 -7 -22 -43 -74 -80 -116 -38 -41 -73 -95 -79 -118 -6 -24 -43
-79 -82 -122 -75 -84 -88 -136 -46 -179 33 -33 68 -32 128 5 27 17 67 35 88
42 21 7 57 25 79 40 22 15 58 33 80 40 22 7 59 26 83 42 23 17 77 35 120 40
42 6 98 25 123 43 31 21 81 34 160 39 78 6 128 18 160 40 31 23 81 35 160 40
80 6 128 18 161 42 38 26 79 34 200 39 123 6 162 13 201 41 45 32 71 34 399
39 325 5 355 8 398 38 65 47 234 57 331 22 40 -15 85 -31 101 -36 37 -12 193
145 210 211 6 26 60 98 120 161 59 63 114 135 120 160 7 27 74 111 160 199 89
92 152 172 159 200 9 33 143 180 441 480 303 306 432 446 440 480 15 64 98
148 159 161 37 8 144 104 402 360 244 241 367 352 400 360 32 8 127 89 280
240 147 145 249 233 278 240 26 6 98 61 161 120 63 60 134 114 158 120 24 6
78 42 121 80 42 38 96 74 120 80 23 6 77 42 120 80 42 38 96 74 120 80 23 6
77 42 120 80 42 38 96 74 120 80 23 6 77 42 120 80 42 38 96 74 120 80 23 6
77 41 118 79 42 37 94 73 116 80 22 7 58 25 80 40 22 15 58 33 80 40 22 7 58
25 81 41 23 16 60 34 84 40 24 6 78 41 119 79 42 37 94 73 116 80 22 7 58 25
80 40 22 15 58 33 80 40 22 7 58 25 80 40 22 15 58 33 80 40 22 7 58 25 80 40
22 15 58 33 80 40 22 7 58 25 80 40 22 15 58 33 80 40 22 7 58 25 80 40 22 15
58 33 80 40 22 7 58 25 80 40 22 15 58 33 80 40 22 7 59 26 83 42 23 17 77 35
120 40 42 6 95 23 117 38 22 15 58 33 80 40 22 7 58 25 80 40 22 15 58 33 80
40 22 7 59 26 83 42 23 17 77 35 120 40 42 6 95 23 117 38 22 15 58 33 80 40
22 7 59 26 83 42 23 17 77 35 120 40 42 6 96 24 120 40 23 17 77 35 120 40 42
6 96 24 120 40 23 17 77 35 120 40 42 6 96 24 120 40 23 17 77 35 120 40 42 6
98 25 123 43 31 21 81 34 160 39 78 6 128 18 160 40 31 23 81 35 160 40 78 6
128 18 160 40 31 23 81 35 160 40 78 6 128 18 160 40 31 23 81 35 160 40 80 6
128 18 161 42 38 26 79 34 200 39 123 6 162 13 201 41 41 29 76 35 240 40 165
5 199 10 240 40 43 30 74 35 280 40 206 5 237 9 280 40 45 32 71 34 440 42
216 4 401 14 412 21 16 10 20 248 20 1099 0 1260 26 1120 -211 1119 -128 0
-156 -5 -197 -36z"/>
<path d="M20138 39383 c-58 -57 -58 -57 -58 -1103 0 -819 4 -1049 20 -1059 11
-7 178 -17 372 -21 328 -7 355 -10 400 -43 45 -31 73 -35 320 -40 247 -5 276
-8 320 -39 41 -30 75 -35 240 -40 164 -5 199 -11 240 -40 39 -28 78 -35 201
-41 122 -5 162 -13 200 -40 38 -26 78 -34 200 -40 121 -5 162 -13 200 -39 33
-24 81 -36 161 -42 79 -5 129 -17 160 -40 32 -22 82 -34 160 -40 79 -5 129
-18 160 -39 25 -18 81 -37 123 -43 43 -5 97 -23 120 -40 24 -16 78 -34 120
-40 43 -5 97 -23 120 -40 24 -16 78 -34 120 -40 43 -5 97 -23 120 -40 24 -16
78 -34 120 -40 43 -5 97 -23 120 -40 24 -16 78 -34 120 -40 43 -5 97 -23 120
-40 24 -16 78 -34 120 -40 43 -5 97 -23 120 -40 24 -16 61 -35 83 -42 22 -7
58 -25 80 -40 22 -15 75 -32 117 -38 43 -5 97 -23 120 -40 24 -16 61 -35 83
-42 22 -7 58 -25 80 -40 22 -15 58 -33 80 -40 22 -7 58 -25 80 -40 22 -15 58
-33 80 -40 22 -7 58 -25 80 -40 22 -15 75 -32 117 -38 43 -5 97 -23 120 -40
24 -16 61 -35 83 -42 22 -7 58 -25 80 -40 22 -15 58 -33 80 -40 22 -7 58 -25
80 -40 22 -15 58 -33 80 -40 22 -7 74 -43 116 -80 41 -38 95 -73 119 -79 24
-6 61 -24 84 -40 23 -16 59 -34 81 -41 22 -7 58 -25 80 -40 22 -15 58 -33 80
-40 22 -7 74 -43 116 -80 41 -38 95 -73 119 -79 24 -6 61 -24 84 -40 23 -16
59 -34 81 -41 22 -7 74 -43 116 -80 41 -38 95 -73 118 -79 24 -6 78 -42 120
-80 43 -38 97 -74 121 -80 24 -6 61 -24 84 -40 23 -16 59 -34 81 -41 22 -7 91
-61 154 -120 62 -59 133 -112 158 -119 25 -6 80 -42 122 -80 43 -38 97 -74
122 -80 24 -7 112 -78 196 -160 92 -88 172 -152 200 -160 31 -7 129 -91 280
-240 160 -158 247 -232 281 -239 68 -15 1424 -1372 1441 -1442 7 -31 78 -116
199 -240 116 -118 193 -210 200 -238 6 -26 61 -98 120 -161 60 -63 114 -135
120 -160 7 -25 60 -97 119 -159 59 -63 113 -132 120 -154 17 -56 35 -75 84
-87 23 -6 60 -24 83 -40 26 -18 82 -31 155 -37 79 -5 129 -17 160 -40 32 -22
82 -34 160 -40 79 -5 129 -18 160 -39 25 -18 81 -37 123 -43 43 -5 97 -23 120
-40 24 -16 78 -34 120 -40 43 -5 97 -23 120 -40 24 -16 61 -35 83 -42 22 -7
58 -25 80 -40 22 -15 58 -33 80 -40 22 -7 58 -25 80 -40 22 -15 58 -33 80 -40
22 -7 58 -25 80 -40 22 -15 58 -33 80 -40 22 -7 58 -25 80 -40 22 -15 58 -33
80 -40 22 -7 58 -25 80 -40 22 -15 58 -33 80 -40 22 -7 74 -43 116 -80 41 -38
95 -73 119 -79 24 -6 95 -60 158 -120 63 -59 135 -113 161 -120 64 -15 865
-814 879 -876 5 -24 41 -79 79 -122 39 -43 75 -98 81 -122 7 -25 41 -74 77
-109 36 -35 73 -86 82 -114 11 -34 26 -50 48 -50 45 0 51 66 11 110 -18 19
-38 56 -44 82 -6 26 -26 68 -43 93 -18 25 -36 79 -40 120 -5 41 -21 93 -36
115 -15 22 -33 58 -40 80 -7 22 -25 58 -40 80 -15 22 -33 58 -40 80 -7 22 -27
60 -44 85 -18 25 -36 79 -40 120 -5 41 -21 93 -36 115 -15 22 -33 58 -40 80
-7 22 -25 58 -40 80 -15 22 -33 58 -40 80 -7 22 -25 58 -40 80 -15 22 -33 58
-40 80 -7 22 -25 58 -40 80 -15 22 -33 58 -40 80 -7 22 -25 58 -40 80 -15 22
-33 58 -40 80 -7 22 -25 58 -40 80 -15 22 -33 58 -40 80 -7 22 -25 58 -41 81
-16 23 -34 60 -40 84 -6 24 -41 78 -79 119 -37 42 -73 94 -80 116 -7 22 -25
58 -40 80 -15 22 -33 58 -40 80 -7 22 -25 58 -41 81 -16 23 -34 60 -40 84 -6
24 -42 78 -80 121 -38 42 -74 96 -80 120 -6 23 -42 77 -80 120 -38 42 -74 96
-80 120 -6 23 -42 77 -80 120 -38 42 -74 96 -80 120 -6 23 -42 77 -80 120 -38
42 -74 96 -80 120 -6 23 -42 77 -80 120 -38 42 -74 97 -80 122 -7 25 -61 96
-120 159 -60 63 -114 135 -120 160 -7 25 -61 97 -120 160 -60 63 -114 135
-120 161 -7 28 -73 110 -160 200 -91 93 -153 171 -160 200 -8 33 -110 147
-320 360 -214 217 -312 327 -320 360 -16 68 -1051 1103 -1119 1119 -32 8 -124
87 -280 240 -152 149 -248 232 -280 240 -29 7 -108 70 -200 160 -90 87 -172
153 -200 160 -26 6 -98 60 -161 120 -63 59 -135 113 -160 120 -25 6 -97 60
-160 120 -63 59 -134 113 -159 120 -25 6 -80 42 -122 80 -43 38 -97 74 -121
80 -24 6 -95 60 -158 120 -63 59 -135 113 -160 120 -25 6 -63 24 -86 40 -23
16 -59 34 -81 41 -22 7 -74 43 -116 80 -41 38 -95 73 -118 79 -24 6 -78 42
-120 80 -43 38 -97 74 -121 80 -24 6 -61 24 -84 40 -23 16 -59 34 -81 41 -22
7 -58 25 -80 40 -22 15 -58 33 -80 40 -22 7 -58 25 -80 40 -22 15 -58 33 -80
40 -22 7 -74 43 -116 80 -41 38 -95 73 -119 79 -24 6 -61 24 -84 40 -23 16
-59 34 -81 41 -22 7 -58 25 -80 40 -22 15 -58 33 -80 40 -22 7 -58 25 -80 40
-22 15 -58 33 -80 40 -22 7 -58 25 -80 40 -22 15 -58 33 -80 40 -22 7 -58 25
-80 40 -22 15 -58 33 -80 40 -22 7 -58 25 -80 40 -22 15 -58 33 -80 40 -22 7
-58 25 -80 40 -22 15 -75 32 -117 38 -43 5 -97 23 -120 40 -24 16 -61 35 -83
42 -22 7 -58 25 -80 40 -22 15 -58 33 -80 40 -22 7 -58 25 -80 40 -22 15 -75
32 -117 38 -43 5 -97 23 -120 40 -24 16 -61 35 -83 42 -22 7 -58 25 -80 40
-22 15 -75 32 -117 38 -43 5 -97 23 -120 40 -24 16 -78 34 -120 40 -43 5 -97
23 -120 40 -24 16 -78 34 -120 40 -43 5 -97 23 -120 40 -24 16 -78 34 -120 40
-43 5 -97 23 -120 40 -24 16 -78 34 -120 40 -43 5 -97 23 -120 40 -24 16 -78
34 -120 40 -43 5 -97 23 -120 40 -29 19 -82 32 -157 38 -79 5 -129 17 -160 40
-32 22 -82 34 -160 40 -79 5 -129 17 -160 40 -32 22 -82 34 -160 40 -79 5
-129 17 -160 40 -32 22 -82 34 -160 40 -82 5 -128 17 -163 42 -39 27 -71 34
-168 34 -152 0 -196 17 -230 88 -36 74 -83 86 -161 39 -78 -46 -176 -47 -238
-3 -43 31 -73 34 -359 39 -289 5 -314 7 -360 40 -46 33 -69 35 -400 40 -334 5
-353 7 -401 41 -46 33 -69 36 -250 36 -199 0 -199 0 -258 -57z"/>
<path d="M17500 29865 c-31 -30 -61 -74 -67 -99 -6 -24 -24 -62 -40 -85 -16
-23 -34 -59 -41 -81 -7 -22 -25 -58 -40 -80 -15 -22 -33 -58 -40 -80 -7 -22
-25 -58 -40 -80 -15 -22 -33 -58 -40 -80 -7 -22 -25 -58 -40 -80 -15 -22 -33
-58 -40 -80 -7 -22 -25 -58 -40 -80 -15 -22 -33 -58 -40 -80 -7 -22 -25 -58
-40 -80 -15 -22 -31 -74 -36 -115 -4 -41 -22 -95 -40 -120 -17 -25 -37 -63
-44 -85 -7 -22 -25 -58 -40 -80 -15 -22 -33 -58 -40 -80 -7 -22 -25 -58 -40
-80 -15 -22 -33 -58 -40 -80 -7 -22 -25 -58 -40 -80 -15 -22 -33 -58 -40 -80
-7 -22 -25 -58 -40 -80 -15 -22 -33 -58 -40 -80 -7 -22 -25 -58 -40 -80 -15
-22 -33 -58 -40 -80 -7 -22 -25 -58 -40 -80 -15 -22 -33 -58 -40 -80 -7 -22
-25 -58 -40 -80 -15 -22 -33 -58 -40 -80 -7 -22 -25 -58 -40 -80 -15 -22 -33
-58 -40 -80 -7 -22 -25 -58 -40 -80 -15 -22 -33 -58 -40 -80 -7 -22 -25 -58
-40 -80 -15 -22 -33 -58 -40 -80 -7 -22 -25 -58 -40 -80 -15 -22 -33 -58 -40
-80 -7 -22 -25 -58 -40 -80 -15 -22 -33 -58 -40 -80 -7 -22 -25 -58 -40 -80
-15 -22 -33 -58 -40 -80 -7 -22 -25 -58 -40 -80 -15 -22 -33 -58 -40 -80 -7
-22 -25 -58 -40 -80 -15 -22 -33 -58 -40 -80 -7 -22 -25 -58 -40 -80 -15 -22
-33 -58 -40 -80 -7 -22 -25 -58 -40 -80 -15 -22 -33 -58 -40 -80 -7 -22 -25
-58 -40 -80 -15 -22 -33 -58 -40 -80 -7 -22 -25 -58 -40 -80 -15 -22 -33 -58
-40 -80 -7 -22 -25 -58 -40 -80 -15 -22 -33 -58 -40 -80 -7 -22 -25 -58 -40
-80 -15 -22 -33 -58 -40 -80 -7 -22 -25 -58 -40 -80 -15 -22 -31 -74 -36 -115
-4 -41 -22 -95 -40 -120 -17 -25 -37 -63 -44 -85 -7 -22 -43 -74 -80 -115 -56
-62 -69 -90 -75 -155 -7 -67 -20 -93 -80 -160 -61 -68 -74 -94 -80 -160 -7
-67 -20 -93 -80 -160 -61 -67 -74 -94 -80 -159 -5 -44 -23 -100 -40 -125 -18
-25 -38 -64 -45 -86 -7 -22 -25 -58 -40 -80 -15 -22 -33 -58 -40 -80 -7 -22
-25 -58 -40 -80 -15 -22 -33 -58 -40 -80 -7 -22 -25 -58 -40 -80 -15 -22 -33
-58 -40 -80 -7 -22 -25 -58 -40 -80 -15 -22 -33 -58 -40 -80 -7 -22 -25 -58
-40 -80 -15 -22 -33 -58 -40 -80 -7 -22 -25 -58 -40 -80 -15 -22 -33 -58 -40
-80 -7 -22 -25 -58 -40 -80 -15 -22 -33 -58 -40 -80 -7 -22 -25 -58 -40 -80
-15 -22 -33 -58 -40 -80 -7 -22 -25 -58 -40 -80 -15 -22 -33 -58 -40 -80 -7
-22 -25 -58 -40 -80 -15 -22 -33 -58 -40 -80 -7 -22 -25 -58 -40 -80 -15 -22
-33 -58 -40 -80 -7 -22 -25 -58 -40 -80 -15 -22 -33 -58 -40 -80 -7 -22 -25
-58 -40 -80 -15 -22 -33 -58 -40 -80 -7 -22 -25 -58 -40 -80 -15 -22 -33 -58
-40 -80 -7 -22 -25 -58 -40 -80 -15 -22 -33 -58 -40 -80 -7 -22 -25 -58 -40
-80 -15 -22 -33 -58 -40 -80 -7 -22 -25 -58 -40 -80 -15 -22 -33 -58 -40 -80
-7 -22 -25 -58 -40 -80 -15 -22 -33 -58 -40 -80 -7 -22 -25 -58 -40 -80 -15
-22 -33 -58 -40 -80 -7 -22 -25 -58 -40 -80 -15 -22 -33 -58 -40 -80 -7 -22
-25 -58 -40 -80 -15 -22 -33 -58 -40 -80 -7 -22 -25 -58 -40 -80 -15 -22 -33
-58 -40 -80 -7 -22 -25 -58 -40 -80 -15 -22 -33 -58 -40 -80 -7 -22 -25 -58
-40 -80 -15 -22 -33 -58 -40 -80 -7 -22 -25 -58 -40 -80 -15 -22 -33 -58 -40
-80 -7 -22 -25 -58 -40 -80 -15 -22 -33 -58 -40 -80 -7 -22 -25 -58 -40 -80
-15 -22 -33 -58 -40 -80 -7 -22 -25 -58 -40 -80 -15 -22 -33 -58 -40 -80 -7
-22 -25 -58 -40 -80 -15 -22 -33 -58 -40 -80 -7 -22 -25 -58 -40 -80 -15 -22
-33 -58 -40 -80 -7 -22 -25 -58 -40 -80 -15 -22 -33 -58 -40 -80 -7 -22 -25
-58 -40 -80 -15 -22 -33 -58 -40 -80 -7 -22 -25 -58 -40 -80 -15 -22 -33 -58
-40 -80 -7 -22 -25 -58 -40 -80 -15 -22 -33 -58 -40 -80 -7 -22 -25 -58 -40
-80 -15 -22 -33 -58 -40 -80 -7 -22 -25 -58 -40 -80 -15 -22 -33 -58 -40 -80
-7 -22 -25 -58 -40 -80 -15 -22 -33 -58 -40 -80 -7 -22 -25 -58 -40 -80 -15
-22 -33 -58 -40 -80 -7 -22 -25 -58 -40 -80 -15 -22 -33 -58 -40 -80 -7 -22
-25 -58 -40 -80 -15 -22 -33 -58 -40 -80 -7 -22 -25 -58 -40 -80 -15 -22 -33
-58 -40 -80 -7 -22 -25 -58 -40 -80 -15 -22 -33 -58 -40 -80 -7 -22 -25 -58
-40 -80 -15 -22 -33 -58 -40 -80 -7 -22 -25 -58 -40 -80 -15 -22 -31 -74 -36
-115 -4 -41 -22 -95 -40 -120 -17 -25 -37 -63 -44 -85 -7 -22 -25 -58 -40 -80
-15 -22 -33 -58 -40 -80 -7 -22 -25 -58 -40 -80 -15 -22 -33 -58 -40 -80 -7
-22 -25 -58 -40 -80 -15 -22 -33 -58 -40 -80 -7 -22 -25 -58 -40 -80 -15 -22
-33 -58 -40 -80 -7 -22 -25 -58 -40 -80 -15 -22 -33 -58 -40 -80 -7 -22 -25
-58 -40 -80 -15 -22 -33 -58 -40 -80 -7 -22 -26 -59 -42 -82 -39 -56 -39 -120
1 -141 21 -12 531 -17 1541 -17 1511 0 1511 0 1568 55 31 30 61 74 67 99 6 24
24 62 40 85 16 23 32 75 37 116 4 41 22 95 40 120 17 25 37 63 44 85 7 22 25
58 40 80 15 22 33 58 40 80 7 22 25 58 40 80 15 22 33 58 40 80 7 22 25 58 40
80 15 22 33 58 40 80 7 22 25 58 40 80 15 22 33 58 40 80 7 22 25 58 40 80 15
22 33 58 40 80 7 22 25 58 40 80 15 22 33 58 40 80 7 22 25 58 40 80 15 22 33
58 40 80 7 22 25 58 40 80 15 22 33 58 40 80 7 22 25 58 40 80 15 22 33 58 40
80 7 22 25 58 40 80 15 22 31 74 36 115 4 41 22 95 40 120 17 25 37 63 44 85
7 22 25 58 40 80 15 22 33 58 40 80 7 22 25 58 40 80 15 22 33 58 40 80 7 22
25 58 40 80 15 22 33 58 40 80 7 22 25 58 40 80 15 22 33 58 40 80 7 22 25 58
40 80 15 22 33 58 40 80 7 22 25 58 40 80 15 22 33 58 40 80 7 22 25 58 40 80
15 22 33 58 40 80 7 22 25 58 40 80 15 22 33 58 40 80 7 22 25 58 40 80 15 22
33 58 40 80 7 22 25 58 40 80 15 22 33 58 40 80 7 22 25 58 40 80 15 22 33 58
40 80 7 22 25 58 40 80 15 22 33 58 40 80 7 22 25 58 40 80 15 22 33 58 40 80
7 22 25 58 40 80 15 22 33 58 40 80 7 22 25 58 41 81 16 23 34 59 39 82 6 23
36 65 66 95 56 54 56 54 2283 54 2227 0 2227 0 2277 -36 38 -26 73 -36 136
-36 84 0 84 0 695 612 447 447 614 625 622 660 8 36 286 324 1082 1121 1071
1072 1071 1072 1071 1157 0 57 -10 99 -30 128 -16 23 -35 60 -42 82 -7 22 -25
58 -40 80 -15 22 -33 58 -40 80 -7 22 -25 58 -40 80 -15 22 -33 58 -40 80 -7
22 -25 58 -40 80 -15 22 -33 58 -40 80 -7 22 -25 58 -40 80 -15 22 -33 58 -40
80 -7 22 -25 58 -40 80 -15 22 -33 58 -40 80 -7 22 -25 58 -40 80 -15 22 -33
58 -40 80 -7 22 -25 58 -40 80 -15 22 -33 58 -40 80 -7 22 -25 58 -40 80 -15
22 -33 58 -40 80 -7 22 -25 58 -40 80 -15 22 -33 58 -40 80 -7 22 -25 58 -40
80 -15 22 -33 58 -40 80 -7 22 -25 58 -40 80 -15 22 -33 58 -40 80 -7 22 -25
58 -40 80 -15 22 -33 58 -40 80 -7 22 -25 58 -40 80 -15 22 -33 58 -40 80 -7
22 -25 58 -40 80 -15 22 -33 58 -40 80 -7 22 -25 58 -40 80 -15 22 -33 58 -40
80 -7 22 -25 58 -40 80 -15 22 -33 58 -40 80 -7 22 -25 58 -40 80 -15 22 -33
58 -40 80 -7 22 -25 58 -40 80 -15 22 -33 58 -40 80 -7 22 -25 58 -40 80 -15
22 -33 58 -40 80 -7 22 -25 58 -40 80 -15 22 -33 58 -40 80 -7 22 -25 58 -40
80 -15 22 -33 58 -40 80 -7 22 -25 58 -40 80 -15 22 -33 58 -40 80 -7 22 -25
58 -40 80 -15 22 -33 58 -40 80 -7 22 -25 58 -40 80 -15 22 -33 58 -40 80 -7
22 -25 58 -40 80 -15 22 -33 58 -40 80 -7 22 -25 58 -40 80 -15 22 -33 58 -40
80 -7 22 -25 58 -40 80 -15 22 -33 58 -40 80 -7 22 -25 58 -40 80 -15 22 -33
58 -40 80 -7 22 -25 58 -40 80 -15 22 -33 58 -40 80 -7 22 -25 58 -40 80 -15
22 -33 58 -40 80 -7 22 -25 58 -40 80 -15 22 -33 58 -40 80 -7 22 -25 58 -40
80 -15 22 -33 58 -40 80 -7 22 -25 58 -40 80 -15 22 -33 58 -40 80 -7 22 -25
58 -40 80 -15 22 -33 58 -40 80 -7 22 -25 58 -40 80 -15 22 -33 58 -40 80 -7
22 -25 58 -40 80 -15 22 -33 58 -40 80 -7 22 -24 58 -39 80 -15 22 -37 63 -48
92 -28 69 -13 67 -577 72 -477 4 -489 5 -538 40 -49 35 -63 36 -406 36 -339 0
-357 -2 -404 -35 -64 -45 -219 -49 -298 -7 -52 28 -57 28 -116 1 -59 -26 -65
-26 -124 0 -59 27 -64 27 -116 -1 -79 -42 -234 -38 -298 7 -45 32 -68 35 -288
35 -239 0 -239 0 -296 -55z m1772 -2755 c18 -36 40 -76 50 -88 10 -12 24 -40
30 -62 7 -22 25 -58 40 -80 15 -22 33 -58 40 -80 7 -22 25 -58 40 -80 15 -22
33 -58 40 -80 7 -22 27 -60 44 -85 18 -25 36 -79 40 -120 5 -41 21 -93 36
-115 15 -22 33 -58 40 -80 7 -22 25 -58 40 -80 15 -22 33 -58 40 -80 7 -22 25
-58 40 -80 15 -22 33 -58 40 -80 7 -22 25 -58 40 -80 15 -22 33 -58 40 -80 7
-22 25 -58 40 -80 15 -22 33 -58 40 -80 7 -22 25 -58 40 -80 15 -22 33 -58 40
-80 7 -22 25 -58 40 -80 15 -22 33 -58 40 -80 7 -22 25 -58 40 -80 15 -22 33
-58 40 -80 7 -22 25 -58 40 -80 15 -22 33 -58 40 -80 7 -22 25 -58 40 -80 15
-22 33 -58 40 -80 7 -22 27 -60 44 -85 18 -25 36 -79 40 -120 5 -41 21 -93 36
-115 15 -22 33 -58 40 -80 7 -22 25 -58 40 -80 15 -22 33 -58 40 -80 7 -22 25
-58 40 -80 15 -22 33 -58 40 -80 7 -22 25 -58 40 -80 15 -22 33 -58 40 -80 7
-22 25 -58 40 -80 15 -22 33 -58 40 -80 7 -22 25 -58 40 -80 15 -22 33 -58 40
-80 7 -22 25 -58 40 -80 15 -22 33 -58 40 -80 7 -22 25 -58 40 -80 15 -22 33
-58 40 -80 7 -22 25 -58 40 -80 15 -22 33 -58 40 -80 7 -22 27 -60 44 -85 18
-25 36 -79 40 -120 5 -41 21 -93 36 -115 15 -22 36 -66 47 -99 10 -32 29 -67
42 -78 31 -26 29 -86 -3 -113 -22 -18 -388 -24 -2172 -31 -1181 -5 -2169 -15
-2196 -22 -44 -10 -52 -7 -62 23 -14 43 2 106 39 159 16 23 32 75 37 116 4 41
22 95 40 120 17 25 37 63 44 85 7 22 25 58 40 80 15 22 33 58 40 80 7 22 25
58 40 80 15 22 33 58 40 80 7 22 25 58 40 80 15 22 33 58 40 80 7 22 25 58 40
80 15 22 33 58 40 80 7 22 25 58 40 80 15 22 33 58 40 80 7 22 25 58 40 80 15
22 33 58 40 80 7 22 25 58 40 80 15 22 33 58 40 80 7 22 25 58 40 80 15 22 33
58 40 80 7 22 25 58 40 80 15 22 33 58 40 80 7 22 25 58 40 80 15 22 33 58 40
80 7 22 25 58 40 80 15 22 31 74 36 115 4 41 22 95 40 120 17 25 37 63 44 85
7 22 25 58 40 80 15 22 33 58 40 80 7 22 25 58 40 80 15 22 33 58 40 80 7 22
25 58 40 80 15 22 33 58 40 80 7 22 25 58 40 80 15 22 33 58 40 80 7 22 25 58
40 80 15 22 33 58 40 80 7 22 25 58 40 80 15 22 33 58 40 80 7 22 25 58 40 80
15 22 33 58 40 80 7 22 25 58 40 80 15 22 33 58 40 80 7 22 25 58 40 80 15 22
31 74 36 115 4 41 22 95 40 120 17 25 37 63 44 85 7 22 25 58 40 80 15 22 33
58 40 80 7 22 25 58 40 80 15 22 33 58 40 80 7 22 26 57 42 78 17 21 30 47 30
57 0 10 11 34 26 54 38 55 88 40 126 -39z"/>
<path d="M22185 29895 c-33 -34 -32 -81 5 -133 16 -23 35 -60 42 -82 7 -22 25
-58 40 -80 15 -22 33 -58 40 -80 7 -22 25 -58 40 -80 15 -22 33 -58 40 -80 7
-22 25 -58 40 -80 15 -22 33 -58 40 -80 7 -22 25 -58 40 -80 15 -22 33 -58 40
-80 7 -22 25 -58 40 -80 15 -22 33 -58 40 -80 7 -22 25 -58 40 -80 15 -22 33
-58 40 -80 7 -22 25 -58 40 -80 15 -22 33 -58 40 -80 7 -22 25 -58 40 -80 15
-22 33 -58 40 -80 7 -22 25 -58 40 -80 15 -22 33 -58 40 -80 7 -22 25 -58 40
-80 15 -22 33 -58 40 -80 7 -22 25 -58 40 -80 15 -22 33 -58 40 -80 7 -22 27
-60 44 -85 18 -25 36 -79 40 -120 5 -41 21 -93 36 -115 15 -22 33 -58 40 -80
7 -22 25 -58 40 -80 15 -22 33 -58 40 -80 7 -22 25 -58 40 -80 15 -22 33 -58
40 -80 7 -22 25 -58 40 -80 15 -22 33 -58 40 -80 7 -22 25 -58 40 -80 15 -22
33 -58 40 -80 7 -22 25 -58 40 -80 15 -22 33 -58 40 -80 7 -22 25 -58 40 -80
15 -22 33 -58 40 -80 7 -22 25 -58 40 -80 15 -22 33 -58 40 -80 7 -22 25 -58
40 -80 15 -22 33 -58 40 -80 7 -22 25 -58 40 -80 15 -22 33 -58 40 -80 7 -22
25 -58 40 -80 15 -22 33 -58 40 -80 7 -22 25 -58 40 -80 15 -22 33 -58 40 -80
7 -22 25 -58 40 -80 15 -22 33 -58 40 -80 7 -22 25 -58 40 -80 15 -22 33 -58
40 -80 7 -22 25 -58 40 -80 15 -22 33 -58 40 -80 7 -22 25 -58 40 -80 15 -22
33 -58 40 -80 7 -22 25 -58 40 -80 15 -22 33 -58 40 -80 7 -22 25 -58 40 -80
15 -22 33 -58 40 -80 7 -22 25 -58 40 -80 15 -22 33 -58 40 -80 7 -22 25 -58
40 -80 15 -22 33 -58 40 -80 7 -22 25 -58 40 -80 15 -22 33 -58 40 -80 7 -22
25 -58 40 -80 15 -22 33 -58 40 -80 7 -22 26 -59 42 -82 38 -54 38 -102 0
-156 -20 -28 -32 -78 -36 -154 -5 -81 -16 -126 -40 -160 -19 -27 -39 -66 -46
-88 -7 -22 -25 -58 -40 -80 -15 -22 -33 -58 -40 -80 -6 -22 -96 -126 -199
-232 -121 -123 -192 -209 -199 -240 -9 -35 -228 -265 -794 -832 -549 -551
-789 -802 -806 -845 -17 -42 -41 -67 -79 -83 -36 -15 -61 -40 -75 -75 -14 -35
-546 -580 -1528 -1565 -1126 -1129 -1511 -1524 -1519 -1560 -8 -36 -335 -373
-1280 -1320 -944 -947 -1272 -1284 -1280 -1320 -8 -36 -287 -325 -1080 -1120
-793 -795 -1072 -1084 -1080 -1120 -8 -36 -314 -352 -1193 -1232 -837 -839
-1189 -1201 -1206 -1244 -16 -40 -43 -68 -79 -86 -39 -18 -65 -48 -89 -100
-46 -103 -787 -841 -859 -857 -64 -14 -123 10 -213 85 -41 34 -92 67 -114 74
-22 7 -75 43 -118 81 -44 38 -97 73 -119 79 -22 5 -76 41 -120 80 -44 38 -98
74 -120 80 -22 5 -76 41 -120 80 -44 38 -98 74 -120 80 -22 5 -76 42 -121 80
-44 39 -99 75 -121 80 -23 5 -94 59 -159 120 -68 64 -138 115 -166 121 -31 7
-100 62 -196 158 -87 86 -169 153 -198 162 -31 10 -134 99 -278 241 -158 157
-243 229 -277 236 -68 15 -1184 1132 -1201 1202 -7 32 -87 125 -239 280 -149
151 -233 249 -240 280 -8 28 -72 108 -160 200 -82 84 -153 172 -160 196 -6 25
-42 79 -80 122 -38 42 -74 97 -80 122 -7 25 -61 96 -120 159 -60 63 -114 134
-120 159 -6 24 -36 69 -67 99 -57 55 -57 55 -1332 55 -1090 0 -1279 -3 -1295
-23 -24 -28 -7 -63 61 -127 27 -26 53 -67 58 -92 6 -25 43 -82 84 -127 61 -68
74 -94 81 -161 6 -65 19 -93 76 -156 38 -42 74 -96 80 -120 6 -23 42 -77 80
-120 38 -42 74 -96 80 -120 6 -23 42 -77 80 -120 38 -42 74 -96 80 -120 6 -23
42 -77 80 -120 38 -42 74 -97 81 -123 6 -27 73 -110 159 -199 88 -91 153 -172
160 -200 7 -28 72 -109 160 -200 91 -94 153 -171 160 -200 8 -33 96 -133 274
-312 144 -145 274 -289 290 -319 33 -68 52 -74 99 -36 30 24 37 44 35 103 -3
82 12 91 137 79 73 -7 87 -31 36 -63 -45 -28 -40 -66 10 -85 66 -25 139 7 171
74 30 63 79 88 146 75 40 -8 44 -13 36 -60 -5 -29 0 -60 10 -70 31 -31 213
-22 285 15 64 33 64 33 118 -12 71 -59 69 -79 -8 -91 -35 -6 -87 -25 -116 -42
-78 -47 -303 -45 -404 3 -72 36 -73 36 -130 5 -72 -39 -98 -83 -66 -115 37
-37 591 -39 667 -3 37 18 68 22 99 13 51 -14 69 1 85 75 6 30 25 56 49 67 21
10 50 36 65 58 40 61 10 85 -123 98 -128 13 -137 36 -24 65 41 10 91 29 110
42 97 62 189 45 231 -43 45 -96 133 -95 172 0 26 61 76 88 142 76 52 -11 57
-52 10 -94 -87 -78 -72 -127 43 -144 89 -14 100 -31 38 -63 -55 -28 -60 -76
-10 -85 50 -10 141 91 129 143 -7 36 0 50 40 80 63 46 62 72 -5 111 -60 35
-77 75 -63 146 5 26 -2 76 -18 117 -44 114 -2 139 94 54 60 -52 72 -101 40
-161 -29 -54 5 -65 65 -21 105 77 127 51 128 -152 1 -80 9 -130 25 -151 30
-40 29 -80 -1 -105 -13 -11 -24 -40 -24 -64 0 -24 11 -53 24 -64 13 -11 24
-44 24 -74 0 -54 0 -54 81 -54 90 0 91 17 8 95 -70 66 -58 138 38 221 97 84
116 84 150 5 16 -34 80 -111 144 -170 165 -155 167 -162 89 -235 -66 -60 -72
-85 -26 -114 43 -27 105 12 116 73 9 47 21 57 105 90 100 39 144 33 166 -24
10 -27 1 -38 -64 -78 -36 -21 -20 -71 22 -71 17 0 43 14 59 32 50 56 127 42
222 -39 45 -39 103 -76 129 -82 28 -7 106 -71 195 -159 82 -82 167 -153 191
-159 24 -6 80 -42 124 -81 44 -38 98 -74 120 -80 22 -5 76 -41 120 -80 44 -38
98 -74 120 -80 22 -5 76 -41 120 -80 44 -38 98 -74 120 -80 22 -5 76 -41 120
-80 44 -38 98 -74 120 -80 22 -5 76 -41 120 -80 44 -38 98 -74 120 -80 23 -6
61 -24 84 -41 24 -17 49 -31 56 -31 6 0 50 -19 96 -43 64 -32 93 -39 117 -28
17 8 380 360 805 782 579 574 785 769 821 776 33 7 50 21 53 44 10 70 76 63
118 -11 36 -63 66 -61 107 8 18 31 46 57 61 58 16 1 62 4 103 6 112 6 148 48
78 92 -55 34 -37 57 54 68 133 17 242 -20 210 -71 -5 -9 -5 -24 0 -33 16 -27
102 45 128 105 23 57 74 87 147 87 22 0 61 15 87 34 31 22 81 36 147 41 54 4
125 18 157 32 58 24 61 23 175 -37 137 -72 216 -145 231 -213 17 -80 46 -97
167 -97 75 0 115 7 128 23 41 49 -53 137 -148 137 -162 0 -245 109 -122 160
47 20 53 31 70 132 6 36 19 60 33 60 14 0 27 -24 33 -60 17 -102 24 -116 66
-126 27 -7 61 1 103 25 80 45 110 35 110 -39 0 -72 30 -85 109 -49 41 18 73
23 100 14 32 -11 128 -14 219 -7 30 3 24 74 -10 104 -16 15 -60 32 -98 39 -79
13 -114 52 -86 95 25 40 79 43 130 8 24 -16 64 -38 87 -48 53 -23 131 -167
121 -222 -4 -21 -5 -38 -1 -38 39 0 167 44 204 70 38 26 79 34 200 39 120 5
163 14 198 39 30 21 82 35 152 40 59 5 128 19 153 32 41 20 53 20 104 -2 32
-13 121 -27 197 -30 138 -6 140 -7 213 -74 41 -38 95 -76 121 -85 56 -19 63
-73 15 -117 -33 -30 -59 -25 -130 26 -14 11 -37 15 -52 9 -41 -16 -31 -58 18
-75 24 -9 57 -23 72 -32 37 -21 81 -20 104 2 35 35 245 25 308 -14 70 -44 95
-45 167 -2 108 63 140 5 51 -94 -30 -33 -59 -78 -65 -100 -6 -22 -19 -56 -29
-76 -27 -56 -2 -61 64 -11 87 67 500 491 500 515 0 34 -34 22 -98 -36 -109
-98 -166 -67 -111 61 25 60 46 81 104 108 95 45 217 179 217 239 0 24 -14 62
-32 84 -76 97 -19 142 74 60 31 -26 66 -48 79 -48 39 0 154 117 199 202 50 96
104 107 143 30 26 -50 47 -71 71 -72 30 0 235 217 266 283 23 50 49 78 86 93
35 15 61 41 74 75 14 35 546 580 1528 1565 1126 1129 1511 1524 1519 1560 8
36 306 344 1160 1200 878 880 1152 1163 1160 1201 12 58 2088 2141 2153 2160
22 6 61 26 86 44 62 43 219 46 296 5 52 -28 56 -28 120 1 61 27 127 29 1037
29 972 0 972 0 1108 -135 81 -81 140 -153 146 -180 5 -24 41 -79 79 -122 39
-43 75 -97 81 -121 6 -23 41 -77 79 -118 37 -42 73 -94 80 -116 7 -22 25 -58
41 -81 16 -23 34 -60 40 -84 6 -24 42 -78 80 -121 38 -42 74 -96 80 -120 6
-23 42 -77 80 -120 38 -42 74 -96 80 -120 6 -23 41 -77 79 -118 37 -42 73 -94
80 -116 7 -22 25 -58 41 -81 16 -23 34 -60 40 -84 6 -24 42 -78 80 -121 38
-42 74 -96 80 -120 6 -23 41 -77 79 -118 37 -42 73 -94 80 -116 7 -22 25 -58
41 -81 16 -23 34 -60 40 -84 6 -24 42 -78 80 -121 38 -42 74 -96 80 -120 6
-23 41 -77 79 -118 37 -42 73 -94 80 -116 7 -22 25 -58 41 -81 16 -23 34 -60
40 -84 6 -24 42 -78 80 -121 38 -42 74 -96 80 -120 6 -23 42 -77 80 -120 38
-42 74 -96 80 -120 6 -23 41 -77 79 -118 37 -42 73 -94 80 -116 7 -22 25 -58
41 -81 16 -23 34 -60 40 -84 6 -24 42 -78 80 -121 38 -42 74 -96 80 -120 6
-23 41 -77 79 -118 37 -42 73 -94 80 -116 7 -22 25 -58 41 -81 16 -23 34 -60
40 -84 6 -24 42 -78 80 -121 38 -42 74 -96 80 -120 6 -23 42 -77 80 -120 38
-42 74 -96 80 -120 6 -23 41 -77 79 -118 37 -42 73 -94 80 -116 7 -22 25 -58
41 -81 16 -23 34 -60 40 -84 6 -24 42 -78 80 -121 38 -42 74 -96 80 -120 6
-23 42 -77 80 -120 38 -42 74 -96 80 -120 6 -23 41 -77 79 -118 37 -42 73 -94
80 -116 7 -22 25 -58 41 -81 16 -23 34 -60 40 -84 6 -24 41 -78 79 -119 37
-42 73 -94 80 -116 7 -22 25 -58 40 -80 15 -22 36 -67 47 -100 20 -62 83 -124
126 -124 37 0 188 163 202 216 6 25 24 64 40 87 16 23 34 59 41 81 7 22 43 74
80 116 38 41 73 95 79 119 6 24 24 61 40 84 16 23 34 59 41 81 7 22 43 74 80
116 38 41 73 95 79 119 6 24 24 61 40 84 16 23 34 59 41 81 7 22 25 58 40 80
15 22 33 58 40 80 7 22 25 58 40 80 15 22 33 58 40 80 7 22 25 58 40 80 15 22
33 58 40 80 7 22 25 58 40 80 15 22 33 58 40 80 7 22 25 58 40 80 15 22 33 58
40 80 7 22 25 58 40 80 15 22 33 58 40 80 7 22 25 58 40 80 15 22 33 58 40 80
7 22 25 58 40 80 15 22 31 74 36 115 4 41 23 96 42 122 62 87 48 192 -37 287
-39 43 -76 98 -82 122 -6 23 -41 77 -79 118 -37 42 -73 94 -80 116 -7 22 -25
58 -41 81 -16 23 -34 60 -40 84 -6 24 -42 78 -80 121 -38 42 -74 96 -80 120
-6 23 -41 77 -79 118 -37 42 -73 94 -80 116 -7 22 -25 58 -41 81 -16 23 -34
60 -40 84 -6 24 -42 78 -80 121 -38 42 -74 96 -80 120 -6 23 -42 77 -80 120
-38 42 -74 96 -80 120 -6 23 -42 77 -80 120 -38 42 -74 96 -80 120 -6 23 -42
77 -80 120 -38 42 -74 96 -80 120 -6 23 -42 77 -80 120 -38 42 -74 96 -80 120
-6 23 -42 77 -80 120 -38 42 -74 96 -80 120 -6 23 -41 77 -79 118 -37 42 -73
94 -80 116 -7 22 -25 58 -41 81 -16 23 -34 60 -40 84 -6 24 -42 78 -80 121
-38 42 -74 96 -80 120 -6 23 -42 77 -80 120 -38 42 -74 96 -80 120 -6 23 -42
77 -80 120 -38 42 -74 96 -80 120 -6 23 -41 77 -79 118 -37 42 -73 94 -80 116
-7 22 -25 58 -41 81 -16 23 -34 60 -40 84 -6 24 -42 79 -81 122 -38 43 -70 83
-70 90 0 6 -16 43 -35 81 -35 70 -35 70 10 117 24 25 63 51 86 57 22 5 59 23
82 39 23 16 59 34 81 41 22 7 58 25 80 40 22 15 58 33 80 40 22 7 58 25 81 41
23 16 61 34 86 40 25 7 97 61 160 120 63 60 135 114 160 120 25 7 97 61 160
120 63 60 135 114 162 120 65 16 542 493 558 558 6 27 60 99 120 162 59 63
113 134 120 159 6 25 42 80 80 122 38 43 74 97 80 121 6 24 24 61 40 84 16 23
34 59 41 81 7 22 25 58 40 80 15 22 33 58 40 80 7 22 25 58 40 80 15 22 33 58
40 80 7 22 25 58 40 80 15 22 31 74 36 115 4 41 22 95 40 120 17 25 35 79 40
120 4 41 22 95 40 120 23 32 34 78 38 157 5 82 16 126 41 161 29 41 35 75 40
239 4 168 9 198 41 242 36 51 36 53 36 686 0 633 0 635 -36 686 -33 45 -36 72
-41 281 -5 206 -9 237 -40 280 -25 35 -36 78 -41 161 -4 79 -15 125 -38 157
-18 25 -36 79 -40 120 -5 41 -21 93 -36 115 -15 22 -33 58 -40 80 -7 22 -27
60 -44 85 -18 25 -36 79 -40 120 -5 41 -21 93 -36 115 -15 22 -33 58 -40 80
-7 22 -25 58 -40 80 -15 22 -33 58 -40 80 -7 22 -25 58 -41 81 -16 23 -34 60
-40 84 -6 24 -42 78 -80 121 -38 42 -74 97 -81 123 -6 27 -73 110 -159 199
-90 92 -153 171 -160 200 -16 64 -255 303 -319 319 -29 7 -108 70 -200 160
-89 86 -172 153 -199 159 -26 7 -81 43 -123 81 -43 38 -97 74 -121 80 -24 6
-61 24 -84 40 -23 16 -59 34 -81 41 -22 7 -58 25 -80 40 -22 15 -58 33 -80 40
-22 7 -58 25 -80 40 -22 15 -58 33 -80 40 -22 7 -58 25 -80 40 -22 15 -58 33
-80 40 -22 7 -58 25 -80 40 -22 15 -75 32 -117 38 -43 5 -97 23 -120 40 -24
16 -78 34 -120 40 -43 5 -97 23 -120 40 -33 23 -79 32 -196 37 -121 5 -162 13
-200 39 -33 24 -81 36 -161 42 -82 5 -128 17 -162 41 -48 34 -51 34 -1430 39
-1304 4 -1385 6 -1436 33 -44 24 -61 26 -98 11 -36 -15 -54 -14 -94 7 -83 43
-406 35 -472 -11 -50 -36 -50 -36 -939 -36 -828 0 -892 2 -953 29 -64 29 -67
29 -120 0 -43 -23 -89 -29 -222 -29 -133 0 -179 6 -222 29 -53 29 -56 29 -120
0 -51 -23 -105 -29 -258 -29 -153 0 -207 6 -258 29 -63 29 -68 29 -120 1 -71
-37 -213 -38 -284 0 -43 23 -61 25 -97 10 -36 -14 -55 -13 -104 11 -58 27 -60
27 -133 -12 -100 -52 -455 -59 -545 -10 -52 28 -55 28 -138 -6 -84 -35 -84
-35 -162 0 -64 28 -85 31 -121 16 -34 -14 -53 -12 -92 8 -70 36 -171 32 -230
-10 -63 -45 -162 -45 -236 0 -69 43 -108 43 -160 3 -51 -40 -98 -40 -164 0
-63 38 -97 40 -131 7z m7809 -1539 c38 -26 74 -36 136 -36 48 0 104 -10 126
-21 100 -50 119 -27 -983 -1130 -1115 -1116 -1073 -1067 -1003 -1167 16 -23
35 -60 42 -82 7 -22 25 -58 40 -80 15 -22 33 -58 40 -80 7 -22 27 -60 44 -85
18 -25 36 -79 40 -120 5 -41 21 -93 36 -115 15 -22 33 -58 40 -80 7 -22 27
-60 44 -85 18 -25 36 -79 40 -120 5 -41 21 -93 36 -115 15 -22 33 -58 40 -80
7 -22 25 -58 41 -81 16 -23 34 -61 40 -86 14 -57 103 -146 160 -160 25 -6 63
-24 86 -40 23 -15 76 -33 118 -39 43 -5 97 -23 120 -40 24 -16 61 -35 83 -42
22 -7 58 -25 80 -40 22 -15 75 -32 117 -38 43 -5 97 -23 120 -40 24 -16 61
-35 83 -42 22 -7 58 -25 80 -40 22 -15 75 -32 117 -38 43 -5 98 -24 123 -42
31 -22 70 -32 130 -32 85 0 85 0 775 692 504 505 694 705 702 740 10 42 572
639 647 686 57 36 146 -75 146 -182 0 -28 16 -74 36 -102 30 -41 37 -76 42
-202 4 -124 12 -161 40 -200 53 -74 53 -710 -1 -784 -29 -42 -35 -75 -40 -240
-4 -164 -10 -199 -39 -240 -18 -26 -37 -82 -42 -123 -4 -41 -22 -95 -40 -120
-17 -25 -37 -63 -44 -85 -7 -22 -25 -58 -40 -80 -15 -22 -31 -74 -36 -115 -4
-41 -22 -95 -40 -120 -17 -25 -37 -63 -44 -85 -7 -22 -43 -74 -80 -116 -38
-41 -73 -95 -79 -119 -6 -24 -60 -95 -120 -158 -59 -63 -113 -135 -120 -161
-15 -64 -336 -385 -398 -399 -26 -6 -96 -58 -161 -119 -64 -61 -135 -115 -159
-121 -24 -6 -78 -41 -119 -79 -42 -37 -94 -73 -116 -80 -22 -7 -59 -26 -83
-42 -23 -17 -77 -35 -120 -40 -42 -6 -96 -24 -120 -40 -23 -17 -77 -35 -120
-40 -42 -6 -98 -25 -123 -43 -31 -21 -81 -34 -160 -39 -81 -6 -128 -18 -162
-42 -47 -33 -63 -34 -838 -39 -774 -4 -792 -5 -838 -38 -34 -24 -80 -36 -162
-41 -75 -6 -128 -19 -157 -38 -23 -17 -77 -35 -120 -40 -42 -6 -95 -23 -117
-38 -22 -15 -58 -33 -80 -40 -22 -7 -58 -25 -80 -40 -22 -15 -58 -33 -80 -40
-22 -7 -58 -25 -81 -41 -23 -16 -60 -34 -84 -40 -24 -6 -78 -42 -121 -80 -42
-38 -96 -74 -120 -80 -23 -6 -77 -42 -120 -80 -42 -38 -98 -74 -123 -80 -68
-16 -2426 -2370 -2472 -2468 -22 -48 -48 -76 -85 -91 -35 -15 -61 -41 -74 -75
-13 -34 -345 -379 -921 -957 -637 -639 -908 -922 -925 -965 -17 -42 -41 -67
-79 -83 -36 -15 -61 -40 -75 -75 -13 -34 -441 -475 -1209 -1245 -907 -911
-1190 -1203 -1198 -1241 -12 -58 -1688 -1741 -1753 -1760 -22 -6 -62 -26 -88
-45 -75 -53 -710 -52 -785 1 -27 19 -67 39 -89 45 -23 6 -118 88 -213 183
-164 164 -173 177 -181 251 -5 43 -24 100 -42 126 -52 73 -52 551 0 624 19 26
39 66 46 88 7 22 25 58 40 80 15 22 33 58 39 80 7 23 584 613 1321 1352 974
977 1311 1324 1319 1360 8 36 335 373 1280 1320 945 947 1272 1284 1280 1320
8 36 335 373 1280 1320 941 943 1272 1284 1280 1320 8 34 115 153 360 400 238
241 352 367 360 399 6 26 60 99 120 162 59 63 113 134 120 159 6 25 42 80 80
122 38 43 74 97 80 121 6 24 24 61 40 84 16 23 34 59 41 81 7 22 25 58 40 80
15 22 31 74 36 115 4 41 22 95 40 120 23 32 34 78 38 157 5 83 16 126 42 162
35 50 35 50 40 1000 4 940 4 950 38 998 25 35 36 79 40 160 5 81 16 126 40
160 19 27 37 82 42 123 4 41 22 95 40 120 17 25 37 63 44 85 7 22 25 58 40 80
15 22 33 58 40 80 7 22 25 58 40 80 15 22 33 58 40 80 7 22 43 74 80 116 38
41 73 95 79 120 15 62 656 703 716 717 24 5 79 40 121 78 42 38 94 74 116 81
22 7 58 25 80 40 22 15 58 33 80 40 22 7 58 25 80 40 22 15 58 33 80 40 22 7
59 26 83 42 23 17 77 35 120 40 42 6 96 24 120 40 23 17 77 35 120 40 42 6 98
25 123 43 31 21 81 34 160 39 72 5 129 19 154 36 63 44 74 45 664 43 553 -3
561 -3 610 -39z"/>
<path d="M16200 29871 c-62 -29 -195 -30 -5230 -31 -5165 0 -5165 0 -5216 -36
-44 -32 -74 -37 -242 -42 -161 -5 -199 -11 -238 -38 -31 -23 -80 -35 -160 -40
-75 -6 -128 -19 -157 -38 -23 -17 -77 -35 -120 -40 -42 -6 -96 -24 -120 -40
-23 -17 -77 -35 -120 -40 -42 -6 -95 -23 -117 -38 -22 -15 -58 -33 -80 -40
-22 -7 -58 -25 -80 -40 -22 -15 -58 -33 -80 -40 -22 -7 -58 -25 -80 -40 -22
-15 -58 -33 -80 -40 -22 -7 -58 -25 -81 -41 -23 -16 -60 -34 -84 -40 -24 -6
-78 -42 -121 -80 -42 -38 -96 -74 -120 -80 -23 -6 -77 -42 -120 -80 -42 -38
-98 -74 -123 -80 -64 -16 -382 -335 -398 -399 -7 -29 -69 -107 -160 -200 -86
-89 -153 -172 -159 -199 -7 -26 -25 -65 -41 -88 -16 -23 -34 -59 -41 -81 -7
-22 -25 -58 -40 -80 -15 -22 -33 -58 -40 -80 -7 -22 -25 -58 -40 -80 -15 -22
-33 -58 -40 -80 -7 -22 -25 -58 -40 -80 -15 -22 -33 -58 -40 -80 -7 -22 -25
-58 -40 -80 -15 -22 -31 -74 -36 -115 -4 -41 -22 -95 -40 -120 -23 -32 -34
-78 -38 -157 -5 -82 -16 -126 -40 -160 -25 -35 -36 -79 -40 -160 -5 -83 -16
-126 -41 -161 -31 -43 -35 -74 -40 -280 -5 -209 -8 -236 -41 -281 -36 -50 -36
-57 -36 -566 0 -509 0 -516 36 -566 33 -45 36 -72 41 -281 5 -206 9 -237 40
-280 25 -35 36 -78 41 -161 4 -79 15 -125 38 -157 18 -25 36 -79 40 -120 5
-41 21 -93 36 -115 15 -22 33 -58 40 -80 7 -22 25 -58 40 -80 15 -22 33 -58
40 -80 7 -22 25 -58 40 -80 15 -22 33 -58 40 -80 7 -22 25 -58 40 -80 15 -22
33 -58 40 -80 7 -22 25 -58 41 -81 16 -23 34 -61 40 -86 7 -25 61 -97 120
-160 60 -63 114 -136 120 -162 16 -63 255 -302 319 -318 29 -7 108 -70 200
-160 89 -86 172 -153 199 -159 26 -7 81 -43 123 -81 43 -38 97 -74 121 -80 24
-6 61 -24 84 -40 23 -16 59 -34 81 -41 22 -7 58 -25 80 -40 22 -15 58 -33 80
-40 22 -7 58 -25 80 -40 22 -15 58 -33 80 -40 22 -7 58 -25 80 -40 22 -15 75
-32 117 -38 43 -5 97 -23 120 -40 24 -16 78 -34 120 -40 43 -5 97 -23 120 -40
29 -19 82 -32 157 -38 80 -5 129 -17 160 -40 36 -25 78 -33 199 -39 123 -5
162 -13 201 -40 45 -33 70 -35 399 -40 334 -5 353 -7 401 -41 49 -35 64 -36
396 -36 284 0 354 5 399 26 49 23 58 23 104 0 27 -14 75 -26 106 -26 31 0 80
12 110 26 49 23 58 23 104 0 42 -22 114 -26 466 -26 349 0 425 4 470 26 49 23
58 23 104 0 69 -36 384 -37 453 -1 40 21 58 22 94 7 36 -15 54 -14 94 7 64 33
92 32 145 -7 43 -30 79 -31 1075 -36 1018 -4 1031 -4 1078 -38 26 -18 81 -38
122 -43 41 -5 100 -25 132 -44 38 -22 72 -31 97 -25 52 13 131 94 144 148 6
24 24 62 40 85 16 23 34 59 41 81 7 22 25 58 40 80 15 22 31 74 36 115 4 41
22 95 40 120 17 25 37 63 44 85 7 22 25 58 40 80 15 22 33 58 40 80 7 22 43
74 80 115 56 62 69 90 75 154 5 44 23 100 40 125 18 25 38 64 45 86 7 22 25
58 40 80 15 22 33 58 40 80 7 22 25 58 40 80 15 22 33 58 40 80 7 22 25 58 40
80 15 22 33 58 40 80 7 22 25 58 40 80 15 22 33 58 40 80 7 22 25 58 40 80 15
22 33 58 40 80 7 22 43 74 80 116 38 41 73 95 79 119 6 24 25 63 42 86 39 55
40 121 3 140 -15 8 -76 18 -135 23 -70 5 -122 19 -152 40 -25 17 -80 36 -122
42 -43 5 -97 23 -120 40 -29 19 -82 32 -157 38 -80 5 -129 17 -161 40 -40 29
-75 34 -277 38 -210 5 -237 9 -282 42 -50 36 -50 36 -2800 40 -2750 4 -2750 4
-2798 38 -34 24 -81 36 -162 42 -79 5 -129 18 -160 39 -25 18 -81 37 -124 43
-61 8 -93 24 -156 81 -43 39 -99 75 -123 80 -58 13 -301 258 -316 317 -6 25
-43 81 -83 125 -58 65 -74 95 -80 156 -5 41 -23 96 -42 123 -24 34 -35 79 -40
160 -4 81 -15 125 -40 160 -50 71 -50 314 0 384 28 39 36 76 40 200 5 123 12
161 40 200 19 26 39 66 46 88 7 22 25 58 40 80 15 22 33 58 39 80 16 54 500
539 551 552 22 6 60 24 84 41 24 17 78 36 121 41 42 6 98 25 123 43 31 21 81
34 160 39 81 6 128 18 162 42 48 34 48 34 4368 42 2376 5 4321 10 4322 12 1 2
11 27 23 56 11 29 33 70 48 92 15 22 32 58 39 80 7 22 25 58 40 80 15 22 33
58 40 80 7 22 25 58 40 80 15 22 33 58 40 80 7 22 25 58 40 80 15 22 33 58 40
80 7 22 25 58 40 80 15 22 33 58 40 80 7 22 25 58 40 80 15 22 31 74 36 115 4
41 22 95 40 120 17 25 37 63 44 85 7 22 25 58 40 80 15 22 33 58 40 80 7 22
25 58 40 80 15 22 33 58 40 80 7 22 25 58 40 80 15 22 33 58 40 80 7 22 25 58
40 80 15 22 33 58 40 80 7 22 25 58 40 80 15 22 33 58 40 80 7 22 25 58 40 80
15 22 33 58 40 80 7 22 25 58 40 80 15 22 33 58 40 80 7 22 25 58 40 80 15 22
33 58 40 80 7 22 26 59 42 82 34 49 38 95 11 123 -24 23 -22 23 -101 -14z"/>
<path d="M41040 27885 c-44 -27 -88 -36 -208 -42 -112 -5 -163 -14 -193 -36
-23 -16 -60 -34 -84 -40 -24 -6 -78 -42 -121 -80 -42 -38 -96 -74 -121 -80
-57 -14 -146 -103 -160 -160 -6 -25 -42 -79 -80 -121 -57 -63 -70 -91 -76
-155 -5 -44 -23 -100 -41 -125 -26 -37 -34 -77 -38 -198 -5 -126 -12 -161 -42
-202 -33 -46 -36 -69 -36 -246 0 -177 3 -200 36 -246 32 -44 37 -74 41 -242 5
-162 11 -198 39 -238 18 -25 36 -81 41 -125 6 -64 19 -92 76 -155 38 -42 74
-96 80 -120 6 -23 42 -77 80 -120 38 -42 74 -98 80 -123 8 -33 166 -202 519
-559 280 -282 514 -530 520 -552 7 -22 25 -58 40 -80 15 -22 33 -58 40 -80 7
-22 27 -60 44 -85 18 -25 36 -79 40 -120 5 -41 24 -97 42 -123 53 -75 52 -631
-1 -705 -19 -27 -40 -67 -45 -90 -13 -50 -97 -133 -152 -149 -22 -7 -61 -27
-86 -45 -29 -20 -72 -32 -114 -32 -42 0 -85 12 -114 32 -25 18 -64 38 -86 45
-55 16 -139 99 -152 149 -5 23 -26 63 -45 90 -33 46 -35 70 -40 365 -5 316 -5
316 -62 372 -58 56 -58 56 -409 56 -211 0 -362 -7 -381 -17 -51 -27 -47 -556
5 -629 30 -41 37 -76 42 -202 4 -121 12 -161 38 -197 18 -25 36 -79 40 -120 5
-41 21 -93 37 -116 16 -23 34 -62 40 -88 16 -64 334 -382 398 -398 26 -6 65
-24 88 -40 23 -15 76 -33 118 -39 43 -5 98 -24 123 -42 69 -49 731 -49 800 0
25 18 80 37 123 42 42 6 95 24 118 39 23 16 62 34 88 40 62 16 302 256 318
318 6 26 24 65 40 88 16 23 34 59 41 81 7 22 25 58 40 80 15 22 31 74 36 115
4 41 23 96 42 122 33 47 34 62 34 603 0 541 -1 556 -34 603 -19 26 -38 81 -42
122 -5 41 -21 93 -36 115 -15 22 -33 58 -40 80 -7 22 -25 58 -41 81 -16 23
-34 62 -41 88 -6 27 -73 110 -159 199 -91 93 -153 171 -160 200 -8 34 -139
177 -440 480 -279 281 -433 448 -440 476 -6 25 -41 79 -79 120 -37 42 -73 94
-80 116 -7 22 -27 62 -46 88 -28 39 -35 77 -40 200 -4 124 -12 161 -40 200
-45 63 -45 161 0 224 25 35 36 79 41 164 5 105 11 120 59 170 30 31 72 60 95
66 23 5 63 26 89 44 67 48 239 49 307 3 26 -18 66 -41 90 -51 24 -10 57 -46
73 -79 17 -34 38 -75 48 -93 10 -18 28 -54 41 -80 12 -26 34 -70 49 -96 20
-38 26 -95 26 -267 0 -201 3 -221 31 -236 18 -10 167 -17 369 -17 202 0 351 7
369 17 50 26 47 715 -3 786 -19 26 -38 81 -42 122 -5 41 -21 93 -36 115 -15
22 -33 58 -40 80 -7 22 -25 58 -41 81 -16 23 -34 62 -40 88 -7 30 -73 109
-181 216 -164 164 -173 170 -255 180 -46 5 -104 24 -128 41 -35 25 -78 32
-235 37 -163 5 -200 12 -248 42 -70 44 -90 44 -160 0z"/>
<path d="M43760 27808 c-22 -17 -58 -35 -79 -40 -21 -6 -58 -24 -81 -40 -23
-16 -63 -35 -89 -41 -62 -16 -302 -256 -318 -318 -6 -26 -24 -65 -40 -88 -16
-23 -34 -59 -41 -81 -7 -22 -25 -58 -40 -80 -15 -22 -33 -58 -40 -80 -7 -22
-26 -59 -42 -82 -29 -41 -30 -119 -30 -2198 0 -2155 0 -2155 34 -2203 19 -26
38 -81 42 -122 5 -41 21 -93 37 -116 16 -23 34 -60 40 -84 6 -24 42 -78 80
-121 38 -42 74 -95 80 -119 12 -48 31 -66 87 -83 22 -7 74 -43 116 -80 41 -38
95 -73 119 -79 24 -6 61 -24 84 -40 23 -15 76 -33 118 -39 43 -5 98 -24 123
-42 67 -47 731 -49 798 -2 23 16 60 35 82 42 22 7 58 25 80 40 22 15 58 33 80
40 22 7 58 25 81 41 23 16 61 34 86 40 57 14 146 103 160 160 6 25 42 79 80
121 38 43 74 97 80 121 6 24 24 61 40 84 19 27 31 79 35 153 5 84 16 126 42
163 36 50 36 50 36 2165 0 2040 -1 2117 -30 2158 -16 23 -35 60 -42 82 -7 22
-25 58 -40 80 -15 22 -33 58 -40 80 -7 22 -25 58 -41 81 -16 23 -34 62 -40 88
-16 62 -256 302 -318 318 -26 6 -65 24 -88 40 -23 16 -59 34 -81 41 -22 7 -59
26 -82 42 -67 47 -977 45 -1038 -2z m641 -817 c23 -16 59 -33 82 -39 22 -6 83
-53 135 -106 94 -95 94 -95 94 -2083 0 -1987 0 -1987 -35 -2036 -19 -27 -40
-67 -45 -90 -6 -23 -36 -65 -66 -95 -56 -54 -56 -54 -286 -54 -230 0 -230 0
-286 54 -30 30 -60 72 -66 95 -5 23 -26 63 -45 90 -35 49 -35 49 -35 2036 0
1988 0 1988 94 2083 52 53 113 100 135 106 23 6 59 23 82 39 77 55 165 55 242
0z"/>
<path d="M47360 27805 c-49 -31 -85 -37 -291 -44 -130 -5 -243 -16 -251 -25
-9 -9 -18 -120 -21 -248 -4 -208 -9 -237 -40 -281 -31 -43 -35 -73 -40 -280
-4 -207 -9 -236 -40 -280 -31 -43 -35 -73 -40 -280 -4 -207 -9 -236 -40 -280
-31 -43 -35 -73 -40 -280 -4 -207 -9 -236 -40 -280 -31 -43 -35 -73 -40 -280
-4 -206 -9 -236 -40 -279 -29 -42 -35 -75 -40 -240 -4 -166 -10 -199 -40 -241
-32 -45 -35 -71 -40 -320 -5 -248 -8 -275 -40 -319 -29 -42 -35 -75 -40 -240
-4 -166 -10 -199 -40 -241 -31 -43 -35 -73 -40 -280 -4 -206 -9 -236 -40 -279
-29 -42 -35 -75 -40 -240 -4 -166 -10 -199 -40 -240 -29 -42 -35 -75 -40 -240
-4 -168 -9 -198 -41 -242 -45 -63 -47 -127 -5 -149 19 -10 170 -17 381 -17
351 0 351 0 409 56 57 56 57 56 62 332 5 253 8 280 40 324 29 42 35 75 40 236
7 263 -33 243 491 249 476 5 498 1 543 -88 17 -34 42 -83 57 -109 21 -39 26
-97 26 -302 0 -237 2 -256 36 -304 30 -42 37 -75 41 -202 4 -117 11 -157 31
-172 33 -26 774 -29 821 -3 48 25 45 238 -5 309 -32 44 -37 74 -41 242 -5 165
-11 198 -40 240 -31 43 -36 73 -40 279 -5 207 -9 237 -40 280 -31 44 -36 73
-40 280 -5 207 -9 237 -40 280 -31 44 -36 73 -40 280 -5 207 -9 237 -40 280
-30 42 -36 75 -40 241 -5 165 -11 198 -40 240 -31 43 -36 73 -40 279 -5 207
-9 237 -40 280 -30 42 -36 75 -40 241 -5 165 -11 198 -40 240 -31 43 -36 73
-40 279 -5 207 -9 237 -40 280 -30 42 -36 75 -40 241 -5 165 -11 198 -40 240
-31 43 -36 73 -40 279 -5 207 -9 237 -40 280 -30 43 -36 75 -40 244 -6 196 -6
196 -56 245 -69 68 -110 75 -183 31 -83 -50 -244 -51 -324 -2 -70 44 -90 44
-160 0z m70 -1329 c5 -20 10 -53 10 -74 0 -20 15 -59 34 -85 32 -44 35 -74 41
-321 6 -250 10 -277 42 -323 31 -44 36 -72 40 -280 5 -207 9 -237 40 -280 32
-45 35 -72 40 -320 5 -249 8 -275 40 -320 32 -45 35 -71 39 -313 4 -211 10
-274 32 -316 27 -52 27 -52 -25 -104 -52 -52 -52 -52 -355 -52 -362 0 -360 -1
-360 157 0 76 9 111 35 148 33 46 35 71 40 360 5 290 7 314 40 360 32 45 35
71 40 320 5 248 8 275 40 320 31 43 35 73 40 280 5 212 8 235 42 283 35 49 38
71 43 304 3 139 6 261 7 272 2 34 45 22 55 -16z"/>
<path d="M57600 27805 c-49 -31 -86 -37 -288 -44 -128 -5 -241 -15 -252 -22
-16 -10 -20 -503 -20 -2373 0 -2361 0 -2361 36 -2412 35 -48 36 -65 41 -455 4
-386 3 -407 -30 -473 -34 -69 -34 -69 0 -131 18 -34 33 -89 33 -122 0 -43 9
-65 31 -76 41 -23 697 -23 738 0 30 16 31 45 31 1113 0 1190 -1 1174 87 1221
30 17 45 16 86 -5 81 -42 328 -36 392 9 41 29 77 37 202 42 112 5 164 14 193
35 22 15 58 33 80 40 22 7 58 25 81 41 23 16 62 34 88 40 62 16 302 256 318
318 6 26 24 65 40 88 16 23 34 59 41 81 7 22 25 58 40 80 18 26 30 80 34 152
5 84 16 126 42 163 36 50 36 50 36 805 0 755 0 755 -36 805 -26 37 -37 79 -42
163 -4 72 -16 126 -34 152 -15 22 -33 58 -40 80 -7 22 -25 58 -41 81 -16 23
-34 62 -40 88 -16 62 -256 302 -318 318 -26 6 -65 24 -88 40 -23 16 -59 34
-81 41 -22 7 -59 25 -81 41 -38 27 -89 30 -552 34 -498 5 -512 6 -567 41 -70
45 -90 45 -160 1z m873 -888 c27 -19 67 -39 90 -45 22 -6 83 -53 135 -106 94
-95 94 -95 94 -803 0 -701 0 -707 -35 -756 -19 -27 -40 -67 -45 -90 -13 -50
-97 -133 -152 -149 -22 -7 -62 -27 -88 -46 -42 -30 -70 -34 -236 -34 -187 0
-187 0 -248 60 -60 61 -60 61 -60 971 0 911 0 911 54 967 67 69 81 72 282 68
136 -2 168 -8 209 -37z"/>
<path d="M61360 27804 c-54 -35 -72 -36 -481 -41 -361 -4 -436 -1 -496 21 -39
14 -83 30 -98 35 -18 5 -46 -10 -76 -40 -49 -49 -49 -49 -49 -3057 0 -2958 1
-3009 31 -3025 47 -26 787 -23 822 3 24 18 27 114 31 1167 4 1073 6 1150 32
1176 39 39 140 34 201 -9 70 -50 257 -49 328 1 41 29 77 37 202 42 114 5 163
14 194 36 23 16 60 34 84 40 24 6 78 41 119 79 42 37 94 73 116 80 56 17 75
35 87 83 6 24 42 77 80 119 38 43 74 97 80 121 6 24 24 61 40 84 16 23 34 59
41 81 7 22 25 58 41 80 22 33 29 81 34 232 4 168 9 198 41 242 36 50 36 57 36
566 0 509 0 516 -36 566 -32 44 -37 74 -41 242 -5 151 -12 199 -34 232 -16 22
-34 58 -41 80 -7 22 -25 58 -41 81 -16 23 -34 62 -40 88 -16 64 -414 462 -478
478 -26 6 -65 24 -88 40 -33 23 -80 31 -233 36 -163 5 -200 12 -248 42 -70 44
-90 44 -160 -1z m232 -885 c26 -18 67 -41 91 -51 24 -10 57 -46 74 -79 17 -34
42 -83 57 -109 14 -26 26 -72 26 -102 0 -29 16 -75 36 -104 23 -32 36 -73 36
-114 0 -41 -13 -82 -36 -114 -44 -62 -49 -180 -10 -239 21 -32 22 -47 7 -85
-16 -39 -14 -55 16 -112 48 -92 41 -289 -13 -364 -27 -39 -36 -73 -36 -144 0
-57 -11 -113 -26 -142 -15 -26 -40 -75 -57 -109 -17 -33 -50 -69 -74 -79 -24
-10 -65 -33 -91 -51 -68 -47 -470 -50 -515 -4 -27 26 -29 90 -33 978 -3 610 1
964 11 991 24 63 68 74 289 70 171 -3 207 -9 248 -37z"/>
<path d="M66560 27808 c-49 -38 -83 -40 -147 -6 -47 24 -54 23 -108 -3 -41
-21 -107 -31 -236 -36 -212 -8 -230 -19 -182 -109 33 -61 33 -69 33 -3001 0
-2890 1 -2940 31 -2956 42 -23 776 -23 818 0 30 16 31 66 30 3020 0 2336 -4
3008 -20 3027 -73 92 -153 116 -219 64z"/>
<path d="M74800 27808 c-22 -17 -58 -35 -79 -40 -21 -6 -58 -24 -81 -40 -23
-16 -63 -35 -89 -41 -62 -16 -302 -256 -318 -318 -6 -26 -24 -65 -40 -88 -16
-23 -34 -59 -41 -81 -7 -22 -25 -58 -40 -80 -15 -22 -31 -74 -36 -115 -4 -41
-23 -96 -42 -122 -34 -48 -34 -48 -34 -2163 0 -2115 0 -2115 34 -2163 19 -26
38 -81 42 -122 5 -41 21 -93 36 -115 15 -22 33 -58 40 -80 7 -22 25 -58 41
-81 16 -23 34 -62 40 -88 16 -62 256 -302 318 -318 26 -6 65 -24 88 -40 23
-16 59 -34 81 -41 22 -7 59 -26 82 -42 39 -28 79 -30 478 -30 399 0 439 2 478
30 23 16 60 35 82 42 22 7 58 25 81 41 23 16 62 34 88 40 62 16 302 256 318
318 6 25 42 81 80 123 57 63 70 91 76 155 5 44 23 100 42 127 33 46 34 66 38
598 5 541 6 551 41 600 44 62 49 182 11 221 -33 33 -784 38 -828 5 -23 -18
-27 -79 -31 -572 -4 -533 -5 -554 -38 -600 -19 -26 -39 -66 -46 -88 -16 -55
-99 -139 -149 -152 -23 -5 -62 -25 -88 -44 -63 -44 -167 -44 -230 0 -26 19
-65 38 -88 44 -22 6 -83 53 -135 106 -94 95 -94 95 -94 2126 0 2032 0 2032
140 2172 140 140 140 140 292 140 151 0 151 0 246 -94 53 -52 100 -113 106
-135 6 -23 26 -63 45 -90 34 -47 35 -66 39 -481 4 -381 8 -434 32 -452 18 -14
108 -20 307 -20 246 -1 290 -5 351 -33 118 -53 114 -74 114 596 0 579 -1 593
-34 640 -19 26 -38 81 -42 122 -5 41 -21 93 -37 116 -16 23 -34 62 -40 88 -7
31 -83 119 -221 256 -206 206 -211 210 -295 220 -46 5 -105 24 -130 42 -69 49
-898 50 -961 1z"/>
<path d="M49409 27779 c-49 -49 -49 -49 -49 -3017 0 -2968 0 -2968 58 -3025
59 -57 59 -57 413 -57 259 0 362 5 382 20 25 18 27 119 31 1247 4 1155 6 1230
33 1256 47 48 448 43 516 -6 27 -19 67 -40 90 -45 50 -13 133 -97 149 -152 7
-22 27 -62 46 -88 34 -47 34 -59 38 -1038 4 -933 6 -992 34 -1032 17 -23 35
-58 41 -78 26 -83 31 -84 449 -84 444 0 440 -1 440 123 0 49 -11 88 -36 123
-36 50 -36 50 -40 960 -5 909 -5 910 -40 960 -26 36 -37 79 -42 162 -4 72 -16
126 -34 152 -15 22 -33 58 -40 80 -7 22 -25 58 -41 81 -16 23 -34 61 -40 86
-7 25 -61 98 -121 161 -70 74 -110 129 -110 152 0 25 49 88 149 191 88 90 155
173 161 200 7 26 25 65 41 88 19 27 31 79 35 153 5 84 16 126 42 163 36 50 36
55 36 645 0 590 0 595 -36 645 -26 37 -37 79 -42 163 -4 72 -16 126 -34 152
-15 22 -33 58 -40 80 -7 22 -25 58 -41 81 -16 23 -34 62 -41 88 -15 61 -176
222 -237 237 -26 7 -65 25 -88 41 -23 16 -59 34 -81 41 -22 7 -59 25 -81 41
-38 27 -91 30 -624 34 -533 5 -588 8 -638 35 -52 28 -57 28 -112 2 -85 -41
-234 -49 -321 -17 -40 15 -84 31 -99 36 -18 5 -46 -10 -76 -40z m1383 -861
c27 -19 66 -39 88 -46 55 -16 139 -99 152 -149 5 -23 26 -63 45 -90 34 -48 35
-59 35 -593 0 -534 -1 -545 -35 -593 -19 -27 -39 -67 -45 -90 -6 -22 -53 -82
-105 -134 -95 -94 -95 -94 -291 -103 -119 -5 -211 -17 -234 -30 -50 -28 -103
-1 -138 72 -22 46 -24 153 -20 860 4 808 4 808 58 864 67 69 81 72 282 68 134
-2 168 -8 208 -36z"/>
<path d="M79336 27795 c-44 -24 -147 -28 -1112 -35 -585 -4 -1073 -14 -1084
-21 -16 -10 -20 -632 -20 -3019 0 -2956 1 -3007 31 -3023 20 -11 415 -17 1169
-17 754 0 1149 6 1169 17 29 15 31 37 31 423 0 307 -5 409 -20 419 -11 7 -338
17 -727 21 -652 7 -710 10 -736 37 -45 44 -45 1722 0 1766 26 26 78 30 576 37
301 4 556 14 567 21 15 10 20 112 20 419 0 307 -5 409 -20 419 -11 7 -266 17
-567 21 -498 7 -550 11 -576 37 -45 44 -45 1562 0 1606 26 27 84 30 736 37
389 4 716 14 727 21 15 10 20 104 20 381 0 368 0 368 -47 415 -53 54 -71 56
-137 18z"/>
<path d="M54508 27740 c-22 -17 -27 -60 -31 -252 -5 -208 -9 -237 -40 -281
-31 -43 -35 -73 -40 -280 -4 -207 -9 -236 -40 -280 -31 -43 -35 -73 -40 -280
-4 -207 -9 -236 -40 -280 -31 -43 -35 -73 -40 -280 -4 -206 -9 -236 -40 -279
-29 -42 -35 -75 -40 -240 -4 -166 -10 -199 -40 -241 -32 -45 -35 -71 -40 -320
-5 -248 -8 -275 -40 -320 -31 -43 -35 -73 -40 -280 -4 -207 -9 -236 -40 -280
-31 -43 -35 -73 -40 -280 -4 -207 -9 -236 -40 -280 -31 -43 -35 -73 -40 -280
-4 -206 -9 -236 -40 -279 -29 -42 -35 -75 -40 -240 -4 -165 -10 -199 -39 -240
-28 -39 -36 -76 -40 -200 -5 -126 -12 -161 -42 -202 -45 -63 -47 -127 -5 -149
47 -26 788 -23 821 3 22 17 27 60 31 252 5 208 9 237 40 281 32 45 35 72 40
315 4 231 9 271 34 295 43 44 1003 44 1046 0 25 -25 30 -66 34 -334 5 -286 7
-310 40 -356 30 -43 36 -74 40 -241 4 -155 10 -196 31 -212 33 -26 774 -29
821 -3 50 26 46 317 -5 389 -33 45 -36 72 -41 281 -5 207 -9 237 -40 280 -31
44 -36 73 -40 280 -5 207 -9 237 -40 280 -30 42 -36 75 -40 241 -5 165 -11
198 -40 240 -30 41 -36 74 -40 240 -5 165 -11 198 -40 240 -31 43 -36 73 -40
279 -5 207 -9 237 -40 280 -30 42 -36 75 -40 241 -5 165 -11 198 -40 240 -30
41 -36 74 -40 240 -5 165 -11 198 -40 240 -32 44 -35 71 -40 319 -5 249 -8
275 -40 320 -30 42 -36 75 -40 241 -5 165 -11 198 -40 240 -30 41 -36 74 -40
240 -5 165 -11 198 -40 240 -30 42 -36 74 -40 240 -4 155 -10 196 -31 212 -20
15 -168 20 -612 20 -444 0 -592 -5 -612 -20z m605 -1264 c6 -20 26 -57 44 -83
31 -43 34 -75 40 -360 6 -289 9 -317 41 -361 30 -43 35 -73 39 -279 5 -207 9
-237 40 -280 31 -44 36 -73 40 -280 5 -207 9 -237 40 -280 32 -45 36 -73 43
-371 7 -278 12 -327 36 -354 35 -39 36 -90 2 -118 -45 -37 -683 -31 -721 7
-44 43 -40 212 6 276 32 45 35 72 40 320 5 248 8 275 40 320 32 45 35 71 40
320 5 248 8 275 40 320 31 43 35 73 40 280 4 209 8 236 41 281 33 47 36 71 42
352 4 166 8 307 9 314 3 28 48 9 58 -24z"/>
<path d="M63228 27743 c-27 -16 -28 -177 -28 -3023 0 -2956 1 -3007 31 -3023
43 -23 2215 -23 2258 0 29 15 31 37 31 383 0 515 49 480 -667 480 -473 0 -558
-4 -600 -26 -41 -21 -56 -22 -86 -5 -92 49 -87 -96 -87 2594 0 2459 0 2470 33
2531 56 105 54 106 -431 106 -259 -1 -437 -7 -454 -17z"/>
<path d="M68108 27740 c-22 -17 -27 -60 -31 -252 -5 -208 -9 -237 -40 -281
-31 -43 -35 -73 -40 -280 -4 -206 -9 -236 -40 -279 -29 -42 -35 -75 -40 -240
-4 -166 -10 -199 -40 -241 -31 -43 -35 -73 -40 -280 -4 -207 -9 -236 -40 -280
-31 -43 -35 -73 -40 -280 -4 -206 -9 -236 -40 -279 -29 -42 -35 -75 -40 -240
-4 -166 -10 -199 -40 -240 -29 -42 -35 -75 -40 -240 -4 -166 -10 -199 -40
-240 -29 -42 -35 -75 -40 -240 -4 -166 -10 -199 -40 -241 -31 -43 -35 -73 -40
-280 -4 -206 -9 -236 -40 -279 -29 -42 -35 -75 -40 -240 -4 -166 -10 -199 -40
-241 -31 -43 -35 -73 -40 -280 -5 -209 -8 -236 -41 -281 -50 -71 -53 -284 -5
-309 47 -26 708 -22 740 3 14 11 29 54 33 95 4 41 23 95 41 120 28 41 33 75
38 278 4 206 9 236 39 279 28 39 36 76 40 195 9 220 -28 205 520 205 535 0
518 6 518 -171 0 -74 8 -108 36 -147 33 -45 36 -72 41 -281 5 -206 9 -237 40
-280 25 -36 36 -78 40 -161 4 -78 14 -118 31 -132 33 -26 774 -29 821 -3 42
22 40 86 -5 149 -33 45 -36 72 -41 281 -5 207 -9 237 -40 280 -30 42 -36 75
-40 241 -5 165 -11 198 -40 240 -31 43 -36 73 -40 279 -5 207 -9 237 -40 280
-31 44 -36 73 -40 280 -5 207 -9 237 -40 280 -30 42 -36 75 -40 241 -5 165
-11 198 -40 240 -31 43 -36 73 -40 279 -5 207 -9 237 -40 280 -31 44 -36 73
-40 280 -5 207 -9 237 -40 280 -31 44 -36 73 -40 280 -5 207 -9 237 -40 280
-30 42 -36 75 -40 241 -5 165 -11 198 -40 240 -32 44 -35 71 -40 319 -5 249
-8 275 -40 320 -30 43 -36 74 -40 241 -4 155 -10 196 -31 212 -20 15 -168 20
-612 20 -444 0 -592 -5 -612 -20z m598 -1168 c2 -11 4 -78 5 -149 2 -109 9
-138 42 -184 37 -52 39 -69 44 -327 5 -247 9 -275 40 -320 31 -43 36 -73 40
-279 5 -207 9 -237 40 -280 32 -45 35 -72 40 -320 5 -249 8 -275 40 -320 49
-69 54 -629 6 -676 -43 -44 -603 -44 -646 0 -47 46 -42 369 6 436 32 45 35 71
40 320 5 248 8 275 40 320 32 45 35 71 40 320 5 248 8 275 40 320 32 45 35 71
40 320 5 259 7 274 45 327 36 51 40 70 43 264 1 114 3 217 4 228 1 11 12 20
25 20 13 0 25 -9 26 -20z"/>
<path d="M70668 27743 c-27 -16 -28 -177 -28 -3023 0 -2956 1 -3007 31 -3023
47 -26 708 -22 741 3 25 18 27 172 29 1975 2 1956 2 1956 -31 2003 -44 61 -43
116 3 159 41 38 90 46 92 15 1 -11 3 -78 4 -148 3 -106 9 -137 41 -181 29 -41
39 -78 42 -163 3 -85 13 -122 42 -163 28 -40 39 -79 44 -165 4 -81 15 -125 40
-160 24 -34 35 -78 40 -160 4 -81 15 -125 40 -160 28 -39 35 -77 40 -200 4
-123 12 -161 39 -200 25 -34 36 -78 41 -160 4 -81 15 -125 40 -160 24 -34 35
-78 40 -160 4 -81 15 -125 40 -160 24 -34 35 -78 40 -160 4 -81 15 -125 40
-160 24 -34 35 -78 40 -160 4 -81 15 -125 40 -160 24 -34 35 -78 40 -160 4
-81 15 -125 40 -160 24 -34 35 -78 40 -160 4 -81 15 -125 40 -160 24 -34 35
-78 40 -160 4 -79 15 -125 38 -157 18 -25 36 -79 40 -120 4 -41 19 -84 33 -95
32 -26 853 -29 900 -3 30 16 31 67 31 3023 0 2956 -1 3007 -31 3023 -19 11
-181 17 -414 17 -438 0 -444 -2 -387 -107 33 -61 33 -66 31 -1717 -1 -911 -6
-1672 -10 -1692 -18 -78 -68 -24 -69 74 0 20 -16 59 -35 86 -28 39 -35 75 -39
199 -5 126 -12 160 -42 202 -26 37 -37 79 -42 163 -4 81 -15 125 -40 160 -24
34 -35 78 -40 160 -4 81 -15 125 -40 160 -24 34 -35 78 -40 160 -4 81 -15 125
-40 160 -28 39 -35 77 -40 200 -4 123 -12 161 -39 200 -25 34 -36 78 -41 160
-4 81 -15 125 -40 160 -24 34 -35 78 -40 160 -4 81 -15 125 -40 160 -24 34
-35 78 -40 160 -4 81 -15 125 -40 160 -24 34 -35 78 -40 160 -4 81 -15 125
-40 160 -24 34 -35 78 -39 160 -4 78 -14 118 -31 132 -33 26 -1020 28 -1064 3z"/>
<path d="M81228 27743 c-27 -16 -28 -177 -28 -3023 0 -2956 1 -3007 31 -3023
47 -26 787 -23 821 3 24 18 28 71 32 452 4 419 5 434 40 482 36 50 36 56 36
606 0 550 0 556 -36 606 -29 40 -36 72 -36 158 0 103 3 110 60 168 61 60 61
60 248 60 168 0 193 -4 237 -35 27 -19 67 -40 90 -45 50 -13 133 -97 149 -152
7 -22 27 -62 46 -88 33 -47 34 -61 38 -918 5 -870 5 -870 40 -920 30 -42 37
-76 41 -202 4 -117 11 -157 31 -172 33 -26 774 -29 821 -3 48 25 45 238 -5
309 -36 50 -36 50 -40 1000 -5 937 -5 951 -39 998 -18 26 -37 80 -41 121 -5
41 -21 93 -37 116 -16 23 -34 61 -40 86 -16 62 -220 274 -297 308 -36 16 -62
38 -62 53 0 15 78 105 174 201 109 110 177 192 185 222 6 26 24 65 40 88 16
23 32 75 37 116 4 41 23 96 42 122 33 47 34 60 34 723 0 663 -1 676 -34 723
-19 26 -38 81 -42 122 -5 41 -21 93 -36 115 -15 22 -33 58 -40 80 -7 22 -25
58 -41 81 -16 23 -34 62 -41 88 -15 61 -176 222 -237 237 -26 7 -65 25 -88 41
-23 16 -59 34 -81 41 -22 7 -59 26 -82 42 -41 28 -90 30 -952 30 -588 -1 -920
-7 -938 -17z m1405 -826 c27 -19 67 -39 90 -45 22 -6 83 -53 135 -106 94 -95
94 -95 94 -723 0 -619 0 -628 -35 -676 -19 -27 -40 -67 -45 -90 -18 -72 -104
-139 -193 -151 -43 -6 -101 -26 -127 -44 -40 -29 -71 -34 -196 -34 -147 0
-147 0 -208 60 -60 61 -60 61 -60 891 0 831 0 831 54 887 67 69 81 72 282 68
136 -2 168 -8 209 -37z"/>
<path d="M84508 27743 c-27 -16 -28 -177 -28 -3023 0 -2956 1 -3007 31 -3023
48 -26 2227 -23 2261 3 22 17 27 62 31 292 5 252 8 276 41 322 52 73 46 123
-22 189 -59 57 -59 57 -618 57 -548 0 -560 -1 -608 -35 -76 -54 -177 -47 -241
17 -51 51 -51 51 -23 100 40 69 43 1128 4 1188 -20 30 -21 47 -8 83 13 33 12
57 -1 90 -15 37 -14 52 7 84 33 51 33 90 -2 151 -28 49 -28 49 24 102 53 52
53 52 608 60 306 4 565 14 576 21 15 10 20 112 20 419 0 386 -2 408 -31 423
-20 11 -232 17 -580 17 -302 0 -565 5 -585 10 -38 10 -51 75 -20 94 25 15 19
80 -11 133 -26 44 -26 49 0 88 23 36 27 90 27 396 0 342 -1 356 -36 405 -32
45 -36 69 -36 238 0 187 0 187 60 248 60 60 60 60 736 68 372 4 685 14 696 21
15 10 20 104 20 379 0 346 -2 368 -31 383 -42 23 -2222 22 -2261 0z"/>
<path d="M87308 27743 c-39 -23 -35 -88 8 -149 36 -50 36 -50 40 -2962 4
-2713 6 -2913 31 -2932 20 -15 121 -20 373 -20 252 0 353 5 373 20 24 18 27
112 31 1127 4 1038 6 1110 33 1136 24 25 64 30 295 34 242 5 271 8 314 40 39
27 78 35 201 40 114 5 163 14 194 36 23 16 62 34 88 40 64 16 462 414 478 478
6 26 24 65 40 88 19 27 31 79 35 153 5 84 16 126 42 163 36 50 36 50 36 885 0
827 0 836 -34 883 -19 26 -38 81 -42 122 -5 41 -21 93 -36 115 -15 22 -33 58
-40 80 -7 22 -25 58 -41 81 -16 23 -34 62 -40 88 -16 62 -256 302 -318 318
-26 6 -65 24 -88 40 -23 16 -59 34 -81 41 -22 7 -59 26 -82 42 -41 28 -89 30
-912 30 -561 -1 -880 -7 -898 -17z m1405 -826 c27 -19 67 -39 90 -45 22 -6 83
-53 135 -106 94 -95 94 -95 94 -846 0 -752 0 -752 -140 -892 -140 -140 -140
-140 -372 -140 -231 0 -231 0 -292 60 -60 60 -60 60 -65 309 -5 229 -3 254 29
315 35 66 35 66 1 134 -33 66 -34 85 -30 596 5 528 5 528 59 584 67 69 81 72
282 68 136 -2 168 -8 209 -37z"/>
<path d="M90828 27740 c-17 -14 -27 -54 -31 -132 -4 -83 -15 -125 -40 -161
-31 -43 -35 -74 -40 -280 -4 -207 -9 -236 -40 -280 -31 -43 -35 -73 -40 -280
-4 -207 -9 -236 -40 -280 -31 -43 -35 -73 -40 -280 -4 -207 -9 -236 -40 -280
-31 -43 -35 -73 -40 -280 -4 -207 -9 -236 -40 -280 -31 -43 -35 -73 -40 -280
-4 -207 -9 -236 -40 -280 -31 -43 -35 -73 -40 -280 -4 -206 -9 -236 -40 -279
-29 -42 -35 -75 -40 -240 -4 -166 -10 -199 -40 -240 -29 -42 -35 -75 -40 -240
-4 -166 -10 -199 -40 -240 -29 -42 -35 -75 -40 -240 -4 -166 -10 -199 -40
-241 -31 -43 -35 -73 -40 -280 -5 -209 -8 -236 -41 -281 -51 -72 -55 -363 -5
-389 47 -26 708 -22 741 3 17 14 27 54 31 132 4 83 15 125 40 161 32 45 35 72
40 320 5 251 8 275 41 321 21 30 36 74 36 107 0 31 14 72 31 93 30 38 30 38
487 38 548 0 511 15 520 -205 4 -119 12 -156 40 -195 30 -43 35 -73 39 -279 5
-203 10 -237 38 -278 18 -25 37 -79 41 -120 4 -41 19 -84 33 -95 32 -26 773
-29 820 -3 42 22 40 86 -5 149 -32 44 -37 74 -41 242 -5 165 -11 198 -40 240
-30 41 -36 74 -40 240 -5 165 -11 198 -40 240 -31 43 -36 73 -40 279 -5 207
-9 237 -40 280 -30 42 -36 75 -40 241 -5 165 -11 198 -40 240 -31 43 -36 73
-40 279 -5 207 -9 237 -40 280 -31 44 -36 73 -40 280 -5 207 -9 237 -40 280
-31 44 -36 73 -40 280 -5 207 -9 237 -40 280 -30 42 -36 75 -40 241 -5 165
-11 198 -40 240 -30 41 -36 74 -40 240 -5 165 -11 198 -40 240 -31 43 -36 73
-40 279 -5 207 -9 237 -40 280 -31 44 -36 73 -40 280 -5 191 -10 239 -34 272
-16 23 -34 57 -40 77 -26 85 -17 84 -607 84 -414 0 -554 -5 -574 -20z m598
-1248 c1 -11 3 -96 4 -188 2 -152 6 -174 42 -224 38 -54 40 -68 45 -327 5
-249 8 -275 40 -320 31 -44 36 -73 40 -280 5 -207 9 -237 40 -280 32 -45 35
-72 40 -320 5 -249 8 -275 40 -320 49 -68 54 -469 6 -516 -43 -44 -603 -44
-646 0 -48 47 -43 528 6 596 33 46 35 70 40 360 5 289 7 314 40 360 31 43 35
73 40 280 4 206 9 236 39 279 32 45 35 72 40 360 6 293 8 315 42 362 20 28 36
68 36 88 1 63 18 110 42 110 12 0 23 -9 24 -20z"/>
<path d="M93388 27743 c-27 -16 -28 -177 -28 -3023 0 -2956 1 -3007 31 -3023
19 -11 179 -17 409 -17 230 0 390 6 409 17 30 16 31 67 31 3023 0 2956 -1
3007 -31 3023 -41 22 -783 22 -821 0z"/>
<path d="M94908 27743 c-27 -16 -28 -177 -28 -3023 0 -2956 1 -3007 31 -3023
47 -26 787 -23 822 3 25 18 27 119 31 1247 4 1155 6 1230 33 1256 24 25 58 29
252 29 223 0 223 0 363 -140 140 -140 140 -140 144 -1014 5 -874 5 -874 40
-924 32 -44 37 -74 41 -242 4 -155 10 -196 31 -212 33 -26 774 -29 821 -3 50
26 46 397 -5 469 -32 45 -36 69 -36 234 0 165 4 189 36 234 33 47 36 68 36
286 0 218 -3 239 -36 286 -35 48 -36 65 -41 441 -4 367 -7 393 -38 438 -20 27
-37 82 -42 129 -8 80 -13 87 -199 276 -221 226 -227 245 -103 310 83 44 131
96 147 159 6 21 41 73 79 115 57 63 70 91 76 155 5 45 23 100 42 127 35 49 35
55 35 844 0 751 -2 797 -30 838 -16 23 -35 60 -42 82 -7 22 -25 58 -41 81 -16
23 -34 62 -40 88 -16 62 -256 302 -318 318 -26 6 -65 24 -88 40 -23 16 -59 34
-81 41 -22 7 -59 26 -82 42 -41 28 -89 30 -912 30 -561 -1 -880 -7 -898 -17z
m1504 -931 c140 -140 140 -140 140 -768 0 -620 0 -629 -35 -677 -19 -27 -40
-67 -45 -90 -6 -23 -36 -65 -66 -95 -56 -54 -56 -54 -318 -54 -231 0 -266 3
-291 29 -27 26 -29 86 -33 857 -3 532 1 845 11 872 24 64 68 74 293 70 204 -4
204 -4 344 -144z"/>
<path d="M36432 25867 c0 -11 9 -30 20 -41 15 -15 20 -208 20 -855 0 -828 0
-835 -34 -883 -28 -39 -36 -76 -40 -200 -5 -123 -12 -161 -40 -200 -25 -35
-36 -79 -40 -160 -5 -81 -16 -126 -40 -160 -19 -27 -37 -82 -42 -123 -4 -41
-22 -95 -40 -120 -17 -25 -35 -79 -40 -120 -4 -41 -22 -95 -40 -120 -17 -25
-37 -63 -44 -85 -7 -22 -25 -58 -40 -80 -15 -22 -31 -74 -36 -115 -4 -41 -22
-95 -40 -120 -17 -25 -37 -63 -44 -85 -7 -22 -43 -74 -80 -116 -38 -41 -73
-95 -79 -119 -6 -24 -24 -61 -40 -84 -16 -23 -34 -59 -41 -81 -7 -22 -61 -91
-120 -154 -59 -62 -113 -134 -119 -159 -7 -27 -74 -111 -160 -199 -89 -92
-152 -172 -160 -200 -7 -32 -102 -139 -281 -321 -270 -272 -270 -272 -275
-512 -5 -218 -8 -244 -41 -289 -51 -72 -55 -494 -5 -565 17 -23 36 -62 42 -86
6 -24 42 -78 80 -121 38 -42 74 -96 80 -120 6 -23 42 -77 80 -120 38 -42 74
-96 80 -120 6 -23 42 -77 80 -120 38 -42 74 -96 80 -120 6 -23 42 -77 80 -120
38 -42 74 -96 80 -120 6 -23 41 -77 79 -118 37 -42 73 -94 80 -116 7 -22 25
-58 41 -81 16 -23 34 -60 40 -84 6 -24 42 -78 80 -121 38 -42 74 -96 80 -120
6 -23 42 -77 80 -120 38 -42 74 -96 80 -120 6 -23 42 -77 80 -120 38 -42 74
-96 80 -119 11 -47 121 -178 170 -204 45 -25 71 4 81 88 4 38 22 91 40 116 23
32 34 78 38 157 5 81 16 126 40 160 19 27 37 82 42 123 4 41 22 95 40 120 23
32 34 78 38 157 5 82 16 126 40 160 25 35 36 79 40 160 5 82 16 126 40 160 25
35 36 79 40 160 5 82 16 126 41 160 27 39 35 77 39 200 5 124 12 161 41 200
29 42 35 75 40 240 4 166 10 199 40 241 31 43 35 73 40 280 4 208 9 236 40
281 35 48 36 62 40 560 5 500 6 511 41 560 36 51 36 52 36 726 0 674 0 675
-36 726 -35 49 -36 60 -41 560 -4 498 -5 512 -40 560 -31 45 -36 73 -40 281
-5 207 -9 237 -40 280 -31 44 -36 73 -40 280 -5 205 -9 237 -39 279 -25 34
-37 82 -43 171 -6 81 -18 134 -35 153 -18 20 -29 69 -33 148 -6 112 -9 121
-61 164 -60 51 -80 57 -80 25z"/>
<path d="M1552 22747 c0 -11 9 -30 20 -41 15 -15 21 -222 25 -901 4 -881 4
-882 40 -931 33 -47 35 -70 40 -361 5 -290 7 -314 40 -360 30 -43 36 -74 40
-241 5 -165 11 -198 40 -240 30 -41 36 -74 40 -240 5 -164 11 -198 40 -239 25
-36 36 -78 40 -161 4 -78 14 -118 31 -132 34 -26 2213 -29 2261 -3 48 25 45
238 -5 308 -26 37 -37 79 -42 163 -4 81 -15 125 -40 160 -29 41 -35 75 -39
240 -5 165 -11 198 -40 240 -32 44 -35 71 -40 319 -4 227 -10 278 -33 312 -16
23 -38 64 -49 92 -21 54 -30 59 -136 77 -35 6 -82 24 -104 39 -23 16 -59 34
-81 41 -22 7 -74 43 -116 80 -41 38 -95 73 -118 79 -24 6 -78 42 -120 80 -43
38 -97 74 -120 80 -24 6 -78 42 -120 80 -43 38 -97 74 -122 80 -27 7 -132 98
-268 232 -136 135 -248 232 -285 247 -44 18 -67 41 -85 85 -15 35 -103 140
-206 245 -99 101 -186 202 -192 224 -7 22 -30 65 -50 96 -21 30 -38 65 -38 76
0 36 -49 98 -117 148 -72 53 -91 59 -91 27z"/>
<path d="M47115 20205 c-33 -24 -78 -36 -160 -41 -72 -5 -130 -19 -155 -36
-22 -15 -58 -33 -80 -40 -22 -7 -58 -25 -80 -40 -22 -15 -58 -33 -80 -40 -22
-7 -58 -25 -81 -41 -23 -16 -62 -34 -88 -40 -64 -16 -462 -414 -478 -478 -6
-26 -24 -65 -40 -88 -16 -23 -34 -59 -41 -81 -7 -22 -25 -58 -40 -80 -15 -22
-31 -74 -36 -115 -4 -41 -23 -96 -42 -122 -52 -74 -52 -652 0 -726 19 -26 38
-81 42 -122 5 -41 21 -93 36 -115 15 -22 33 -58 40 -80 7 -22 25 -58 41 -81
16 -23 34 -62 40 -88 16 -65 493 -542 558 -558 26 -6 65 -24 88 -40 23 -16 59
-34 81 -41 22 -7 58 -25 80 -40 22 -15 75 -32 117 -38 43 -5 98 -24 123 -42
72 -51 971 -49 1043 2 35 25 81 37 163 42 71 5 129 19 154 36 22 15 58 33 80
40 22 7 58 25 81 41 23 16 62 34 88 40 64 16 462 414 478 478 6 25 42 81 80
123 57 63 70 91 76 155 5 44 23 100 41 125 26 37 34 77 38 198 5 126 12 161
42 202 20 28 36 67 36 86 0 19 -16 58 -36 86 -32 44 -37 74 -41 242 -5 151
-12 199 -34 232 -16 22 -34 58 -41 80 -7 22 -25 58 -41 81 -16 23 -34 61 -40
86 -7 25 -60 97 -119 159 -59 63 -113 132 -120 154 -17 56 -35 75 -84 88 -23
5 -94 59 -157 119 -63 59 -135 113 -160 120 -25 6 -63 24 -86 40 -23 15 -76
33 -118 39 -43 5 -97 23 -120 40 -24 16 -78 34 -120 40 -43 5 -98 24 -123 42
-71 50 -737 48 -805 -3z m717 -647 c26 -19 66 -39 88 -46 22 -7 58 -25 80 -40
22 -15 58 -33 80 -40 54 -15 299 -259 312 -310 6 -22 25 -61 43 -86 18 -26 37
-80 41 -121 5 -41 24 -97 42 -123 51 -72 51 -392 0 -464 -19 -26 -39 -66 -46
-88 -7 -22 -25 -58 -40 -80 -15 -22 -33 -58 -40 -80 -15 -54 -339 -379 -390
-392 -22 -6 -62 -26 -89 -45 -75 -53 -710 -54 -785 -1 -26 19 -66 39 -88 46
-22 7 -58 25 -80 40 -22 15 -58 33 -80 40 -54 16 -219 179 -232 229 -6 23 -23
59 -39 82 -16 23 -34 59 -41 81 -7 22 -27 62 -46 88 -53 75 -52 631 1 705 19
27 39 67 45 89 13 51 338 375 392 390 22 7 58 25 80 40 22 15 58 33 80 40 22
7 58 25 80 40 61 43 85 46 344 43 216 -3 245 -6 288 -37z"/>
<path d="M70155 20205 c-33 -24 -78 -36 -160 -41 -72 -5 -130 -19 -155 -36
-22 -15 -58 -33 -80 -40 -22 -7 -58 -25 -81 -41 -23 -16 -62 -34 -88 -40 -64
-16 -382 -334 -398 -398 -6 -26 -25 -67 -42 -90 -27 -39 -31 -72 -31 -279 0
-207 4 -240 31 -279 17 -23 36 -64 42 -90 16 -62 256 -302 318 -318 26 -6 65
-24 88 -40 23 -16 59 -34 81 -41 22 -7 58 -25 80 -40 22 -15 75 -32 117 -38
43 -5 97 -23 120 -40 33 -23 79 -32 196 -37 121 -5 162 -13 200 -39 33 -24 81
-36 161 -42 79 -5 129 -18 160 -39 25 -18 82 -37 125 -43 89 -12 175 -79 193
-151 5 -23 24 -61 41 -84 51 -72 40 -111 -61 -210 -51 -49 -110 -95 -132 -101
-22 -7 -62 -27 -88 -46 -73 -52 -630 -52 -704 0 -34 24 -81 36 -162 42 -79 5
-129 17 -160 40 -25 17 -64 37 -86 44 -22 7 -59 26 -82 42 -24 17 -49 30 -57
30 -7 0 -48 19 -91 41 -91 49 -126 44 -198 -26 -40 -39 -52 -65 -52 -109 0
-53 -8 -76 -60 -170 -58 -106 -84 -175 -76 -201 11 -35 78 -85 136 -103 22 -7
58 -25 80 -40 22 -15 75 -32 117 -38 43 -5 97 -23 120 -40 29 -19 82 -32 157
-38 82 -5 128 -17 163 -42 73 -52 1131 -53 1203 -2 25 18 80 37 123 42 42 6
95 24 118 39 23 16 62 34 88 40 64 16 382 334 398 398 6 26 25 67 42 90 28 39
31 73 31 319 0 246 -3 280 -31 319 -17 23 -36 64 -42 90 -16 62 -256 302 -318
318 -26 6 -65 24 -88 40 -23 15 -76 33 -118 39 -43 5 -97 23 -120 40 -29 19
-82 32 -157 38 -80 5 -129 17 -160 40 -36 25 -78 33 -199 39 -121 5 -162 13
-200 39 -26 18 -82 38 -124 44 -43 5 -97 24 -121 41 -24 17 -62 36 -85 41 -23
6 -65 36 -95 66 -51 52 -54 62 -54 167 0 111 0 111 100 211 100 100 100 100
528 100 409 0 430 -1 476 -34 26 -18 83 -38 125 -44 43 -5 98 -24 123 -42 90
-64 221 -37 249 52 6 20 24 54 39 76 15 22 33 58 40 80 7 22 26 59 42 82 35
50 41 193 10 218 -11 9 -38 22 -60 28 -22 7 -58 25 -80 40 -22 15 -75 32 -117
38 -43 5 -97 23 -120 40 -33 23 -79 32 -196 37 -125 5 -161 13 -202 42 -75 53
-659 53 -730 0z"/>
<path d="M91195 20205 c-33 -24 -78 -36 -160 -41 -76 -6 -129 -18 -158 -38
-23 -17 -77 -35 -120 -40 -42 -6 -95 -24 -118 -39 -23 -16 -62 -34 -88 -40
-65 -16 -622 -573 -638 -638 -6 -26 -24 -65 -40 -88 -16 -23 -34 -59 -41 -81
-7 -22 -26 -59 -42 -82 -28 -40 -30 -80 -30 -518 0 -438 2 -478 30 -518 16
-23 35 -60 42 -82 7 -22 25 -58 40 -80 15 -22 33 -58 40 -80 7 -22 25 -58 41
-81 16 -23 34 -62 40 -88 16 -63 334 -382 398 -398 25 -6 81 -42 123 -80 43
-38 97 -74 121 -80 24 -6 61 -24 84 -40 26 -18 82 -31 155 -37 82 -5 128 -17
163 -42 46 -33 63 -34 523 -34 460 0 477 1 523 34 35 25 81 37 163 42 73 6
129 19 155 37 23 16 60 34 84 40 24 6 78 42 121 80 42 38 97 74 122 80 58 15
216 167 216 208 0 40 -382 418 -436 432 -28 6 -65 -3 -118 -32 -43 -22 -86
-41 -96 -41 -10 0 -54 -31 -96 -70 -43 -38 -96 -75 -118 -82 -22 -7 -62 -27
-88 -46 -45 -32 -67 -34 -392 -34 -325 0 -347 2 -392 34 -26 19 -66 39 -88 46
-22 7 -58 25 -80 40 -22 15 -58 33 -80 40 -54 15 -299 259 -312 310 -6 22 -26
62 -45 89 -25 35 -36 78 -41 161 -4 81 -15 125 -40 160 -21 30 -34 72 -34 112
0 40 13 82 34 112 25 35 36 79 40 160 5 81 16 126 40 160 19 27 39 66 46 88
16 57 182 221 234 233 25 5 81 41 124 80 63 57 95 73 156 81 43 6 100 26 126
44 43 31 70 34 272 34 202 0 229 -3 272 -34 26 -18 83 -38 125 -44 43 -5 97
-23 120 -40 24 -16 61 -35 83 -42 22 -7 76 -44 120 -82 73 -64 87 -70 165 -70
86 0 86 0 260 173 219 216 222 232 81 370 -52 51 -114 98 -139 104 -24 6 -79
42 -123 80 -63 55 -95 71 -158 78 -43 5 -99 23 -123 40 -29 21 -81 33 -157 39
-82 5 -128 17 -163 42 -73 52 -658 52 -728 -1z"/>
<path d="M40108 20143 c-37 -22 -35 -93 4 -143 39 -49 40 -95 5 -157 -26 -44
-26 -49 0 -88 34 -53 34 -97 1 -148 -25 -38 -25 -45 8 -110 34 -68 34 -72 34
-1278 0 -1077 3 -1211 25 -1234 34 -34 69 -31 135 10 49 31 85 37 291 44 130
5 243 16 252 25 10 10 16 304 17 816 1 440 6 816 11 836 17 73 118 16 142 -80
6 -25 42 -79 80 -122 38 -42 74 -96 80 -120 6 -23 42 -77 80 -120 38 -42 74
-96 80 -120 6 -23 42 -77 80 -120 38 -42 74 -96 80 -120 6 -23 42 -77 80 -120
38 -42 74 -96 80 -120 6 -23 41 -77 79 -118 37 -42 73 -92 79 -112 24 -76 47
-84 249 -84 202 0 225 8 249 84 6 20 42 70 79 112 38 41 73 95 79 119 6 24 24
61 40 84 16 23 34 59 41 81 7 22 43 74 80 116 38 41 73 95 79 119 6 24 24 61
40 84 16 23 34 59 41 81 7 22 43 74 80 116 38 41 73 95 79 120 6 24 35 69 65
100 30 31 71 88 91 128 41 79 89 99 126 54 19 -22 24 -170 27 -852 4 -750 7
-828 31 -846 18 -13 92 -20 220 -21 133 0 213 -8 257 -25 115 -44 117 -44 167
7 49 49 49 49 49 1577 0 1495 -1 1529 -31 1545 -18 10 -158 17 -341 17 -311 0
-311 0 -368 -55 -31 -30 -61 -74 -67 -99 -6 -24 -42 -78 -80 -120 -38 -43 -74
-97 -80 -121 -6 -24 -24 -61 -40 -84 -16 -23 -34 -59 -41 -81 -7 -22 -43 -74
-80 -116 -38 -41 -73 -95 -79 -118 -6 -24 -42 -78 -80 -120 -38 -43 -74 -97
-80 -121 -6 -24 -24 -61 -40 -84 -16 -23 -34 -59 -41 -81 -7 -22 -43 -74 -80
-116 -38 -41 -73 -95 -79 -118 -6 -24 -42 -78 -80 -120 -38 -43 -74 -97 -80
-122 -7 -24 -20 -54 -30 -66 -11 -12 -33 -52 -51 -88 -25 -51 -41 -66 -72 -66
-31 0 -47 15 -72 66 -18 36 -40 76 -51 88 -10 12 -23 42 -30 66 -6 25 -42 79
-80 122 -38 42 -74 96 -80 120 -6 23 -42 77 -80 120 -38 42 -74 96 -80 120 -6
23 -41 77 -79 118 -37 42 -73 94 -80 116 -7 22 -25 58 -41 81 -16 23 -34 60
-40 84 -6 24 -42 78 -80 121 -38 42 -74 96 -80 120 -6 23 -41 77 -79 118 -37
42 -73 94 -80 116 -7 22 -25 58 -41 81 -16 23 -34 61 -40 85 -6 25 -36 69 -67
99 -57 55 -57 55 -410 55 -211 -1 -365 -8 -382 -17z"/>
<path d="M51068 20143 c-26 -16 -28 -106 -28 -1543 0 -1203 4 -1529 20 -1539
11 -7 178 -17 372 -21 330 -8 356 -10 408 -44 68 -44 108 -45 160 -4 51 40
109 40 160 0 65 -51 493 -47 566 4 48 34 67 36 401 41 307 5 356 9 392 34 23
16 59 34 81 41 22 7 58 25 81 41 23 16 62 34 88 41 61 15 222 176 237 237 7
26 26 67 43 90 28 39 31 73 31 319 0 246 -3 280 -31 319 -17 23 -36 63 -42 88
-16 64 -214 267 -306 314 -121 61 -115 85 66 271 153 158 153 158 153 259 0
72 10 119 33 164 34 62 34 62 0 129 -22 45 -33 98 -33 159 0 65 -9 105 -31
136 -17 23 -36 63 -42 88 -14 57 -103 146 -160 160 -25 6 -63 24 -86 40 -23
16 -59 34 -81 41 -22 7 -58 25 -80 40 -22 15 -75 32 -117 38 -43 5 -98 24
-123 42 -44 31 -69 32 -1074 32 -670 -1 -1040 -7 -1058 -17z m1984 -691 c134
-135 140 -143 140 -212 0 -69 -6 -77 -140 -212 -140 -140 -140 -140 -684 -140
-499 0 -545 2 -571 29 -25 24 -30 64 -34 296 -5 286 5 346 65 371 20 8 262 13
560 11 524 -3 524 -3 664 -143z m-1116 -1108 c53 -31 150 -30 211 2 42 21 55
22 91 4 30 -16 151 -24 438 -30 395 -8 395 -8 532 -144 153 -152 174 -202 128
-291 -16 -29 -42 -80 -59 -114 -17 -33 -50 -69 -74 -79 -24 -10 -65 -33 -91
-51 -46 -32 -69 -33 -667 -33 -573 0 -622 2 -648 29 -25 24 -30 64 -34 287 -6
303 0 346 56 402 47 48 61 50 117 18z"/>
<path d="M55788 20143 c-26 -16 -28 -108 -28 -1583 0 -1797 -21 -1600 168
-1600 84 0 118 7 156 35 64 46 161 45 240 -2 73 -44 114 -37 184 32 52 51 52
51 52 1576 0 1492 -1 1526 -31 1542 -41 22 -703 22 -741 0z"/>
<path d="M58428 20143 c-26 -16 -28 -108 -28 -1574 0 -1297 4 -1560 22 -1575
16 -14 39 -11 92 13 68 31 107 32 1187 33 739 0 1128 6 1148 17 29 15 31 35
31 263 0 179 -5 250 -20 259 -11 7 -374 17 -807 21 -729 7 -790 10 -816 37
-27 26 -29 102 -33 1256 -4 1128 -6 1229 -31 1247 -34 25 -702 28 -745 3z"/>
<path d="M62428 20143 c-26 -16 -28 -106 -28 -1543 0 -1493 1 -1527 31 -1543
20 -11 258 -17 660 -18 533 0 639 -4 693 -26 79 -31 114 -31 179 -4 45 19 57
17 122 -17 71 -38 73 -38 136 -10 51 24 70 26 99 10 26 -14 46 -14 79 0 36 14
55 13 104 -11 58 -27 60 -27 126 8 82 43 119 44 171 3 44 -35 158 -43 209 -15
29 15 31 36 31 303 0 211 -5 289 -20 299 -11 7 -410 17 -887 21 -806 7 -870
10 -896 37 -44 43 -44 603 0 646 26 27 86 30 776 37 411 4 756 14 767 21 15 9
20 80 20 259 0 179 -5 250 -20 259 -11 7 -356 17 -767 21 -690 7 -750 10 -776
37 -44 43 -44 603 0 646 26 27 89 30 856 37 455 4 836 14 847 21 15 9 20 80
20 259 0 228 -2 248 -31 263 -42 23 -2462 22 -2501 0z"/>
<path d="M73548 20143 c-41 -24 -44 -3117 -3 -3158 32 -32 56 -31 124 1 49 23
58 23 104 0 27 -14 75 -26 106 -26 31 0 80 12 110 26 49 23 58 23 104 0 27
-14 75 -26 106 -26 31 0 80 12 110 26 49 23 58 23 104 0 72 -38 172 -33 233
10 50 36 55 36 762 44 392 4 721 14 732 21 15 9 20 80 20 259 0 179 -5 250
-20 259 -11 7 -410 17 -887 21 -806 7 -870 10 -896 37 -44 43 -44 603 0 646
26 27 84 30 736 37 389 4 716 14 727 21 14 9 20 66 20 192 0 150 5 189 33 241
58 108 85 105 -746 110 -687 4 -744 6 -770 33 -44 43 -44 603 0 646 26 27 89
30 856 37 455 4 836 14 847 21 15 9 20 80 20 259 0 228 -2 248 -31 263 -42 23
-2462 22 -2501 0z"/>
<path d="M77868 20143 c-26 -16 -28 -106 -28 -1543 0 -1493 1 -1527 31 -1543
47 -26 708 -22 741 3 24 17 27 69 31 407 5 348 8 391 34 416 25 26 62 29 331
29 303 0 303 0 399 -95 53 -52 100 -115 106 -139 5 -25 41 -80 79 -123 39 -43
75 -97 81 -121 6 -23 42 -77 80 -120 38 -42 74 -98 81 -123 6 -26 53 -88 105
-139 94 -92 94 -92 446 -92 213 0 365 7 384 17 54 28 39 99 -40 187 -39 43
-76 99 -83 125 -6 27 -73 110 -159 199 -86 88 -153 172 -160 199 -6 25 -62 98
-123 163 -132 139 -136 171 -28 227 40 20 97 61 128 90 31 30 74 59 96 65 56
17 75 35 87 83 6 24 42 77 80 119 38 43 74 97 80 121 6 24 25 63 42 86 46 66
47 731 1 797 -16 23 -35 60 -42 82 -7 22 -25 58 -41 81 -16 23 -34 62 -41 88
-15 61 -176 222 -237 237 -26 7 -65 25 -88 41 -23 16 -59 34 -81 41 -22 7 -58
25 -80 40 -22 15 -75 32 -117 38 -43 5 -98 24 -123 42 -44 31 -69 32 -994 32
-616 -1 -960 -7 -978 -17z m1644 -585 c26 -18 84 -38 128 -44 69 -9 91 -22
171 -101 50 -49 95 -108 101 -130 6 -23 26 -63 45 -90 27 -38 35 -72 35 -153
0 -81 -8 -115 -35 -153 -19 -27 -39 -67 -45 -90 -13 -50 -178 -213 -232 -229
-22 -7 -62 -27 -88 -46 -46 -33 -66 -34 -467 -34 -382 0 -422 3 -448 29 -26
25 -29 72 -34 497 -5 493 1 543 65 570 20 8 197 13 396 12 337 -4 363 -6 408
-38z"/>
<path d="M82108 20143 c-37 -22 -36 -87 2 -141 16 -23 35 -60 42 -82 7 -22 25
-58 40 -80 15 -22 33 -58 40 -80 7 -22 25 -58 40 -80 15 -22 33 -58 40 -80 7
-22 27 -60 44 -85 18 -25 36 -79 40 -120 5 -41 21 -93 36 -115 15 -22 33 -58
40 -80 7 -22 25 -58 40 -80 15 -22 33 -58 40 -80 7 -22 25 -58 40 -80 15 -22
33 -58 40 -80 7 -22 27 -60 44 -85 18 -25 36 -79 40 -120 5 -41 21 -93 36
-115 15 -22 33 -58 40 -80 7 -22 25 -58 40 -80 15 -22 33 -58 40 -80 7 -22 25
-58 40 -80 15 -22 33 -58 40 -80 7 -22 25 -58 40 -80 15 -22 33 -58 40 -80 7
-22 25 -58 40 -80 15 -22 33 -58 40 -80 7 -22 25 -58 40 -80 15 -22 33 -58 40
-80 7 -22 25 -58 40 -80 15 -22 33 -58 40 -80 7 -22 27 -60 44 -85 18 -25 36
-79 41 -120 4 -41 19 -92 33 -114 14 -21 37 -67 50 -102 35 -92 96 -134 157
-108 40 16 56 15 97 -6 37 -19 100 -25 281 -25 232 0 232 0 326 92 86 84 95
99 102 174 4 45 22 103 40 128 18 25 38 64 45 86 7 22 25 58 40 80 15 22 33
58 40 80 7 22 25 58 40 80 15 22 33 58 40 80 7 22 25 58 40 80 15 22 31 74 36
115 4 41 22 95 40 120 17 25 37 63 44 85 7 22 25 58 40 80 15 22 33 58 40 80
7 22 25 58 40 80 15 22 33 58 40 80 7 22 25 58 40 80 15 22 33 58 40 80 7 22
25 58 40 80 15 22 33 58 40 80 7 22 25 58 40 80 15 22 31 74 36 115 4 41 22
95 40 120 17 25 37 63 44 85 7 22 25 58 40 80 15 22 33 58 40 80 7 22 25 58
40 80 15 22 33 58 40 80 7 22 25 58 40 80 15 22 33 58 40 80 7 22 25 58 40 80
15 22 33 58 40 80 7 22 26 59 42 82 17 24 30 49 30 57 0 7 15 41 33 75 55 103
47 106 -361 106 -355 0 -355 0 -412 -55 -31 -30 -61 -74 -67 -99 -6 -24 -24
-62 -40 -85 -16 -23 -34 -59 -41 -81 -7 -22 -25 -58 -40 -80 -15 -22 -33 -58
-40 -80 -7 -22 -25 -58 -40 -80 -15 -22 -31 -74 -36 -115 -4 -41 -22 -95 -40
-120 -17 -25 -37 -63 -44 -85 -7 -22 -25 -58 -40 -80 -15 -22 -33 -58 -40 -80
-7 -22 -25 -58 -40 -80 -15 -22 -33 -58 -40 -80 -7 -22 -25 -58 -40 -80 -15
-22 -33 -58 -40 -80 -7 -22 -25 -58 -40 -80 -15 -22 -33 -58 -40 -80 -7 -22
-26 -59 -42 -82 -17 -24 -30 -67 -30 -96 0 -50 -12 -83 -61 -166 -11 -18 -27
-50 -36 -72 -9 -22 -36 -76 -60 -120 -72 -135 -131 -104 -226 120 -9 22 -25
54 -36 72 -49 83 -61 116 -61 166 0 29 -13 72 -30 96 -16 23 -35 60 -42 82 -7
22 -25 58 -40 80 -15 22 -33 58 -40 80 -7 22 -27 60 -44 85 -18 25 -36 79 -40
120 -5 41 -21 93 -36 115 -15 22 -33 58 -40 80 -7 22 -25 58 -40 80 -15 22
-33 58 -40 80 -7 22 -25 58 -40 80 -15 22 -33 58 -40 80 -7 22 -27 60 -44 85
-18 25 -36 79 -40 120 -5 41 -21 93 -36 115 -15 22 -33 58 -40 80 -7 22 -25
58 -40 80 -15 22 -33 56 -39 76 -26 83 -31 84 -446 84 -233 -1 -398 -7 -415
-17z"/>
<path d="M87228 20143 c-26 -16 -28 -106 -28 -1543 0 -1493 1 -1527 31 -1543
17 -10 98 -17 180 -18 96 0 172 -9 213 -26 62 -24 95 -28 160 -20 18 2 52 -2
76 -8 35 -10 52 -4 92 36 48 49 48 49 48 1577 0 1495 -1 1529 -31 1545 -41 22
-703 22 -741 0z"/>
<path d="M94588 20143 c-26 -16 -28 -106 -28 -1543 0 -1203 4 -1529 20 -1539
11 -7 538 -17 1172 -21 1152 -8 1152 -8 1212 -46 73 -45 113 -38 184 31 52 51
52 51 52 296 0 179 -5 249 -20 258 -11 7 -410 17 -887 21 -806 7 -870 10 -896
37 -44 43 -44 603 0 646 26 27 84 30 736 37 389 4 715 13 725 20 10 6 21 47
25 90 5 44 23 99 42 126 41 57 52 279 15 303 -11 7 -356 17 -767 21 -690 7
-750 10 -776 37 -44 43 -44 603 0 646 26 27 89 30 856 37 455 4 836 14 847 21
15 9 20 80 20 259 0 228 -2 248 -31 263 -42 23 -2462 22 -2501 0z"/>
<path d="M26453 18258 c-172 -139 -1569 -1561 -1580 -1610 -8 -31 -78 -116
-202 -243 -226 -230 -231 -245 -121 -367 38 -43 75 -96 82 -118 7 -22 25 -58
40 -80 15 -22 33 -58 40 -80 7 -22 25 -58 40 -80 15 -22 33 -58 40 -80 7 -22
25 -58 40 -80 15 -22 33 -58 40 -80 7 -22 25 -58 40 -80 15 -22 33 -56 39 -76
28 -89 -68 -84 1563 -84 1006 0 1514 5 1535 17 40 21 40 85 1 141 -16 23 -35
60 -42 82 -7 22 -25 58 -40 80 -15 22 -33 58 -40 80 -7 22 -25 58 -40 80 -15
22 -33 58 -40 80 -7 22 -25 58 -40 80 -15 22 -33 58 -40 80 -7 22 -25 58 -40
80 -15 22 -33 58 -40 80 -7 22 -25 58 -40 80 -15 22 -33 58 -40 80 -7 22 -27
60 -44 85 -18 25 -36 79 -40 120 -5 41 -21 93 -36 115 -15 22 -33 58 -40 80
-7 22 -25 58 -40 80 -15 22 -33 58 -40 80 -7 22 -25 58 -40 80 -15 22 -33 58
-40 80 -7 22 -25 58 -40 80 -15 22 -33 58 -40 80 -7 22 -25 58 -40 80 -15 22
-33 58 -40 80 -7 22 -25 58 -40 80 -15 22 -33 58 -40 80 -7 22 -25 58 -40 80
-15 22 -33 58 -40 80 -7 22 -25 58 -40 80 -15 22 -33 58 -40 80 -7 22 -25 58
-40 80 -15 22 -33 58 -40 80 -7 22 -25 58 -40 80 -15 22 -33 58 -40 80 -7 22
-25 58 -40 80 -15 22 -33 56 -39 76 -31 100 -90 106 -196 22z"/>
<path d="M10400 17964 c-56 -36 -56 -36 -4122 -40 -4503 -5 -4133 5 -4071
-110 18 -34 33 -86 33 -115 0 -30 15 -76 34 -102 19 -26 38 -81 42 -122 5 -41
23 -95 40 -120 18 -25 36 -79 40 -120 5 -41 23 -95 40 -120 18 -25 36 -79 40
-120 5 -41 21 -93 36 -115 15 -22 33 -58 40 -80 7 -22 27 -60 44 -85 18 -25
36 -79 40 -120 5 -41 21 -93 36 -115 15 -22 33 -58 40 -80 7 -22 27 -60 44
-85 18 -25 36 -79 40 -120 5 -41 21 -93 36 -115 15 -22 33 -58 40 -80 7 -22
27 -60 44 -85 18 -25 36 -79 40 -120 5 -41 21 -93 36 -115 15 -22 33 -58 40
-80 7 -22 25 -58 40 -80 15 -22 33 -58 40 -80 7 -22 25 -58 40 -80 15 -22 33
-56 39 -76 28 -90 -198 -84 3009 -84 3207 0 2981 -6 3009 84 6 20 24 54 39 76
15 22 33 58 40 80 7 22 25 58 40 80 15 22 33 58 40 80 7 22 25 58 40 80 15 22
33 58 40 80 7 22 25 58 40 80 15 22 33 58 40 80 7 22 25 58 40 80 15 22 33 58
40 80 7 22 25 58 40 80 15 22 33 58 40 80 7 22 25 58 40 80 15 22 33 58 40 80
7 22 25 58 40 80 15 22 33 58 40 80 7 22 25 58 40 80 15 22 33 58 40 80 7 22
25 58 40 80 15 22 33 58 40 80 7 22 25 58 40 80 15 22 33 58 40 80 7 22 25 58
40 80 15 22 33 58 40 80 7 22 25 58 40 80 15 22 33 58 40 80 7 22 25 58 40 80
15 22 33 58 40 80 7 22 43 74 80 116 38 41 73 95 79 119 6 24 25 63 42 86 38
53 40 100 6 134 -34 34 -69 31 -135 -11z"/>
<path d="M32106 14216 c-13 -13 -29 -40 -35 -60 -6 -20 -24 -54 -39 -76 -15
-22 -33 -58 -40 -80 -7 -22 -61 -91 -120 -154 -59 -62 -112 -134 -119 -159 -6
-25 -60 -97 -120 -160 -59 -63 -114 -135 -120 -160 -7 -27 -74 -111 -160 -199
-89 -92 -152 -172 -159 -200 -9 -33 -123 -160 -361 -400 -243 -246 -352 -366
-360 -400 -15 -68 -334 -387 -400 -401 -35 -8 -137 -98 -361 -320 -213 -210
-327 -312 -360 -321 -31 -7 -117 -79 -240 -199 -112 -110 -210 -193 -236 -199
-24 -7 -96 -61 -160 -121 -64 -60 -135 -114 -158 -119 -23 -5 -95 -59 -160
-120 -65 -61 -136 -115 -158 -120 -22 -6 -76 -41 -120 -79 -44 -38 -98 -74
-120 -81 -22 -6 -76 -42 -120 -80 -44 -37 -98 -73 -120 -80 -22 -6 -76 -42
-120 -80 -44 -37 -98 -73 -120 -80 -22 -6 -76 -42 -120 -80 -44 -37 -98 -73
-120 -80 -22 -7 -58 -25 -81 -41 -23 -16 -59 -33 -82 -39 -22 -6 -75 -41 -119
-79 -43 -38 -96 -74 -118 -81 -22 -7 -58 -25 -80 -40 -22 -15 -58 -33 -80 -40
-22 -7 -58 -25 -80 -40 -22 -15 -58 -33 -80 -40 -22 -7 -58 -25 -80 -40 -22
-15 -58 -33 -80 -40 -22 -7 -58 -25 -80 -40 -22 -15 -58 -33 -80 -40 -22 -7
-58 -25 -80 -40 -22 -15 -58 -33 -80 -40 -22 -7 -58 -25 -80 -40 -22 -15 -58
-33 -80 -40 -22 -7 -58 -25 -80 -40 -22 -15 -58 -33 -80 -40 -22 -7 -58 -25
-80 -40 -22 -15 -58 -33 -80 -40 -22 -7 -58 -25 -80 -40 -22 -15 -58 -33 -80
-40 -22 -7 -60 -27 -85 -44 -25 -18 -79 -36 -120 -40 -41 -5 -93 -21 -115 -36
-22 -15 -58 -33 -80 -40 -22 -7 -59 -25 -82 -42 -23 -16 -73 -34 -112 -40 -38
-6 -102 -27 -142 -46 -220 -110 -249 -120 -327 -120 -51 0 -99 -11 -130 -30
-27 -17 -67 -35 -88 -42 -21 -7 -58 -26 -82 -42 -23 -17 -77 -35 -120 -40 -42
-6 -97 -25 -122 -42 -30 -21 -83 -35 -152 -40 -68 -5 -133 -22 -179 -46 -39
-21 -93 -38 -120 -38 -26 0 -83 -18 -127 -40 -53 -27 -105 -40 -160 -40 -55 0
-107 -13 -160 -40 -62 -32 -102 -40 -194 -40 -90 0 -135 -9 -201 -40 -66 -31
-112 -40 -200 -40 -89 0 -134 -9 -200 -40 -66 -31 -112 -40 -200 -40 -89 0
-134 -9 -200 -40 -77 -36 -107 -40 -286 -40 -179 0 -206 -4 -256 -36 -52 -33
-80 -36 -369 -44 -274 -7 -318 -12 -360 -39 -35 -23 -83 -33 -191 -38 -171 -8
-200 -20 -200 -83 0 -65 37 -80 203 -80 118 0 150 6 197 36 52 33 80 36 369
44 275 7 318 12 360 39 37 25 86 34 239 41 150 8 208 18 264 45 53 25 102 34
186 35 88 0 135 9 200 40 66 31 112 40 200 40 89 0 134 9 200 40 66 31 112 40
200 40 89 0 134 9 200 40 55 25 115 40 166 40 53 0 106 13 159 40 52 26 105
40 156 40 53 0 103 13 154 40 41 22 99 40 128 40 30 0 74 14 99 32 25 18 80
37 123 42 42 6 96 24 120 40 23 17 77 35 120 40 42 6 97 25 122 42 25 18 79
36 120 40 41 5 94 22 117 38 23 16 73 34 112 40 38 6 102 28 142 48 39 21 78
38 85 38 8 0 34 14 59 32 25 18 80 37 123 42 42 6 97 25 122 42 25 18 79 36
120 40 41 5 93 21 115 36 22 15 58 33 80 40 22 7 58 25 80 40 22 15 58 33 80
40 22 7 58 25 80 40 22 15 58 33 80 40 22 7 58 25 80 40 22 15 58 33 80 40 22
7 58 25 80 40 22 15 58 33 80 40 22 7 58 25 80 40 22 15 58 33 80 40 22 7 58
25 80 40 22 15 58 33 80 40 22 7 58 25 80 40 22 15 58 33 80 40 22 7 58 25 80
40 22 15 58 33 80 40 22 7 58 25 81 41 23 16 59 33 82 39 22 6 75 41 119 79
43 38 96 74 118 81 22 7 58 25 80 40 22 15 58 33 80 40 22 7 58 25 80 40 22
15 58 33 80 40 22 7 76 42 120 80 44 37 98 73 120 80 22 6 76 42 120 80 44 37
98 73 120 80 22 6 77 43 121 81 45 38 100 74 123 79 23 6 94 60 159 121 64 60
135 114 157 119 22 6 76 42 121 80 45 39 100 75 122 80 22 6 77 42 121 81 91
80 122 85 203 37 111 -65 189 8 129 120 -23 42 -25 59 -10 87 29 54 88 45 115
-17 21 -46 32 -53 109 -64 47 -7 106 -27 130 -44 65 -46 256 -46 322 1 62 45
299 51 377 10 70 -37 96 -22 105 62 11 93 34 119 108 119 92 0 162 18 172 45
12 31 -38 67 -95 67 -24 0 -69 12 -99 26 -70 34 -123 6 -166 -86 -27 -58 -31
-60 -116 -62 -129 -3 -156 34 -104 144 34 71 74 93 133 73 41 -15 63 -9 164
42 114 57 118 58 170 33 85 -41 409 -37 468 5 24 18 76 37 115 43 38 6 91 21
116 34 41 20 53 20 108 -5 59 -26 65 -26 123 -1 43 20 72 24 100 14 21 -8 57
-10 79 -4 22 6 57 5 77 -3 56 -20 62 -18 130 44 46 42 73 55 96 47 51 -16 147
-138 144 -184 -1 -22 -2 -46 -1 -53 3 -21 97 50 212 160 105 99 174 129 174
75 0 -14 -22 -50 -48 -80 -26 -31 -48 -61 -48 -69 0 -27 49 -52 84 -43 56 15
293 252 307 307 7 29 82 119 200 239 119 122 192 210 200 240 7 29 71 109 162
203 164 168 178 202 120 284 -17 23 -36 62 -42 86 -6 24 -42 78 -80 121 -38
42 -74 96 -80 120 -6 23 -41 77 -79 118 -37 42 -73 94 -80 116 -7 22 -25 58
-41 81 -16 23 -34 60 -40 84 -6 24 -41 78 -79 119 -37 42 -73 94 -80 116 -7
22 -25 58 -41 81 -16 23 -34 60 -40 84 -6 24 -41 78 -79 119 -37 42 -73 94
-80 116 -7 22 -25 58 -41 81 -16 23 -34 60 -40 84 -6 24 -42 79 -81 122 -38
43 -70 83 -70 89 0 38 -59 124 -104 152 -62 38 -93 40 -126 8z"/>
</g>
</svg>
