<svg xmlns="http://www.w3.org/2000/svg" width="389" height="122" viewBox="0 0 3890 1215" fill="currentColor" role="img" aria-label="Soar Appliance Repair">
<g transform="translate(0.000000,1215.000000) scale(0.062500,-0.062500)">
<path d="M2635 13483 c-38 -29 -70 -36 -199 -41 -131 -4 -163 -11 -211 -44
-31 -21 -66 -38 -78 -38 -12 0 -65 -36 -118 -80 -53 -44 -106 -80 -119 -80
-46 0 -133 -83 -150 -142 -9 -32 -48 -92 -88 -134 -62 -66 -72 -86 -72 -145 0
-46 -13 -87 -40 -126 -35 -52 -40 -76 -40 -200 0 -125 -5 -149 -40 -200 -61
-90 -61 -416 0 -506 37 -54 40 -73 40 -240 0 -166 3 -185 40 -240 27 -39 40
-80 40 -126 0 -59 10 -79 72 -145 40 -42 79 -100 87 -129 8 -30 48 -89 88
-132 41 -43 73 -93 73 -113 0 -25 150 -185 512 -547 317 -316 517 -528 523
-554 5 -22 27 -66 47 -97 21 -30 38 -67 38 -81 0 -13 18 -49 40 -79 26 -36 40
-75 40 -116 0 -39 14 -83 40 -121 39 -57 40 -66 40 -348 0 -283 -1 -290 -40
-343 -22 -30 -40 -67 -40 -83 0 -41 -108 -155 -158 -168 -23 -5 -64 -25 -90
-43 -29 -21 -73 -34 -112 -34 -39 0 -83 13 -112 34 -26 18 -67 38 -90 43 -50
13 -158 127 -158 168 0 16 -18 53 -40 83 -39 53 -40 59 -40 364 0 310 0 310
-60 365 -60 55 -60 55 -421 55 -259 0 -366 -5 -380 -19 -13 -14 -19 -102 -19
-297 0 -270 1 -279 40 -337 35 -51 40 -75 40 -200 0 -124 5 -148 40 -200 25
-37 40 -81 40 -120 0 -38 15 -82 40 -120 22 -32 40 -73 40 -90 0 -40 342 -377
381 -377 15 0 53 -17 83 -38 31 -20 90 -41 131 -45 41 -5 96 -24 122 -43 74
-52 732 -52 806 0 26 19 81 38 122 43 41 4 100 25 131 45 30 21 67 38 82 38
39 0 302 258 302 296 0 18 18 59 40 91 22 33 40 69 40 80 0 12 18 48 40 80 25
38 40 82 40 120 0 39 15 83 40 120 40 59 40 59 40 613 0 554 0 554 -40 613
-25 37 -40 81 -40 120 0 38 -15 82 -40 120 -22 32 -40 68 -40 80 0 11 -18 47
-40 80 -22 32 -40 72 -40 89 0 17 -67 97 -152 183 -106 105 -157 169 -168 209
-12 45 -110 151 -440 480 -323 321 -427 434 -439 477 -8 31 -48 91 -88 134
-40 43 -73 91 -73 107 0 16 -18 54 -40 84 -36 48 -40 70 -40 196 0 125 -5 149
-40 201 -22 32 -40 80 -40 107 0 27 18 75 40 107 33 48 40 79 40 164 0 98 4
109 58 169 32 36 77 69 100 75 23 5 64 25 90 43 67 47 235 48 303 2 26 -18 69
-39 95 -48 32 -11 53 -32 63 -64 9 -26 33 -73 53 -104 21 -30 38 -67 38 -81 0
-13 18 -49 40 -79 38 -52 40 -64 40 -280 0 -154 6 -232 19 -245 27 -27 735
-27 762 0 14 14 19 120 19 377 0 355 0 358 -40 417 -25 37 -40 81 -40 120 0
38 -15 82 -40 120 -22 32 -40 68 -40 80 0 11 -18 47 -40 80 -22 32 -40 73 -40
90 0 20 -67 98 -175 203 -166 162 -178 170 -254 177 -43 4 -100 23 -125 41
-40 28 -76 34 -241 39 -172 4 -200 9 -243 41 -60 45 -109 44 -167 -1z"/>
<path d="M5344 13399 c-30 -21 -65 -39 -76 -39 -12 0 -48 -18 -81 -40 -32 -22
-70 -40 -85 -40 -39 0 -302 -258 -302 -296 0 -18 -18 -59 -40 -91 -22 -33 -40
-69 -40 -80 0 -12 -18 -48 -40 -80 -22 -33 -40 -69 -40 -80 0 -12 -18 -48 -40
-80 -40 -59 -40 -59 -40 -2213 0 -2154 0 -2154 40 -2213 25 -37 40 -81 40
-120 0 -38 15 -82 40 -120 22 -32 40 -71 40 -87 0 -15 36 -67 80 -116 44 -49
80 -101 80 -117 0 -36 30 -67 66 -67 15 0 70 -36 123 -80 53 -44 106 -80 118
-80 12 0 47 -17 77 -38 31 -20 90 -41 131 -45 41 -5 96 -24 122 -43 45 -32 66
-34 402 -34 352 0 355 0 414 40 32 22 68 40 80 40 11 0 47 18 80 40 32 22 68
40 80 40 11 0 47 18 80 40 32 22 70 40 84 40 38 0 143 104 143 142 0 19 36 73
80 122 44 49 80 101 80 116 0 16 18 55 40 87 32 48 40 79 40 160 0 82 8 113
40 160 40 59 40 59 40 2173 0 2114 0 2114 -40 2173 -22 32 -40 68 -40 80 0 11
-18 47 -40 80 -22 32 -40 68 -40 80 0 11 -18 47 -40 80 -22 32 -40 73 -40 91
0 38 -263 296 -302 296 -15 0 -53 18 -85 40 -33 22 -69 40 -80 40 -12 0 -48
18 -80 40 -59 40 -59 40 -536 39 -477 -1 -477 -1 -533 -40z m655 -806 c25 -18
57 -33 70 -33 31 0 146 -96 205 -171 46 -57 46 -57 46 -2028 0 -1971 0 -1971
-40 -2025 -22 -30 -40 -67 -40 -84 0 -16 -28 -60 -63 -97 -63 -67 -63 -67
-297 -67 -234 0 -234 0 -297 67 -35 37 -63 81 -63 97 0 17 -18 54 -40 84 -40
54 -40 54 -40 2025 0 1971 0 1971 46 2028 59 75 174 171 205 171 13 0 43 13
67 30 85 59 160 60 241 3z"/>
<path d="M8955 13403 c-41 -32 -67 -35 -280 -40 -131 -3 -244 -13 -255 -22
-14 -12 -20 -81 -20 -243 0 -215 -2 -230 -40 -285 -38 -56 -40 -71 -40 -280 0
-210 -2 -225 -40 -280 -38 -56 -40 -71 -40 -280 0 -210 -2 -225 -40 -280 -38
-56 -40 -71 -40 -280 0 -210 -2 -225 -40 -280 -38 -56 -40 -71 -40 -280 0
-210 -2 -225 -40 -280 -37 -55 -40 -74 -40 -240 0 -167 -3 -186 -40 -240 -39
-57 -40 -68 -40 -320 0 -253 -1 -264 -40 -320 -37 -55 -40 -74 -40 -240 0
-167 -3 -186 -40 -240 -38 -56 -40 -71 -40 -280 0 -210 -2 -225 -40 -280 -37
-55 -40 -74 -40 -240 0 -167 -3 -186 -40 -240 -37 -55 -40 -73 -40 -242 0
-168 -3 -187 -40 -241 -43 -64 -51 -120 -21 -151 14 -14 121 -19 380 -19 361
0 361 0 421 55 60 55 60 55 60 324 0 261 1 271 40 328 37 55 40 74 40 241 0
265 -44 243 492 249 498 5 522 1 546 -84 8 -31 30 -76 49 -99 30 -39 33 -63
33 -305 0 -254 1 -265 40 -322 35 -52 40 -75 40 -204 0 -91 7 -152 19 -164 28
-27 814 -27 842 0 38 38 24 247 -21 314 -37 54 -40 73 -40 240 0 166 -3 185
-40 240 -38 55 -40 70 -40 280 0 209 -2 224 -40 280 -38 55 -40 70 -40 280 0
209 -2 224 -40 280 -38 55 -40 70 -40 280 0 209 -2 224 -40 280 -37 54 -40 73
-40 240 0 166 -3 185 -40 240 -38 55 -40 70 -40 280 0 209 -2 224 -40 280 -37
54 -40 73 -40 240 0 166 -3 185 -40 240 -38 55 -40 70 -40 280 0 209 -2 224
-40 280 -37 54 -40 73 -40 240 0 166 -3 185 -40 240 -38 55 -40 70 -40 280 0
209 -2 224 -40 280 -37 54 -40 72 -40 243 0 186 0 186 -61 245 -70 68 -113 74
-181 23 -39 -29 -70 -36 -158 -36 -88 0 -119 7 -158 36 -61 45 -109 44 -167
-1z m75 -1300 c6 -14 10 -51 10 -81 0 -32 15 -76 36 -104 33 -45 36 -68 41
-322 5 -258 7 -276 44 -330 37 -54 39 -71 39 -279 0 -209 2 -224 40 -280 39
-56 40 -67 40 -320 0 -252 1 -263 40 -320 39 -57 40 -67 40 -325 0 -217 4
-270 24 -286 41 -34 29 -91 -28 -131 -50 -36 -63 -37 -361 -37 -359 0 -355 -2
-355 151 0 69 9 103 40 148 39 58 40 66 40 360 0 295 1 303 40 360 39 57 40
68 40 320 0 253 1 264 40 320 38 56 40 71 40 279 0 211 2 223 41 280 41 58 42
65 40 314 -1 140 3 267 8 281 13 34 49 35 61 2z"/>
<path d="M19195 13403 c-41 -32 -67 -35 -280 -40 -131 -3 -244 -13 -255 -22
-16 -13 -20 -499 -20 -2376 0 -2359 0 -2359 40 -2418 40 -58 40 -58 40 -469 0
-385 -2 -412 -32 -450 -18 -23 -32 -53 -32 -68 0 -15 14 -45 32 -68 20 -26 32
-65 32 -107 0 -37 9 -75 19 -86 27 -27 735 -27 762 0 14 15 19 287 19 1126 0
1106 0 1106 37 1161 40 60 105 79 138 39 36 -43 326 -35 391 11 41 30 76 37
201 42 128 4 160 11 208 44 31 21 66 38 78 38 11 0 47 18 80 40 32 22 70 40
85 40 39 0 302 258 302 296 0 18 18 59 40 91 22 33 40 69 40 80 0 12 18 48 40
80 32 48 40 79 40 160 0 82 8 113 40 160 40 59 40 59 40 813 0 754 0 754 -40
813 -32 47 -40 78 -40 160 0 81 -8 112 -40 160 -22 32 -40 68 -40 80 0 11 -18
47 -40 80 -22 32 -40 73 -40 91 0 38 -263 296 -302 296 -15 0 -53 18 -85 40
-33 22 -69 40 -80 40 -12 0 -48 18 -79 39 -58 40 -58 40 -571 44 -503 5 -513
6 -561 41 -61 45 -109 44 -167 -1z m879 -887 c28 -20 62 -36 75 -36 31 0 146
-96 205 -171 46 -57 46 -57 46 -748 0 -691 0 -691 -40 -745 -22 -30 -40 -67
-40 -83 0 -41 -108 -155 -158 -168 -23 -5 -64 -25 -90 -43 -42 -30 -71 -34
-237 -34 -189 0 -189 0 -252 67 -63 68 -63 68 -63 964 0 896 0 896 51 954 71
80 93 87 285 83 145 -3 175 -9 218 -40z"/>
<path d="M22955 13403 c-44 -34 -56 -35 -514 -35 -425 0 -473 3 -501 28 -45
41 -92 34 -139 -21 -41 -49 -41 -49 -41 -3053 0 -2315 4 -3008 19 -3023 28
-27 814 -27 842 0 14 15 19 295 19 1165 0 964 4 1151 23 1177 32 45 145 42
211 -5 73 -52 259 -52 332 0 41 30 76 37 201 42 128 4 160 11 208 44 31 21 66
38 78 38 12 0 65 36 118 80 53 44 108 80 123 80 36 0 66 31 66 67 0 16 36 68
80 117 44 49 80 101 80 116 0 16 18 55 40 87 22 33 40 69 40 80 0 12 18 48 40
80 37 55 40 74 40 240 0 167 3 186 40 240 40 59 40 59 40 573 0 514 0 514 -40
573 -37 54 -40 73 -40 240 0 166 -3 185 -40 240 -22 32 -40 68 -40 80 0 11
-18 47 -40 80 -22 32 -40 73 -40 90 0 40 -421 457 -461 457 -15 0 -53 17 -84
39 -51 34 -77 39 -251 44 -171 4 -199 9 -242 41 -60 45 -109 44 -167 -1z m236
-883 c26 -18 69 -39 95 -48 34 -12 53 -33 68 -77 11 -33 35 -79 53 -102 21
-26 33 -65 33 -104 0 -41 14 -84 40 -122 22 -32 40 -80 40 -107 0 -27 -18 -75
-40 -107 -48 -72 -55 -194 -13 -240 23 -25 23 -37 5 -92 -19 -57 -17 -66 14
-106 53 -67 50 -281 -6 -362 -32 -48 -40 -79 -40 -162 0 -79 -7 -112 -33 -144
-18 -23 -42 -69 -53 -102 -15 -44 -34 -65 -68 -77 -26 -9 -69 -30 -95 -48 -70
-48 -493 -49 -528 -1 -32 43 -34 1956 -3 1996 32 40 56 44 276 40 178 -3 215
-8 255 -35z"/>
<path d="M28160 13408 c-48 -37 -116 -41 -144 -8 -27 32 -78 30 -116 -4 -25
-22 -71 -30 -233 -36 -225 -9 -247 -22 -180 -106 33 -42 33 -42 33 -2989 0
-2270 4 -2951 19 -2966 28 -27 814 -27 842 0 15 15 19 708 19 3021 0 3002 0
3002 -61 3061 -68 67 -118 74 -179 27z"/>
<path d="M36384 13399 c-30 -21 -65 -39 -76 -39 -12 0 -48 -18 -81 -40 -32
-22 -70 -40 -85 -40 -39 0 -302 -258 -302 -296 0 -18 -18 -59 -40 -91 -22 -33
-40 -69 -40 -80 0 -12 -18 -48 -40 -80 -25 -38 -40 -82 -40 -120 0 -39 -15
-83 -40 -120 -40 -59 -40 -59 -40 -2173 0 -2114 0 -2114 40 -2173 25 -37 40
-81 40 -120 0 -38 15 -82 40 -120 22 -32 40 -68 40 -80 0 -11 18 -47 40 -80
22 -32 40 -73 40 -91 0 -38 263 -296 302 -296 15 0 53 -18 85 -40 33 -22 69
-40 80 -40 12 0 48 -18 80 -40 59 -40 59 -40 493 -40 434 0 434 0 493 40 32
22 68 40 80 40 11 0 47 18 80 40 32 22 70 40 84 40 46 0 285 238 303 302 9 32
48 92 88 134 62 66 72 86 72 145 0 46 13 87 40 126 40 59 40 59 40 600 0 542
0 542 40 600 44 65 56 199 21 234 -28 27 -814 27 -842 0 -14 -14 -19 -162 -19
-565 0 -546 0 -546 -40 -600 -22 -30 -40 -67 -40 -83 0 -41 -108 -155 -158
-168 -23 -5 -64 -25 -90 -43 -65 -46 -161 -45 -226 2 -28 20 -62 36 -75 36
-31 0 -146 96 -205 171 -46 57 -46 57 -46 2069 0 2012 0 2012 44 2066 71 88
217 224 257 240 49 18 230 18 280 -1 60 -23 201 -175 217 -235 9 -29 30 -73
49 -96 32 -40 33 -61 33 -470 0 -328 5 -432 20 -445 13 -10 145 -19 335 -22
272 -4 318 -9 345 -33 34 -31 77 -37 92 -12 6 9 9 283 9 610 -2 593 -2 593
-41 651 -25 37 -40 81 -40 120 0 38 -15 82 -40 120 -22 32 -40 73 -40 90 0 20
-81 112 -214 242 -208 205 -217 211 -294 218 -46 5 -101 23 -128 42 -47 34
-63 35 -486 34 -438 -1 -438 -1 -494 -40z"/>
<path d="M11001 13375 c-41 -49 -41 -49 -41 -3017 0 -2968 0 -2968 60 -3023
60 -55 60 -55 421 -55 259 0 366 5 380 19 14 15 19 313 19 1245 0 1033 4 1231
23 1257 35 49 459 47 529 -3 26 -18 67 -38 90 -43 50 -13 158 -127 158 -168 0
-16 18 -53 40 -83 40 -54 40 -54 40 -1036 0 -982 0 -982 40 -1041 22 -32 40
-70 40 -84 0 -59 28 -63 440 -63 291 0 407 5 421 19 35 35 23 169 -21 234 -40
58 -40 58 -40 960 0 901 0 901 -40 960 -32 47 -40 78 -40 160 0 81 -8 112 -40
160 -22 32 -40 68 -40 80 0 11 -18 47 -40 80 -22 32 -40 72 -40 88 0 16 -48
79 -107 140 -167 171 -169 152 34 351 86 86 143 155 152 188 8 28 29 72 48 98
25 36 33 71 33 149 0 82 8 113 40 160 40 59 40 59 40 653 0 594 0 594 -40 653
-32 47 -40 78 -40 160 0 81 -8 112 -40 160 -22 32 -40 68 -40 80 0 11 -18 47
-40 80 -22 32 -40 73 -40 90 0 38 -184 217 -223 217 -14 0 -52 18 -84 40 -33
22 -69 40 -80 40 -12 0 -48 18 -80 39 -58 40 -58 40 -650 44 -537 5 -595 8
-623 33 -17 15 -44 28 -60 28 -16 0 -43 -13 -60 -28 -25 -22 -61 -28 -180 -28
-119 0 -155 6 -180 28 -45 41 -92 34 -139 -21z m1391 -857 c26 -18 67 -38 90
-43 50 -13 158 -127 158 -168 0 -16 18 -53 40 -83 40 -54 40 -54 40 -585 0
-514 -1 -532 -33 -573 -19 -23 -40 -67 -49 -96 -16 -60 -157 -212 -217 -235
-22 -8 -117 -15 -212 -15 -137 0 -177 -5 -194 -25 -33 -40 -98 -21 -138 39
-37 55 -37 55 -37 868 0 813 0 813 51 871 71 80 93 87 285 83 141 -3 176 -9
216 -38z"/>
<path d="M40939 13396 c-26 -26 -104 -28 -1102 -32 -753 -3 -1081 -10 -1096
-22 -30 -25 -32 -6013 -2 -6043 28 -28 2334 -28 2362 0 29 29 27 818 -2 843
-14 11 -249 18 -737 22 -688 4 -718 5 -739 35 -34 46 -34 1716 0 1762 21 29
49 31 579 36 370 3 563 10 577 22 16 13 21 108 21 421 0 313 -5 408 -21 421
-14 12 -207 19 -577 22 -530 5 -558 7 -579 36 -34 46 -34 1556 0 1602 21 30
51 31 739 35 488 4 723 11 737 22 16 14 21 101 21 383 0 365 0 365 -41 414
-47 55 -98 63 -140 21z"/>
<path d="M16099 13341 c-13 -13 -19 -91 -19 -244 0 -214 -2 -229 -40 -284 -38
-56 -40 -71 -40 -280 0 -210 -2 -225 -40 -280 -38 -56 -40 -71 -40 -280 0
-210 -2 -225 -40 -280 -38 -56 -40 -71 -40 -280 0 -210 -2 -225 -40 -280 -37
-55 -40 -74 -40 -240 0 -167 -3 -186 -40 -240 -39 -57 -40 -68 -40 -320 0
-253 -1 -264 -40 -320 -38 -56 -40 -71 -40 -280 0 -210 -2 -225 -40 -280 -38
-56 -40 -71 -40 -280 0 -210 -2 -225 -40 -280 -38 -56 -40 -71 -40 -280 0
-210 -2 -225 -40 -280 -37 -55 -40 -74 -40 -240 0 -167 -3 -186 -40 -240 -35
-52 -40 -76 -40 -202 0 -126 -5 -150 -40 -201 -43 -64 -51 -120 -21 -151 28
-27 814 -27 842 0 13 13 19 91 19 244 0 214 2 229 40 284 39 57 40 68 40 321
0 201 5 269 23 293 35 48 1039 48 1074 0 18 -24 23 -98 23 -333 0 -295 1 -303
40 -361 37 -54 40 -72 40 -244 0 -122 6 -191 19 -204 28 -27 814 -27 842 0 12
13 19 76 19 177 0 142 -4 164 -40 217 -38 55 -40 70 -40 280 0 209 -2 224 -40
280 -38 55 -40 70 -40 280 0 209 -2 224 -40 280 -37 54 -40 73 -40 240 0 166
-3 185 -40 240 -37 54 -40 73 -40 240 0 166 -3 185 -40 240 -38 55 -40 70 -40
280 0 209 -2 224 -40 280 -37 54 -40 73 -40 240 0 166 -3 185 -40 240 -37 54
-40 73 -40 240 0 166 -3 185 -40 240 -39 56 -40 67 -40 320 0 252 -1 263 -40
320 -37 54 -40 73 -40 240 0 166 -3 185 -40 240 -37 54 -40 73 -40 240 0 166
-3 185 -40 240 -37 54 -40 72 -40 244 0 122 -6 191 -19 204 -28 27 -1214 27
-1242 0z m615 -1257 c6 -24 26 -64 45 -89 30 -42 33 -71 38 -359 5 -301 6
-315 44 -370 37 -54 39 -71 39 -279 0 -209 2 -224 40 -280 38 -55 40 -70 40
-280 0 -209 2 -224 40 -280 39 -57 40 -65 40 -362 0 -300 0 -304 41 -363 34
-48 38 -65 24 -92 -25 -46 -82 -53 -430 -47 -358 6 -355 4 -355 156 0 69 9
103 40 148 39 57 40 68 40 320 0 253 1 264 40 320 39 57 40 68 40 320 0 253 1
264 40 320 38 56 40 71 40 279 0 211 2 223 41 280 41 59 41 62 40 354 -1 162
3 307 8 321 16 42 53 32 65 -17z"/>
<path d="M24819 13341 c-28 -28 -28 -6014 0 -6042 28 -28 2254 -28 2282 0 14
14 19 122 19 385 0 511 51 476 -682 476 -488 0 -565 -3 -583 -25 -33 -40 -98
-21 -138 39 -37 55 -37 55 -37 2546 0 2492 0 2492 33 2534 18 23 31 55 28 70
-5 26 -42 28 -454 32 -335 3 -453 0 -468 -15z"/>
<path d="M29699 13341 c-13 -13 -19 -91 -19 -244 0 -214 -2 -229 -40 -284 -38
-56 -40 -71 -40 -280 0 -210 -2 -225 -40 -280 -37 -55 -40 -74 -40 -240 0
-167 -3 -186 -40 -240 -38 -56 -40 -71 -40 -280 0 -210 -2 -225 -40 -280 -38
-56 -40 -71 -40 -280 0 -210 -2 -225 -40 -280 -37 -55 -40 -74 -40 -240 0
-167 -3 -186 -40 -240 -37 -55 -40 -74 -40 -240 0 -167 -3 -186 -40 -240 -37
-55 -40 -74 -40 -240 0 -167 -3 -186 -40 -240 -38 -56 -40 -71 -40 -280 0
-210 -2 -225 -40 -280 -37 -55 -40 -74 -40 -240 0 -167 -3 -186 -40 -240 -38
-56 -40 -71 -40 -280 0 -210 -2 -225 -40 -280 -45 -67 -59 -276 -21 -314 27
-27 735 -27 762 0 10 11 19 49 19 84 0 44 14 85 40 124 38 56 40 71 40 280 0
210 2 225 40 280 35 52 40 76 40 201 0 220 -41 204 520 204 551 0 520 10 520
-164 0 -82 8 -113 40 -161 38 -55 40 -70 40 -280 0 -209 2 -224 40 -280 33
-48 40 -78 40 -164 0 -60 8 -113 19 -124 28 -27 814 -27 842 0 30 31 22 87
-21 151 -38 55 -40 70 -40 281 0 211 -2 226 -40 282 -37 54 -40 73 -40 240 0
166 -3 185 -40 240 -38 55 -40 70 -40 280 0 209 -2 224 -40 280 -38 55 -40 70
-40 280 0 209 -2 224 -40 280 -37 54 -40 73 -40 240 0 166 -3 185 -40 240 -38
55 -40 70 -40 280 0 209 -2 224 -40 280 -38 55 -40 70 -40 280 0 209 -2 224
-40 280 -38 55 -40 70 -40 280 0 209 -2 224 -40 280 -37 54 -40 73 -40 240 0
166 -3 185 -40 240 -39 56 -40 67 -40 320 0 252 -1 263 -40 320 -37 54 -40 72
-40 244 0 122 -6 191 -19 204 -14 14 -174 19 -621 19 -447 0 -607 -5 -621 -19z
m611 -1158 c6 -14 10 -87 10 -161 0 -115 5 -143 36 -184 33 -45 36 -68 41
-322 5 -258 7 -276 44 -330 37 -54 39 -71 39 -279 0 -209 2 -224 40 -280 39
-56 40 -67 40 -320 0 -252 1 -263 40 -320 39 -57 40 -66 40 -348 0 -224 -5
-296 -23 -320 -21 -29 -44 -31 -337 -31 -382 0 -360 -14 -360 231 0 154 4 175
40 228 39 57 40 68 40 320 0 253 1 264 40 320 39 57 40 68 40 320 0 253 1 264
40 320 39 57 40 68 40 321 0 254 1 263 40 316 38 52 40 65 40 274 0 229 6 270
40 270 11 0 25 -11 30 -25z"/>
<path d="M32259 13341 c-28 -28 -28 -6014 0 -6042 27 -27 735 -27 762 0 15 15
19 476 19 1980 -1 1922 -1 1962 -32 2001 -43 55 -40 121 7 169 82 82 105 49
105 -147 0 -115 5 -143 36 -184 28 -37 36 -73 39 -161 2 -91 11 -123 44 -172
33 -48 41 -77 41 -159 0 -80 8 -111 40 -159 32 -47 40 -78 40 -160 0 -81 8
-112 40 -160 35 -51 40 -75 40 -200 0 -124 5 -148 40 -200 32 -47 40 -78 40
-160 0 -81 8 -112 40 -160 32 -47 40 -78 40 -160 0 -81 8 -112 40 -160 32 -47
40 -78 40 -160 0 -81 8 -112 40 -160 32 -47 40 -78 40 -160 0 -81 8 -112 40
-160 32 -47 40 -78 40 -160 0 -81 8 -112 40 -160 32 -47 40 -78 40 -160 0 -81
8 -112 40 -160 32 -47 40 -78 40 -160 0 -81 8 -112 40 -160 26 -39 40 -80 40
-124 0 -35 9 -73 19 -84 28 -27 894 -27 922 0 30 31 27 6018 -3 6043 -15 13
-142 17 -428 14 -448 -4 -458 -7 -383 -102 33 -42 33 -47 33 -1727 0 -926 -4
-1696 -10 -1710 -25 -66 -70 -14 -70 81 0 32 -15 76 -36 104 -31 41 -37 71
-40 202 -3 134 -8 161 -44 212 -32 47 -40 77 -40 158 0 80 -8 111 -40 159 -32
47 -40 78 -40 160 0 81 -8 112 -40 160 -32 47 -40 78 -40 160 0 81 -8 112 -40
160 -35 51 -40 75 -40 200 0 124 -5 148 -40 200 -32 47 -40 78 -40 160 0 81
-8 112 -40 160 -32 47 -40 78 -40 160 0 81 -8 112 -40 160 -32 47 -40 78 -40
160 0 81 -8 112 -40 160 -32 47 -40 78 -40 160 0 81 -8 112 -40 160 -33 48
-40 78 -40 164 0 60 -8 113 -19 124 -14 14 -157 19 -541 19 -384 0 -527 -5
-541 -19z"/>
<path d="M42819 13341 c-28 -28 -28 -6014 0 -6042 28 -27 814 -27 842 0 14 14
19 135 19 444 0 426 0 426 40 484 40 59 40 59 40 613 0 554 0 554 -40 613 -67
99 -58 225 23 312 63 67 63 67 252 67 166 0 195 -4 237 -34 26 -18 67 -38 90
-43 50 -13 158 -127 158 -168 0 -16 18 -53 40 -83 40 -54 40 -54 40 -916 0
-862 0 -862 40 -921 35 -52 40 -75 40 -204 0 -91 7 -152 19 -164 28 -27 814
-27 842 0 38 38 24 247 -21 314 -40 58 -40 58 -40 1000 0 941 0 941 -40 1000
-25 37 -40 81 -40 120 0 38 -15 82 -40 120 -22 32 -40 73 -40 90 0 47 -255
290 -318 302 -80 16 -62 48 134 240 112 110 184 193 184 212 0 17 18 58 40 90
25 38 40 82 40 120 0 39 15 83 40 120 40 59 40 59 40 733 0 674 0 674 -40 733
-25 37 -40 81 -40 120 0 38 -15 82 -40 120 -22 32 -40 68 -40 80 0 11 -18 47
-40 80 -22 32 -40 73 -40 90 0 38 -184 217 -223 217 -14 0 -52 18 -84 40 -33
22 -69 40 -80 40 -12 0 -48 18 -80 40 -59 40 -59 40 -977 40 -692 0 -922 -5
-937 -19z m1415 -825 c28 -20 62 -36 75 -36 31 0 146 -96 205 -171 46 -57 46
-57 46 -668 0 -611 0 -611 -40 -665 -22 -30 -40 -67 -40 -84 0 -16 -27 -58
-61 -94 -51 -55 -73 -67 -140 -74 -43 -5 -101 -24 -127 -42 -41 -29 -71 -34
-197 -34 -149 0 -149 0 -212 67 -63 68 -63 68 -63 884 0 816 0 816 51 874 71
80 93 87 285 83 145 -3 175 -9 218 -40z"/>
<path d="M46099 13341 c-28 -28 -28 -6014 0 -6042 28 -28 2254 -28 2282 0 13
14 19 100 19 286 0 258 1 268 40 325 55 82 51 121 -21 191 -60 59 -60 59 -617
59 -552 0 -558 0 -608 -36 -67 -48 -161 -48 -230 1 -57 40 -69 97 -28 131 39
32 36 1129 -3 1172 -23 25 -24 37 -8 80 14 39 14 63 0 103 -16 44 -15 56 8 82
33 37 35 104 3 131 -41 34 -29 91 28 131 52 37 56 37 603 42 366 3 558 10 572
22 29 24 31 813 2 842 -14 14 -170 19 -599 19 -319 0 -591 4 -605 10 -32 12
-32 60 -1 86 13 11 24 40 24 64 0 24 -11 53 -24 64 -13 11 -24 36 -24 56 0 20
11 45 24 56 20 17 24 79 24 379 0 356 0 359 -40 418 -37 53 -40 73 -40 231 0
173 0 173 63 241 63 67 63 67 739 72 458 3 683 10 697 21 29 24 31 734 2 763
-28 28 -2254 28 -2282 0z"/>
<path d="M48899 13341 c-30 -31 -22 -87 21 -151 40 -58 40 -58 40 -2965 0
-2239 4 -2911 19 -2926 27 -27 735 -27 762 0 14 15 19 286 19 1125 0 929 4
1111 23 1137 20 28 47 31 299 36 254 5 280 8 325 40 40 29 76 36 200 41 128 4
160 11 208 44 31 21 69 38 84 38 40 0 461 417 461 457 0 17 18 58 40 90 32 48
40 79 40 160 0 82 8 113 40 160 40 59 40 59 40 893 0 834 0 834 -40 893 -25
37 -40 81 -40 120 0 38 -15 82 -40 120 -22 32 -40 68 -40 80 0 11 -18 47 -40
80 -22 32 -40 73 -40 91 0 38 -263 296 -302 296 -15 0 -53 18 -85 40 -33 22
-69 40 -80 40 -12 0 -48 18 -80 40 -59 40 -59 40 -937 40 -661 0 -882 -5 -897
-19z m1415 -825 c28 -20 62 -36 75 -36 31 0 146 -96 205 -171 46 -57 46 -57
46 -789 0 -832 18 -738 -183 -932 -112 -108 -130 -113 -384 -105 -187 5 -187
5 -250 72 -63 68 -63 68 -63 322 0 230 3 259 32 295 18 23 32 53 32 68 0 15
-14 45 -32 68 -31 38 -32 65 -32 574 0 533 0 533 51 591 71 80 93 87 285 83
145 -3 175 -9 218 -40z"/>
<path d="M52419 13341 c-11 -11 -19 -64 -19 -124 0 -86 -7 -116 -40 -164 -38
-56 -40 -71 -40 -280 0 -210 -2 -225 -40 -280 -38 -56 -40 -71 -40 -280 0
-210 -2 -225 -40 -280 -38 -56 -40 -71 -40 -280 0 -210 -2 -225 -40 -280 -38
-56 -40 -71 -40 -280 0 -210 -2 -225 -40 -280 -38 -56 -40 -71 -40 -280 0
-210 -2 -225 -40 -280 -38 -56 -40 -71 -40 -280 0 -210 -2 -225 -40 -280 -37
-55 -40 -74 -40 -240 0 -167 -3 -186 -40 -240 -37 -55 -40 -74 -40 -240 0
-167 -3 -186 -40 -240 -37 -55 -40 -74 -40 -240 0 -167 -3 -186 -40 -240 -38
-56 -40 -71 -40 -280 0 -210 -2 -225 -40 -280 -36 -53 -40 -75 -40 -217 0
-101 7 -164 19 -177 27 -27 735 -27 762 0 11 11 19 64 19 124 0 86 7 116 40
164 39 57 40 68 40 320 0 253 1 264 40 320 26 38 40 82 40 121 0 128 -15 124
520 124 561 0 520 16 520 -204 0 -125 5 -149 40 -201 38 -55 40 -70 40 -280 0
-209 2 -224 40 -280 26 -39 40 -80 40 -124 0 -35 9 -73 19 -84 28 -27 814 -27
842 0 30 31 22 87 -21 151 -37 54 -40 73 -40 241 0 169 -3 187 -40 242 -37 54
-40 73 -40 240 0 166 -3 185 -40 240 -38 55 -40 70 -40 280 0 209 -2 224 -40
280 -37 54 -40 73 -40 240 0 166 -3 185 -40 240 -38 55 -40 70 -40 280 0 209
-2 224 -40 280 -38 55 -40 70 -40 280 0 209 -2 224 -40 280 -38 55 -40 70 -40
280 0 209 -2 224 -40 280 -37 54 -40 73 -40 240 0 166 -3 185 -40 240 -37 54
-40 73 -40 240 0 166 -3 185 -40 240 -38 55 -40 70 -40 280 0 209 -2 224 -40
280 -38 55 -40 70 -40 280 0 209 -2 224 -40 280 -22 32 -40 70 -40 84 0 61
-22 63 -600 63 -415 0 -567 -5 -581 -19z m613 -1244 c5 -17 8 -106 6 -199 -3
-160 -1 -173 40 -230 41 -61 42 -66 42 -322 0 -251 1 -262 40 -319 38 -55 40
-70 40 -280 0 -209 2 -224 40 -280 39 -56 40 -67 40 -320 0 -252 1 -263 40
-320 38 -55 40 -71 40 -268 0 -291 27 -271 -360 -271 -293 0 -316 2 -337 31
-18 24 -23 90 -23 280 0 240 2 252 40 308 39 58 40 66 40 360 0 295 1 303 40
360 38 56 40 71 40 280 0 208 2 225 39 279 38 55 39 69 44 370 5 296 7 316 41
362 21 28 36 72 36 104 0 98 48 149 72 75z"/>
<path d="M54979 13341 c-28 -28 -28 -6014 0 -6042 28 -27 814 -27 842 0 28 28
28 6014 0 6042 -14 14 -130 19 -421 19 -291 0 -407 -5 -421 -19z"/>
<path d="M56499 13341 c-28 -28 -28 -6014 0 -6042 28 -27 814 -27 842 0 14 15
19 313 19 1245 0 1033 4 1231 23 1257 19 27 46 32 210 36 254 8 272 3 384
-105 202 -195 183 -82 183 -1063 0 -863 0 -863 40 -922 37 -54 40 -72 40 -244
0 -122 6 -191 19 -204 28 -27 814 -27 842 0 13 13 19 85 19 217 0 185 -3 202
-40 257 -36 53 -40 74 -40 227 0 153 4 174 40 227 38 57 40 70 40 293 0 223
-2 236 -40 293 -40 58 -40 59 -40 440 0 380 0 381 -40 440 -27 40 -40 80 -40
128 0 67 -6 76 -178 248 -97 99 -188 195 -201 214 -30 45 -7 93 53 108 71 18
148 88 166 151 9 32 48 92 88 134 62 66 72 86 72 145 0 46 13 87 40 126 40 59
40 59 40 853 0 794 0 794 -40 853 -22 32 -40 68 -40 80 0 11 -18 47 -40 80
-22 32 -40 73 -40 91 0 38 -263 296 -302 296 -15 0 -53 18 -85 40 -33 22 -69
40 -80 40 -12 0 -48 18 -80 40 -59 40 -59 40 -937 40 -661 0 -882 -5 -897 -19z
m1360 -795 c40 -16 186 -152 257 -240 44 -54 44 -54 44 -665 0 -611 0 -611
-40 -665 -22 -30 -40 -67 -40 -84 0 -16 -28 -60 -63 -97 -63 -67 -63 -67 -337
-67 -253 0 -276 2 -297 31 -19 26 -23 172 -23 881 0 879 0 886 64 909 41 14
396 12 435 -3z"/>
<path d="M8713 5804 c-35 -26 -76 -37 -160 -42 -85 -4 -126 -15 -169 -44 -30
-21 -65 -38 -77 -38 -11 0 -47 -18 -80 -40 -32 -22 -68 -40 -80 -40 -11 0 -47
-18 -80 -40 -32 -22 -71 -40 -86 -40 -40 0 -461 -417 -461 -457 0 -17 -18 -58
-40 -90 -22 -33 -40 -69 -40 -80 0 -12 -18 -48 -40 -80 -25 -38 -40 -82 -40
-120 0 -39 -15 -83 -40 -120 -39 -58 -40 -65 -40 -373 0 -308 1 -315 40 -373
25 -37 40 -81 40 -120 0 -38 15 -82 40 -120 22 -32 40 -68 40 -80 0 -11 18
-47 40 -80 22 -32 40 -73 40 -90 0 -40 500 -537 540 -537 16 0 55 -18 87 -40
33 -22 69 -40 80 -40 12 0 47 -17 77 -38 31 -20 90 -41 131 -45 41 -5 96 -24
122 -43 46 -33 64 -34 523 -34 466 0 476 1 525 36 37 26 79 37 162 42 85 4
126 15 169 44 30 21 65 38 77 38 11 0 47 18 80 40 32 22 71 40 85 40 47 0 444
398 462 463 9 31 48 91 88 133 62 66 72 86 72 145 0 46 13 87 40 126 35 52 40
76 40 202 0 126 5 150 40 201 22 33 40 73 40 90 0 17 -18 57 -40 90 -37 54
-40 73 -40 241 0 169 -3 187 -40 242 -22 32 -40 68 -40 80 0 11 -18 47 -40 80
-22 32 -40 72 -40 88 0 17 -51 81 -113 144 -61 62 -116 132 -122 154 -13 57
-31 76 -81 87 -24 5 -98 60 -163 122 -66 61 -131 112 -144 112 -14 0 -51 17
-81 38 -31 20 -90 41 -131 45 -41 5 -95 23 -120 41 -25 17 -79 35 -120 40 -41
4 -96 23 -122 42 -75 53 -738 52 -810 -2z m721 -648 c28 -20 61 -36 73 -36 12
0 47 -17 77 -38 31 -20 74 -41 96 -47 61 -15 300 -259 318 -324 9 -30 30 -74
49 -97 21 -27 33 -66 33 -105 0 -41 14 -84 40 -122 36 -53 40 -74 40 -228 0
-155 -3 -173 -40 -223 -22 -30 -40 -66 -40 -79 0 -14 -17 -51 -38 -81 -20 -31
-42 -75 -47 -98 -13 -54 -341 -380 -395 -393 -22 -5 -62 -25 -88 -43 -76 -54
-711 -52 -786 2 -28 20 -61 36 -73 36 -12 0 -47 17 -77 38 -31 20 -74 42 -97
47 -53 13 -221 180 -234 233 -5 23 -27 67 -47 98 -21 30 -38 67 -38 81 0 13
-18 49 -40 79 -39 53 -40 60 -40 345 0 270 2 294 33 333 19 23 40 67 49 97 18
66 336 389 398 404 22 6 65 27 96 47 30 21 65 38 77 38 12 0 41 13 65 30 68
47 78 49 338 45 229 -3 252 -6 298 -39z"/>
<path d="M31753 5804 c-35 -26 -76 -37 -160 -42 -85 -4 -126 -15 -169 -44 -30
-21 -65 -38 -77 -38 -11 0 -47 -18 -80 -40 -32 -22 -71 -40 -86 -40 -39 0
-381 -337 -381 -377 0 -17 -18 -58 -40 -90 -38 -57 -40 -70 -40 -293 0 -223 2
-236 40 -293 22 -32 40 -73 40 -91 0 -38 263 -296 302 -296 15 0 53 -18 85
-40 33 -22 69 -40 80 -40 12 0 47 -17 77 -38 31 -20 90 -41 131 -45 41 -5 95
-23 120 -41 36 -26 76 -34 197 -38 123 -5 161 -12 200 -40 35 -25 79 -36 160
-40 81 -5 126 -16 160 -40 27 -19 83 -37 125 -42 87 -9 181 -83 197 -156 6
-22 27 -67 49 -99 29 -43 36 -66 25 -86 -32 -56 -188 -200 -227 -210 -23 -5
-63 -25 -89 -43 -74 -52 -631 -52 -704 0 -35 25 -79 36 -160 40 -84 5 -126 16
-163 42 -27 20 -60 36 -72 36 -12 0 -48 18 -80 40 -33 22 -69 40 -82 40 -12 0
-49 18 -81 40 -80 54 -119 50 -190 -17 -51 -48 -60 -67 -60 -125 0 -47 -12
-84 -40 -122 -22 -30 -40 -66 -40 -81 0 -15 -14 -45 -32 -67 -18 -23 -32 -56
-32 -74 0 -34 91 -114 130 -114 12 0 48 -17 78 -38 31 -20 90 -41 131 -45 41
-5 95 -23 120 -41 32 -23 78 -34 157 -38 84 -5 126 -16 163 -42 49 -36 56 -36
605 -36 541 0 556 1 603 34 26 19 81 38 122 43 41 4 100 25 131 45 30 21 68
38 83 38 39 0 381 337 381 377 0 17 18 58 40 90 39 58 40 67 40 333 0 266 -1
275 -40 333 -22 32 -40 73 -40 91 0 38 -263 296 -302 296 -15 0 -52 17 -82 38
-31 20 -90 41 -131 45 -41 5 -95 23 -120 41 -32 23 -78 34 -157 38 -82 5 -126
16 -160 41 -39 27 -77 35 -200 39 -123 5 -161 12 -200 40 -26 18 -82 37 -123
42 -41 4 -95 22 -120 40 -25 17 -64 36 -87 41 -23 6 -68 39 -100 75 -82 91
-85 218 -6 316 130 161 110 156 587 156 407 0 427 -1 473 -34 26 -18 82 -37
123 -42 41 -4 96 -23 122 -42 85 -61 243 -42 243 29 0 14 18 52 40 84 22 33
40 69 40 80 0 12 18 48 40 80 66 98 52 253 -23 253 -14 0 -51 17 -81 38 -31
20 -90 41 -131 45 -41 5 -95 23 -120 41 -36 26 -76 34 -197 38 -126 5 -161 12
-202 42 -77 55 -660 55 -733 0z"/>
<path d="M52793 5804 c-35 -26 -76 -37 -160 -42 -80 -4 -126 -15 -158 -38 -25
-18 -79 -36 -120 -41 -41 -4 -100 -25 -131 -45 -30 -21 -68 -38 -84 -38 -40 0
-620 -577 -620 -617 0 -17 -18 -58 -40 -90 -22 -33 -40 -69 -40 -80 0 -12 -18
-48 -40 -80 -40 -59 -40 -59 -40 -533 0 -474 0 -474 40 -533 22 -32 40 -68 40
-80 0 -11 18 -47 40 -80 22 -32 40 -68 40 -80 0 -11 18 -47 40 -80 22 -32 40
-73 40 -90 0 -41 342 -377 384 -377 16 0 72 -36 125 -80 53 -44 106 -80 118
-80 12 0 47 -17 77 -38 43 -29 84 -40 169 -44 83 -5 125 -16 162 -42 49 -35
59 -36 525 -36 466 0 476 1 525 36 37 26 79 37 162 42 85 4 126 15 169 44 30
21 65 38 77 38 12 0 65 36 118 80 53 44 107 80 120 80 41 0 213 159 213 198 0
49 -406 442 -457 442 -21 0 -64 -18 -97 -40 -32 -22 -69 -40 -82 -40 -13 0
-66 -36 -119 -80 -53 -44 -107 -80 -120 -80 -13 0 -47 -16 -75 -36 -48 -35
-63 -36 -394 -36 -331 0 -346 1 -394 36 -28 20 -61 36 -73 36 -12 0 -47 17
-77 38 -31 20 -74 41 -96 47 -61 15 -300 259 -318 324 -9 30 -30 74 -49 97
-26 33 -33 65 -33 145 0 83 -8 114 -40 162 -22 32 -40 80 -40 107 0 27 18 75
40 107 32 48 40 79 40 162 0 80 7 112 33 145 19 23 40 67 49 96 17 65 179 231
237 245 23 5 79 42 126 81 67 57 101 74 160 80 41 5 97 24 123 42 43 31 70 34
272 34 202 0 229 -3 272 -34 26 -18 82 -37 123 -42 41 -4 96 -23 122 -42 26
-19 59 -34 72 -34 13 0 67 -36 120 -80 88 -73 103 -80 178 -80 82 0 82 0 258
177 215 217 217 224 78 365 -54 54 -111 98 -127 98 -16 0 -71 35 -123 78 -74
61 -108 79 -168 86 -41 4 -95 22 -120 40 -32 23 -78 34 -157 38 -84 5 -126 16
-163 42 -76 55 -659 54 -732 0z"/>
<path d="M1699 5741 c-31 -31 -22 -89 24 -158 42 -64 42 -64 8 -111 -44 -59
-44 -85 0 -145 35 -47 35 -47 0 -94 -43 -59 -44 -89 -3 -141 31 -40 32 -65 32
-1267 0 -933 5 -1231 19 -1246 30 -30 89 -23 143 17 44 33 69 36 283 41 131 3
244 13 255 22 16 13 20 199 20 843 0 500 7 835 16 850 27 43 99 -13 133 -104
16 -43 61 -113 100 -155 39 -41 71 -90 71 -108 0 -18 36 -72 80 -121 44 -49
80 -103 80 -120 0 -17 36 -71 80 -120 44 -49 80 -103 80 -120 0 -17 36 -71 80
-120 44 -49 80 -103 80 -120 0 -17 36 -71 80 -120 44 -49 80 -101 80 -117 0
-58 32 -67 240 -67 208 0 240 9 240 67 0 16 36 68 80 117 44 49 80 101 80 116
0 16 18 55 40 87 22 33 40 70 40 84 0 14 36 64 80 113 44 49 80 101 80 116 0
16 18 55 40 87 22 33 40 70 40 84 0 14 36 64 80 113 44 49 80 103 80 121 0 18
32 67 72 109 40 43 82 105 94 140 28 81 111 100 138 30 10 -26 16 -352 16
-855 0 -634 4 -817 20 -830 11 -9 123 -19 255 -22 195 -4 239 -10 265 -33 45
-41 92 -34 139 21 41 49 41 49 41 1573 0 1164 -5 1528 -19 1543 -14 13 -112
19 -341 19 -322 0 -322 0 -381 -54 -32 -30 -59 -69 -59 -88 0 -19 -36 -73 -80
-122 -44 -49 -80 -101 -80 -116 0 -16 -18 -55 -40 -87 -22 -33 -40 -70 -40
-84 0 -14 -36 -64 -80 -113 -44 -49 -80 -103 -80 -120 0 -17 -36 -71 -80 -120
-44 -49 -80 -101 -80 -116 0 -16 -18 -55 -40 -87 -22 -33 -40 -70 -40 -84 0
-14 -36 -64 -80 -113 -44 -49 -80 -103 -80 -120 0 -17 -36 -71 -80 -120 -44
-49 -80 -102 -80 -118 0 -16 -15 -48 -33 -71 -18 -23 -42 -69 -53 -102 -19
-54 -27 -61 -74 -61 -47 0 -55 7 -74 61 -11 33 -35 79 -53 102 -18 23 -33 55
-33 71 0 16 -36 69 -80 118 -44 49 -80 103 -80 120 0 17 -36 71 -80 120 -44
49 -80 103 -80 120 0 17 -36 71 -80 120 -44 49 -80 99 -80 113 0 14 -18 51
-40 84 -22 32 -40 71 -40 87 0 15 -36 67 -80 116 -44 49 -80 103 -80 120 0 17
-36 71 -80 120 -44 49 -80 99 -80 113 0 14 -18 51 -40 84 -22 32 -40 72 -40
89 0 16 -27 54 -59 84 -59 54 -59 54 -421 54 -260 0 -367 -5 -381 -19z"/>
<path d="M12659 5741 c-29 -29 -28 -3058 2 -3082 12 -11 154 -19 374 -22 338
-5 357 -7 403 -41 60 -44 109 -45 162 -4 51 40 109 40 160 0 65 -51 493 -47
566 4 48 34 67 36 400 41 341 5 352 6 408 44 32 21 67 39 79 39 11 0 47 18 80
40 32 22 70 40 84 40 39 0 223 179 223 217 0 17 18 58 40 90 39 58 40 67 40
333 0 266 -1 275 -40 333 -22 32 -40 73 -40 91 0 44 -259 291 -321 304 -26 6
-55 25 -64 42 -23 42 -6 66 167 241 138 139 138 139 138 250 0 86 7 120 32
151 18 23 32 53 32 68 0 15 -14 45 -32 68 -24 31 -32 65 -32 143 0 83 -8 114
-40 162 -22 32 -40 72 -40 89 0 35 -107 138 -143 138 -14 0 -52 18 -84 40 -33
22 -69 40 -80 40 -12 0 -47 17 -77 38 -31 20 -90 41 -131 45 -41 5 -96 24
-122 43 -48 34 -52 34 -1086 34 -787 0 -1043 -5 -1058 -19z m1840 -555 c95
-37 301 -273 301 -346 0 -84 -233 -335 -327 -353 -27 -5 -278 -7 -558 -4 -483
5 -511 7 -532 36 -18 24 -23 96 -23 321 0 295 6 328 64 349 41 15 1036 12
1075 -3z m-963 -1242 c13 -16 49 -24 104 -24 55 0 91 8 104 24 11 13 36 24 56
24 20 0 45 -11 56 -24 17 -20 81 -24 393 -24 205 0 390 -6 410 -14 40 -16 186
-152 257 -240 53 -66 57 -141 11 -199 -18 -23 -42 -69 -53 -102 -15 -44 -34
-65 -68 -77 -26 -9 -69 -30 -95 -48 -72 -49 -1292 -50 -1328 -1 -29 40 -33
583 -5 638 46 89 115 119 158 67z"/>
<path d="M17379 5741 c-28 -28 -28 -3134 0 -3162 36 -36 249 -24 307 17 67 48
167 48 232 0 70 -52 114 -46 183 25 59 60 59 60 59 1580 0 1161 -5 1525 -19
1540 -27 27 -735 27 -762 0z"/>
<path d="M20018 5739 c-19 -23 -28 -3118 -10 -3148 15 -24 59 -18 92 13 29 26
112 28 1184 32 811 3 1160 10 1175 22 30 26 30 498 0 524 -15 12 -270 19 -817
22 -767 4 -797 5 -819 35 -19 26 -23 224 -23 1257 0 932 -5 1230 -19 1245 -29
29 -739 27 -763 -2z"/>
<path d="M24019 5741 c-29 -30 -27 -3058 2 -3083 14 -11 238 -18 694 -21 615
-5 676 -7 705 -33 38 -34 89 -36 116 -4 28 33 96 29 144 -8 49 -39 86 -40 145
-5 38 22 53 24 88 8 33 -15 54 -16 95 -1 43 16 58 15 89 -8 50 -34 94 -32 143
6 22 17 58 31 80 31 22 0 58 -14 80 -31 46 -36 189 -44 221 -13 28 29 27 579
-2 603 -15 12 -291 19 -897 22 -847 4 -877 5 -899 35 -33 45 -33 597 0 642 22
30 51 31 779 35 517 4 762 10 777 22 16 13 21 80 21 262 0 182 -5 249 -21 262
-15 12 -260 18 -777 22 -728 4 -757 5 -779 35 -33 45 -33 597 0 642 22 30 52
31 859 35 576 3 842 10 857 22 29 24 30 494 2 523 -28 28 -2494 28 -2522 0z"/>
<path d="M35139 5741 c-28 -28 -28 -3134 0 -3162 26 -26 80 -24 118 4 40 31
94 31 119 1 27 -33 181 -33 208 0 11 13 36 24 56 24 20 0 45 -11 56 -24 27
-33 181 -33 208 0 26 31 86 31 112 0 32 -39 169 -31 230 12 50 36 53 36 761
40 484 4 718 11 732 22 30 26 30 498 0 524 -15 12 -291 19 -897 22 -847 4
-877 5 -899 35 -33 45 -33 597 0 642 21 30 51 31 739 35 488 4 723 11 737 22
15 13 21 70 21 206 0 166 4 193 33 230 18 23 31 55 28 70 -5 26 -58 29 -771
36 -733 8 -766 9 -787 39 -33 45 -33 597 0 642 22 30 52 31 859 35 576 3 842
10 857 22 29 24 30 494 2 523 -28 28 -2494 28 -2522 0z"/>
<path d="M39459 5741 c-28 -28 -28 -3054 0 -3082 27 -27 735 -27 762 0 14 14
19 126 19 405 0 308 5 392 23 417 20 28 47 31 291 36 148 3 292 1 320 -4 68
-13 224 -168 245 -244 8 -31 48 -91 88 -134 40 -43 73 -92 73 -110 0 -18 36
-72 80 -121 45 -50 80 -104 80 -124 0 -23 35 -68 99 -128 98 -92 98 -92 460
-92 261 0 368 5 382 19 37 37 20 95 -53 178 -40 46 -80 108 -88 139 -11 39
-60 100 -159 197 -104 101 -149 158 -160 200 -11 39 -50 92 -114 155 -54 53
-105 109 -113 124 -21 39 7 86 60 99 24 6 86 47 138 90 52 43 107 79 122 79
36 0 66 31 66 67 0 16 36 68 80 117 44 49 80 101 80 116 0 16 18 55 40 87 40
59 40 62 40 413 0 351 0 354 -40 413 -22 32 -40 68 -40 80 0 11 -18 47 -40 80
-22 32 -40 73 -40 90 0 38 -184 217 -223 217 -14 0 -52 18 -84 40 -33 22 -69
40 -80 40 -12 0 -47 17 -77 38 -31 20 -90 41 -131 45 -41 5 -96 24 -122 43
-48 34 -54 34 -1006 34 -724 0 -963 -5 -978 -19z m1655 -585 c28 -20 73 -36
99 -36 27 0 66 -7 88 -15 60 -23 201 -175 217 -235 9 -29 30 -73 49 -96 25
-32 33 -65 33 -134 0 -69 -8 -102 -33 -134 -19 -23 -40 -67 -49 -96 -17 -65
-179 -231 -237 -245 -23 -5 -63 -25 -89 -43 -72 -51 -893 -53 -929 -3 -32 43
-34 997 -3 1036 33 42 53 43 436 40 353 -3 370 -4 418 -39z"/>
<path d="M43699 5741 c-30 -31 -22 -87 21 -151 22 -32 40 -69 40 -81 0 -13 18
-49 40 -82 22 -32 40 -68 40 -80 0 -11 18 -47 40 -80 22 -32 40 -70 40 -84 0
-13 18 -49 40 -79 26 -36 40 -75 40 -116 0 -39 14 -83 40 -121 22 -32 40 -68
40 -80 0 -11 18 -47 40 -80 22 -32 40 -68 40 -80 0 -11 18 -47 40 -80 22 -32
40 -70 40 -84 0 -13 18 -49 40 -79 26 -36 40 -75 40 -116 0 -39 14 -83 40
-121 22 -32 40 -68 40 -80 0 -11 18 -47 40 -80 22 -32 40 -68 40 -80 0 -11 18
-47 40 -80 22 -32 40 -68 40 -80 0 -11 18 -47 40 -80 22 -32 40 -68 40 -80 0
-11 18 -47 40 -80 22 -32 40 -68 40 -80 0 -11 18 -47 40 -80 22 -32 40 -68 40
-80 0 -11 18 -47 40 -80 22 -32 40 -70 40 -84 0 -13 18 -49 40 -79 26 -36 40
-75 40 -116 0 -39 14 -83 40 -121 22 -32 40 -71 40 -86 0 -16 21 -52 46 -80
45 -51 47 -51 110 -30 57 18 69 18 102 -5 30 -21 81 -26 271 -26 234 0 234 0
333 94 91 87 98 98 98 165 0 50 11 86 40 125 22 30 40 66 40 79 0 14 18 52 40
84 22 33 40 69 40 80 0 12 18 48 40 80 22 33 40 69 40 80 0 12 18 48 40 80 26
38 40 82 40 121 0 41 14 80 40 116 22 30 40 66 40 79 0 14 18 52 40 84 22 33
40 69 40 80 0 12 18 48 40 80 22 33 40 69 40 80 0 12 18 48 40 80 22 33 40 69
40 80 0 12 18 48 40 80 22 33 40 69 40 80 0 12 18 48 40 80 26 38 40 82 40
121 0 41 14 80 40 116 22 30 40 66 40 79 0 14 18 52 40 84 22 33 40 69 40 80
0 12 18 48 40 80 22 33 40 69 40 80 0 12 18 48 40 80 22 33 40 69 40 80 0 12
18 48 40 80 22 33 40 69 40 80 0 12 18 48 40 80 22 33 40 70 40 82 0 12 15 42
33 65 74 94 60 98 -342 102 -364 5 -364 5 -419 -37 -32 -25 -62 -65 -70 -96
-8 -30 -30 -75 -49 -101 -18 -26 -33 -57 -33 -69 0 -12 -18 -48 -40 -80 -22
-33 -40 -69 -40 -80 0 -12 -18 -48 -40 -80 -26 -38 -40 -82 -40 -121 0 -41
-14 -80 -40 -116 -22 -30 -40 -66 -40 -79 0 -14 -18 -52 -40 -84 -22 -33 -40
-69 -40 -80 0 -12 -18 -48 -40 -80 -22 -33 -40 -69 -40 -80 0 -12 -18 -48 -40
-80 -22 -33 -40 -69 -40 -80 0 -12 -18 -48 -40 -80 -22 -33 -40 -69 -40 -80 0
-12 -18 -48 -40 -80 -26 -38 -40 -82 -40 -121 0 -41 -14 -80 -40 -116 -22 -30
-40 -66 -40 -81 0 -15 -15 -45 -33 -68 -18 -23 -42 -69 -53 -102 -19 -54 -27
-61 -74 -61 -47 0 -55 7 -74 61 -11 33 -35 79 -53 102 -18 23 -33 53 -33 68 0
15 -18 51 -40 81 -26 36 -40 75 -40 116 0 39 -14 83 -40 121 -22 32 -40 68
-40 80 0 11 -18 47 -40 80 -22 32 -40 70 -40 84 0 13 -18 49 -40 79 -26 36
-40 75 -40 116 0 39 -14 83 -40 121 -22 32 -40 68 -40 80 0 11 -18 47 -40 80
-22 32 -40 68 -40 80 0 11 -18 47 -40 80 -22 32 -40 70 -40 84 0 13 -18 49
-40 79 -26 36 -40 75 -40 116 0 39 -14 83 -40 121 -22 32 -40 68 -40 80 0 11
-18 47 -40 80 -22 32 -40 70 -40 84 0 59 -28 63 -440 63 -291 0 -407 -5 -421
-19z"/>
<path d="M48819 5741 c-28 -29 -28 -3058 1 -3082 11 -9 107 -19 214 -22 166
-4 200 -10 229 -36 30 -27 41 -29 85 -12 39 14 63 14 105 -1 51 -19 56 -17
101 32 46 53 46 53 46 1577 0 1164 -5 1529 -19 1544 -27 27 -735 27 -762 0z"/>
<path d="M56179 5741 c-29 -30 -27 -3058 2 -3083 15 -12 364 -19 1175 -22
1153 -4 1153 -4 1202 -40 70 -52 114 -46 183 25 59 60 59 60 59 302 0 180 -5
246 -21 259 -15 12 -291 19 -897 22 -847 4 -877 5 -899 35 -33 45 -33 597 0
642 21 30 51 31 739 35 488 4 723 11 737 22 12 10 21 48 21 84 0 45 13 86 40
125 46 69 59 281 19 315 -15 12 -260 18 -777 22 -728 4 -757 5 -779 35 -33 45
-33 597 0 642 22 30 52 31 859 35 576 3 842 10 857 22 29 24 30 494 2 523 -28
28 -2494 28 -2522 0z"/>
</g>
</svg>
