<?xml version="1.0" encoding="UTF-8"?>
<svg version="1.0" xmlns="http://www.w3.org/2000/svg"
 width="1592.000000pt" height="328.000000pt" viewBox="0 0 1592.000000 328.000000"
 preserveAspectRatio="xMidYMid meet">
<g transform="translate(0.000000,328.000000) scale(0.100000,-0.100000)"
fill="#0047B3" stroke="none">
<path d="M10 3122 c0 -4 39 -43 88 -88 344 -316 742 -524 1247 -652 255 -65
429 -94 706 -117 l77 -6 23 48 c13 26 59 94 102 151 43 57 77 105 75 106 -1 2
-73 9 -158 15 -735 58 -1494 247 -2102 525 -32 14 -58 22 -58 18z"/>
<path d="M12984 2564 c-193 -102 -532 -237 -759 -303 -290 -84 -665 -158
-1025 -201 -815 -98 -1161 -222 -1696 -606 -73 -52 -135 -101 -138 -110 -3 -8
-10 -13 -15 -10 -5 4 -19 -6 -31 -21 -12 -16 -18 -21 -14 -13 10 19 -60 -36
-116 -92 -24 -24 -40 -36 -36 -28 4 8 -4 2 -18 -15 -14 -16 -31 -30 -38 -30
-7 -1 -12 -6 -11 -13 2 -7 -3 -12 -10 -12 -15 0 -99 -62 -93 -68 6 -5 110 49
118 62 5 6 8 7 8 1 0 -5 5 -2 11 8 5 9 15 17 22 17 7 0 6 -4 -3 -10 -21 -13
-6 -12 24 1 14 7 23 17 19 22 -4 7 1 8 13 4 18 -7 18 -6 2 6 -15 12 -14 14 13
14 21 0 26 -3 17 -10 -15 -10 -11 -9 112 39 47 18 91 33 98 34 8 0 10 5 6 12
-5 7 -2 9 8 6 8 -3 66 9 128 28 297 90 549 121 890 108 446 -17 655 -4 890 56
242 61 398 127 559 234 107 71 234 178 269 225 l23 31 -53 -21 c-412 -163
-789 -235 -1353 -259 -426 -18 -670 -62 -1020 -185 -16 -6 -17 -5 -5 4 20 15
251 90 442 145 201 58 417 102 593 121 439 48 686 89 937 156 461 123 853 312
1153 557 139 113 191 160 185 165 -3 3 -50 -19 -106 -49z"/>
<path d="M605 2399 c207 -211 512 -394 850 -508 219 -74 535 -120 719 -105
102 8 105 11 55 42 -70 45 -117 114 -128 190 l-6 46 -205 22 c-313 33 -536 78
-825 166 -115 35 -354 127 -437 169 -32 16 -61 29 -65 29 -4 0 15 -23 42 -51z"/>
<path d="M1060 1794 c156 -158 343 -278 573 -365 77 -29 91 -31 110 -20 38 23
226 176 227 184 0 4 -15 7 -32 7 -64 0 -311 41 -426 71 -153 39 -307 92 -411
140 -46 21 -86 39 -90 39 -3 0 19 -25 49 -56z"/>
<path d="M3943 263 c-88 -92 -177 -187 -198 -210 l-37 -43 49 0 c45 0 53 4 93
45 l44 45 98 0 98 0 0 -45 0 -45 49 0 49 0 6 178 c4 97 8 191 9 207 2 29 1 30
-49 33 l-51 3 -160 -168z m162 -10 c-4 -38 -9 -69 -10 -71 -2 -2 -31 -2 -65 0
l-62 3 62 68 c34 37 66 67 72 67 6 0 7 -25 3 -67z"/>
<path d="M4664 403 c-8 -16 -55 -110 -104 -210 l-89 -183 49 0 50 0 30 60 30
60 75 0 c94 0 168 26 217 77 71 75 88 146 43 187 -32 30 -64 36 -187 36 -98 0
-99 0 -114 -27z m204 -65 c35 -35 -15 -113 -83 -128 -35 -8 -115 -4 -115 6 0
2 14 33 32 69 l32 65 61 0 c34 0 66 -5 73 -12z"/>
<path d="M5283 293 c-36 -76 -80 -171 -99 -210 l-33 -73 49 0 50 0 30 60 30
60 79 0 c70 0 87 4 143 33 139 72 175 225 60 257 -20 5 -83 10 -140 10 l-103
0 -66 -137z m261 41 c20 -19 20 -28 1 -64 -22 -42 -63 -60 -139 -60 l-64 0 31
70 31 70 62 0 c44 0 67 -5 78 -16z"/>
<path d="M6017 418 c-3 -7 -48 -102 -101 -210 l-95 -198 158 0 159 0 21 35
c25 44 25 44 -100 47 l-96 3 79 160 c43 88 78 163 78 168 0 13 -97 8 -103 -5z"/>
<path d="M6533 220 l-102 -210 50 0 50 0 100 204 c54 112 99 207 99 210 0 3
-22 6 -48 6 l-48 0 -101 -210z"/>
<path d="M7016 223 l-196 -208 49 -3 c48 -3 51 -1 92 43 l42 45 98 0 99 0 0
-45 0 -45 50 0 50 0 0 73 c0 41 3 135 7 210 l6 137 -51 0 -51 0 -195 -207z
m191 -40 c-3 -2 -33 -3 -67 -1 l-61 3 63 69 63 69 3 -68 c2 -37 1 -69 -1 -72z"/>
<path d="M7782 417 c-6 -7 -50 -94 -98 -192 -47 -99 -90 -188 -95 -197 -9 -16
-4 -18 41 -18 l51 0 60 125 c32 69 63 125 67 125 4 0 28 -56 51 -125 l44 -126
45 3 45 3 94 199 c51 110 93 204 93 208 0 5 -21 8 -47 6 l-48 -3 -56 -125
c-31 -69 -60 -124 -65 -122 -5 1 -21 39 -36 85 -57 171 -55 167 -98 167 -20 0
-42 -6 -48 -13z"/>
<path d="M8623 411 c-161 -55 -276 -223 -229 -334 35 -84 173 -101 302 -37 67
33 76 46 46 74 -18 15 -22 15 -63 -4 -60 -27 -142 -27 -169 0 -30 30 -26 79
13 136 62 94 190 134 254 80 l29 -25 42 25 c47 28 50 34 24 57 -53 48 -158 60
-249 28z"/>
<path d="M9146 243 c-51 -104 -96 -198 -100 -210 l-7 -23 165 0 166 0 20 32
c10 17 17 35 14 40 -3 4 -57 8 -120 8 l-114 0 25 50 25 50 104 0 104 0 11 31
c6 18 11 34 11 35 0 2 -45 4 -100 4 l-100 0 22 45 22 45 118 0 117 0 16 30 c8
16 15 34 15 40 0 6 -55 10 -160 10 l-160 0 -94 -187z"/>
<path d="M10253 418 c-6 -7 -54 -102 -106 -210 l-95 -198 51 0 52 1 27 60 27
60 48 -3 c51 -3 46 3 67 -90 6 -26 10 -28 61 -28 52 0 55 1 50 23 -13 59 -25
113 -25 118 0 4 10 9 23 13 33 8 112 80 126 114 20 48 10 102 -22 126 -25 18
-45 21 -151 24 -93 3 -125 0 -133 -10z m191 -74 c23 -9 20 -66 -5 -93 -29 -31
-61 -41 -129 -41 l-58 0 31 70 32 70 57 0 c31 0 63 -3 72 -6z"/>
<path d="M10940 413 c-18 -32 -161 -317 -180 -360 l-19 -43 173 0 172 0 17 34
c8 19 13 37 10 40 -4 3 -57 6 -120 6 -62 0 -113 3 -112 8 0 4 10 25 22 47 l22
40 106 3 c102 3 106 4 118 28 6 14 11 29 11 34 0 6 -41 10 -95 10 -52 0 -95 2
-95 5 0 2 7 23 16 45 l16 40 119 0 118 0 16 30 c8 16 15 34 15 40 0 6 -55 10
-160 10 -142 0 -161 -2 -170 -17z"/>
<path d="M11496 221 l-106 -211 50 0 50 0 29 59 30 59 93 4 c82 3 101 8 147
34 75 42 115 100 116 166 0 44 -4 53 -28 72 -25 18 -45 21 -152 25 l-124 3
-105 -211z m295 119 c10 -6 19 -18 19 -26 0 -29 -31 -74 -61 -90 -29 -15 -143
-27 -153 -16 -3 2 11 35 30 73 l34 69 56 0 c30 0 64 -5 75 -10z"/>
<path d="M12185 223 l-196 -208 48 -3 c45 -3 50 -1 91 42 l43 46 100 0 99 0 0
-45 0 -45 48 0 49 0 6 142 c4 79 7 173 7 211 l0 67 -49 0 -50 0 -196 -207z
m201 81 c-3 -9 -6 -40 -6 -70 l0 -54 -66 0 -66 0 63 70 c59 67 88 88 75 54z"/>
<path d="M12952 418 c-11 -15 -202 -394 -202 -402 0 -3 22 -6 50 -6 l50 0 100
200 c55 110 100 204 100 210 0 14 -86 12 -98 -2z"/>
<path d="M13348 363 c-16 -37 -61 -131 -98 -210 l-69 -143 48 0 47 0 29 60 29
61 51 -3 c45 -3 50 -6 53 -28 2 -14 8 -40 13 -57 10 -31 13 -33 60 -33 l50 0
-6 38 c-4 20 -11 52 -15 69 -8 32 -7 34 41 60 64 35 109 100 109 159 0 77 -37
94 -213 94 l-98 0 -31 -67z m236 -35 c14 -24 -2 -66 -37 -92 -20 -15 -47 -21
-98 -24 -71 -4 -71 -4 -64 19 4 13 18 46 32 72 l24 48 66 -3 c49 -2 69 -7 77
-20z"/>
<path d="M1912 190 c-6 -11 -12 -22 -12 -25 0 -3 314 -5 698 -5 l699 0 11 25
12 25 -698 0 c-685 0 -697 0 -710 -20z"/>
<path d="M14162 185 l-12 -25 679 0 678 0 11 25 12 25 -679 0 -678 0 -11 -25z"/>
</g>
<g transform="translate(0.000000,328.000000) scale(0.100000,-0.100000)"
fill="#0A1D30" stroke="none">
<path d="M7515 3259 c-511 -52 -1003 -248 -1425 -567 -680 -515 -872 -1149
-437 -1444 118 -80 249 -128 447 -164 118 -22 509 -25 675 -6 610 71 1216 359
1641 781 321 317 475 662 409 914 -24 92 -63 157 -139 232 -136 134 -343 217
-626 250 -133 16 -411 18 -545 4z m340 -378 c132 -42 226 -115 266 -204 34
-75 33 -194 -4 -296 -66 -187 -245 -416 -452 -581 -237 -188 -473 -303 -742
-362 -132 -28 -386 -31 -483 -5 -319 86 -402 305 -238 632 180 360 604 690
1026 801 147 38 192 43 382 40 148 -3 186 -6 245 -25z"/>
<path d="M11045 3209 c-276 -12 -342 -41 -725 -319 -203 -147 -2386 -1783
-2410 -1806 -12 -12 42 -14 385 -14 l400 0 189 142 c104 79 385 294 625 478
783 602 1382 1052 1414 1061 36 10 102 2 117 -16 9 -11 -28 -148 -150 -550
-10 -33 -14 -62 -9 -63 5 -2 47 1 92 7 333 46 671 91 682 91 8 0 20 20 29 48
138 457 276 930 276 944 0 10 -695 7 -915 -3z"/>
<path d="M3610 3204 c-208 -32 -327 -75 -485 -179 -109 -71 -180 -138 -353
-334 -321 -360 -372 -434 -372 -534 0 -124 98 -186 328 -206 59 -6 427 -13
817 -16 459 -4 720 -10 738 -17 31 -12 45 -49 30 -81 -19 -41 -214 -267 -251
-292 -71 -46 -84 -47 -982 -40 l-845 7 -287 -214 -288 -215 1163 -7 c1264 -8
1238 -9 1402 47 229 79 334 161 626 492 158 180 224 267 266 352 34 69 38 85
38 152 0 98 -23 139 -98 176 -114 55 -134 57 -1004 64 -802 7 -803 7 -824 28
-16 15 -20 28 -15 47 10 41 229 287 284 318 l47 28 410 0 c226 -1 662 -5 969
-10 520 -8 561 -8 581 8 43 33 500 405 515 419 12 11 -178 13 -1185 12 -660
-1 -1211 -3 -1225 -5z"/>
<path d="M13251 3078 c-68 -73 -157 -167 -197 -209 -41 -42 -74 -79 -74 -83 0
-3 452 -6 1004 -6 612 0 1015 -4 1030 -10 31 -11 49 -44 40 -73 -17 -56 -290
-349 -358 -385 l-51 -27 -883 -5 -884 -5 -261 -265 c-216 -219 -573 -591 -846
-882 l-54 -58 404 1 404 1 50 57 c28 31 178 198 334 369 l284 312 236 -2 235
-3 109 -365 109 -365 376 3 c207 1 378 5 380 7 3 2 -45 161 -107 353 -61 192
-111 353 -111 359 0 6 50 12 128 16 257 11 457 95 650 273 65 59 321 339 543
594 95 109 147 193 161 262 21 102 -6 159 -96 203 -120 59 -109 58 -1321 62
l-1110 4 -124 -133z"/>
<path d="M10953 1763 c9 -2 23 -2 30 0 6 3 -1 5 -18 5 -16 0 -22 -2 -12 -5z"/>
<path d="M10648 1633 c12 -2 30 -2 40 0 9 3 -1 5 -23 4 -22 0 -30 -2 -17 -4z"/>
<path d="M10528 1623 c12 -2 30 -2 40 0 9 3 -1 5 -23 4 -22 0 -30 -2 -17 -4z"/>
<path d="M10135 1565 c-39 -14 -40 -14 -5 -8 41 7 82 22 60 22 -8 0 -33 -7
-55 -14z"/>
<path d="M9856 1527 c-21 -18 -21 -18 8 -12 16 3 43 12 60 19 l31 14 -39 -2
c-22 0 -49 -9 -60 -19z"/>
<path d="M10005 1530 l-20 -9 20 0 c11 0 27 4 35 9 13 9 13 10 0 9 -8 0 -24
-4 -35 -9z"/>
<path d="M9585 1504 c-18 -16 -21 -20 -6 -11 13 9 28 14 35 13 6 -2 8 -1 3 1
-4 3 -5 9 -1 14 9 15 1 10 -31 -17z"/>
<path d="M9910 1501 l-55 -17 50 0 c28 -1 44 1 36 4 -9 3 -4 9 15 18 41 18 18
16 -46 -5z"/>
<path d="M9519 1459 l-24 -20 28 17 c15 9 27 18 27 20 0 8 -8 4 -31 -17z"/>
<path d="M10253 1403 c26 -2 67 -2 90 0 23 2 2 3 -48 3 -49 0 -68 -1 -42 -3z"/>
<path d="M11315 1344 c-143 -38 -361 -57 -561 -50 l-171 6 -17 -58 c-9 -31
-25 -87 -35 -124 l-20 -68 413 0 412 0 38 148 c21 81 41 153 43 160 6 15 7 15
-102 -14z"/>
<path d="M9322 1315 c-29 -23 -58 -48 -65 -55 -8 -10 -6 -10 8 1 17 13 49 16
94 10 14 -2 1 -44 -18 -60 -13 -10 -13 -12 -1 -8 8 3 59 20 113 38 53 18 97
36 97 39 0 3 -15 7 -32 8 -53 3 -109 32 -103 52 10 32 -37 19 -93 -25z m83
-25 c-3 -5 -14 -10 -23 -10 -15 0 -15 2 -2 10 20 13 33 13 25 0z"/>
<path d="M9738 1354 c-4 -3 -12 -7 -20 -8 -32 -5 -58 -18 -58 -28 0 -5 10 -8
23 -5 12 3 50 11 85 18 44 9 58 15 45 20 -22 9 -68 11 -75 3z"/>
<path d="M9154 1182 c-39 -31 -90 -74 -115 -95 l-44 -37 105 48 c58 27 131 59
162 72 56 23 77 41 25 21 -18 -7 -36 -7 -57 1 -30 10 -30 11 -14 29 28 31 13
22 -62 -39z"/>
</g>
</svg>
