<svg xmlns="http://www.w3.org/2000/svg" width="492.1" height="190.0" viewBox="0 0 492.1 190.0"><g transform="translate(42,42.00) scale(1.06000)"><g transform="translate(10.63,0) skewX(-12)" fill="#7E8794"><rect x="60" y="6" width="32" height="5" rx="2.5"/><rect x="67" y="18" width="26" height="5" rx="2.5"/><rect x="74" y="30" width="18" height="5" rx="2.5"/></g><g transform="translate(10.63,0) skewX(-12)"><path d="M316 -14Q230 -14 150.5 7.5Q71 29 21 63L86 209Q133 179 194.5 159.5Q256 140 317 140Q358 140 383.0 147.5Q408 155 419.5 167.5Q431 180 431 197Q431 221 409.0 235.0Q387 249 352.0 258.0Q317 267 274.5 276.0Q232 285 189.5 299.0Q147 313 112.0 335.5Q77 358 55.0 394.5Q33 431 33 487Q33 550 67.5 601.0Q102 652 171.0 683.0Q240 714 343 714Q412 714 478.5 698.5Q545 683 597 653L536 506Q486 533 437.0 546.5Q388 560 342 560Q301 560 276.0 551.5Q251 543 240.0 529.0Q229 515 229 497Q229 474 250.5 460.5Q272 447 307.5 438.5Q343 430 385.5 421.0Q428 412 470.5 398.5Q513 385 548.0 362.5Q583 340 604.5 303.5Q626 267 626 212Q626 151 591.5 99.5Q557 48 488.5 17.0Q420 -14 316 -14Z" transform="translate(19.20,91.00) scale(0.10571,-0.10571)" fill="#1C2026"/><path d="M316 -14Q230 -14 150.5 7.5Q71 29 21 63L86 209Q133 179 194.5 159.5Q256 140 317 140Q358 140 383.0 147.5Q408 155 419.5 167.5Q431 180 431 197Q431 221 409.0 235.0Q387 249 352.0 258.0Q317 267 274.5 276.0Q232 285 189.5 299.0Q147 313 112.0 335.5Q77 358 55.0 394.5Q33 431 33 487Q33 550 67.5 601.0Q102 652 171.0 683.0Q240 714 343 714Q412 714 478.5 698.5Q545 683 597 653L536 506Q486 533 437.0 546.5Q388 560 342 560Q301 560 276.0 551.5Q251 543 240.0 529.0Q229 515 229 497Q229 474 250.5 460.5Q272 447 307.5 438.5Q343 430 385.5 421.0Q428 412 470.5 398.5Q513 385 548.0 362.5Q583 340 604.5 303.5Q626 267 626 212Q626 151 591.5 99.5Q557 48 488.5 17.0Q420 -14 316 -14Z" transform="translate(15.80,87.00) scale(0.10571,-0.10571)" fill="#3B434F"/></g></g>
<path d="M311 -10Q229 -10 154.0 13.5Q79 37 35 74L80 175Q122 142 184.0 120.0Q246 98 311 98Q366 98 400.0 110.0Q434 122 450.0 142.5Q466 163 466 189Q466 221 443.0 240.5Q420 260 383.5 271.5Q347 283 302.5 293.0Q258 303 213.5 316.5Q169 330 132.5 351.5Q96 373 73.0 409.0Q50 445 50 501Q50 558 80.5 605.5Q111 653 173.5 681.5Q236 710 332 710Q395 710 457.0 694.0Q519 678 565 648L524 547Q477 575 427.0 588.5Q377 602 331 602Q277 602 243.5 589.0Q210 576 194.5 555.0Q179 534 179 507Q179 475 201.5 455.5Q224 436 260.5 425.0Q297 414 342.0 403.5Q387 393 431.5 380.0Q476 367 512.5 346.0Q549 325 571.5 289.0Q594 253 594 198Q594 142 563.5 94.5Q533 47 470.0 18.5Q407 -10 311 -10Z" transform="translate(178.00,111.80) scale(0.08600,-0.08600)" fill="#262B33"/>
<path d="M422 -10Q340 -10 271.0 17.0Q202 44 151.0 92.5Q100 141 72.0 206.5Q44 272 44 350Q44 428 72.0 493.5Q100 559 151.0 607.5Q202 656 271.0 683.0Q340 710 421 710Q503 710 571.5 683.0Q640 656 691.0 607.5Q742 559 770.0 493.5Q798 428 798 350Q798 272 770.0 206.0Q742 140 691.0 92.0Q640 44 571.5 17.0Q503 -10 422 -10ZM421 104Q474 104 519.0 122.0Q564 140 597.0 173.5Q630 207 648.5 251.5Q667 296 667 350Q667 404 648.5 448.5Q630 493 597.0 526.5Q564 560 519.0 578.0Q474 596 421 596Q368 596 323.5 578.0Q279 560 245.5 526.5Q212 493 193.5 448.5Q175 404 175 350Q175 297 193.5 252.0Q212 207 245.0 173.5Q278 140 323.0 122.0Q368 104 421 104Z" transform="translate(235.10,111.80) scale(0.08600,-0.08600)" fill="#262B33"/>
<path d="M-5 0 310 700H438L754 0H618L347 631H399L129 0ZM140 162 175 264H553L588 162Z" transform="translate(310.53,111.80) scale(0.08600,-0.08600)" fill="#262B33"/>
<path d="M94 0V700H381Q521 700 600.5 634.0Q680 568 680 451Q680 374 644.0 318.5Q608 263 541.5 233.5Q475 204 382 204H166L224 263V0ZM552 0 375 254H514L692 0ZM224 249 166 311H376Q462 311 505.5 348.0Q549 385 549 451Q549 518 505.5 554.0Q462 590 376 590H166L224 654Z" transform="translate(377.95,111.80) scale(0.08600,-0.08600)" fill="#262B33"/>
<path d="M-1 0 316 700H415L733 0H628L345 644H385L102 0ZM134 175 161 255H555L584 175Z" transform="translate(178.00,138.40) scale(0.01800,-0.01800)" fill="#727B88"/>
<path d="M105 0V700H378Q470 700 535.0 671.0Q600 642 635.0 587.0Q670 532 670 456Q670 380 635.0 325.5Q600 271 535.0 241.5Q470 212 378 212H160L205 259V0ZM205 249 160 299H375Q471 299 520.5 340.0Q570 381 570 456Q570 531 520.5 572.0Q471 613 375 613H160L205 663Z" transform="translate(197.12,138.40) scale(0.01800,-0.01800)" fill="#727B88"/>
<path d="M105 0V700H378Q470 700 535.0 671.0Q600 642 635.0 587.0Q670 532 670 456Q670 380 635.0 325.5Q600 271 535.0 241.5Q470 212 378 212H160L205 259V0ZM205 249 160 299H375Q471 299 520.5 340.0Q570 381 570 456Q570 531 520.5 572.0Q471 613 375 613H160L205 663Z" transform="translate(216.05,138.40) scale(0.01800,-0.01800)" fill="#727B88"/>
<path d="M105 0V700H205V87H584V0Z" transform="translate(234.99,138.40) scale(0.01800,-0.01800)" fill="#727B88"/>
<path d="M105 0V700H205V0Z" transform="translate(251.62,138.40) scale(0.01800,-0.01800)" fill="#727B88"/>
<path d="M-1 0 316 700H415L733 0H628L345 644H385L102 0ZM134 175 161 255H555L584 175Z" transform="translate(263.14,138.40) scale(0.01800,-0.01800)" fill="#727B88"/>
<path d="M105 0V700H187L650 125H607V700H707V0H625L162 575H205V0Z" transform="translate(282.26,138.40) scale(0.01800,-0.01800)" fill="#727B88"/>
<path d="M418 -8Q338 -8 270.5 18.5Q203 45 153.5 93.5Q104 142 76.0 207.0Q48 272 48 350Q48 428 76.0 493.0Q104 558 154.0 606.5Q204 655 271.5 681.5Q339 708 419 708Q500 708 568.5 680.5Q637 653 685 599L620 536Q580 578 530.0 598.5Q480 619 423 619Q364 619 313.5 599.0Q263 579 226.0 543.0Q189 507 168.5 457.5Q148 408 148 350Q148 292 168.5 242.5Q189 193 226.0 157.0Q263 121 313.5 101.0Q364 81 423 81Q480 81 530.0 101.5Q580 122 620 165L685 102Q637 48 568.5 20.0Q500 -8 418 -8Z" transform="translate(302.81,138.40) scale(0.01800,-0.01800)" fill="#727B88"/>
<path d="M105 0V700H599V613H205V87H613V0ZM196 313V398H556V313Z" transform="translate(321.59,138.40) scale(0.01800,-0.01800)" fill="#727B88"/>
<path d="M105 0V700H378Q514 700 592.0 635.5Q670 571 670 456Q670 380 635.0 325.5Q600 271 535.0 242.0Q470 213 378 213H160L205 259V0ZM573 0 395 254H502L682 0ZM205 249 160 298H375Q471 298 520.5 339.5Q570 381 570 456Q570 531 520.5 572.0Q471 613 375 613H160L205 663Z" transform="translate(350.37,138.40) scale(0.01800,-0.01800)" fill="#727B88"/>
<path d="M105 0V700H599V613H205V87H613V0ZM196 313V398H556V313Z" transform="translate(369.39,138.40) scale(0.01800,-0.01800)" fill="#727B88"/>
<path d="M105 0V700H378Q470 700 535.0 671.0Q600 642 635.0 587.0Q670 532 670 456Q670 380 635.0 325.5Q600 271 535.0 241.5Q470 212 378 212H160L205 259V0ZM205 249 160 299H375Q471 299 520.5 340.0Q570 381 570 456Q570 531 520.5 572.0Q471 613 375 613H160L205 663Z" transform="translate(387.39,138.40) scale(0.01800,-0.01800)" fill="#727B88"/>
<path d="M-1 0 316 700H415L733 0H628L345 644H385L102 0ZM134 175 161 255H555L584 175Z" transform="translate(406.33,138.40) scale(0.01800,-0.01800)" fill="#727B88"/>
<path d="M105 0V700H205V0Z" transform="translate(425.45,138.40) scale(0.01800,-0.01800)" fill="#727B88"/>
<path d="M105 0V700H378Q514 700 592.0 635.5Q670 571 670 456Q670 380 635.0 325.5Q600 271 535.0 242.0Q470 213 378 213H160L205 259V0ZM573 0 395 254H502L682 0ZM205 249 160 298H375Q471 298 520.5 339.5Q570 381 570 456Q570 531 520.5 572.0Q471 613 375 613H160L205 663Z" transform="translate(436.97,138.40) scale(0.01800,-0.01800)" fill="#727B88"/></svg>