<?xml version="1.0" standalone="no"?>
<!DOCTYPE svg PUBLIC "-//W3C//DTD SVG 20010904//EN"
 "http://www.w3.org/TR/2001/REC-SVG-20010904/DTD/svg10.dtd">
<svg version="1.0" xmlns="http://www.w3.org/2000/svg"
 width="1592.000000pt" height="328.000000pt" viewBox="0 0 1592.000000 328.000000"
 preserveAspectRatio="xMidYMid meet">
<metadata>
Created by potrace 1.16, written by Peter Selinger 2001-2019
</metadata>
<g transform="translate(0.000000,328.000000) scale(0.100000,-0.100000)"
fill="#FFFFFF" stroke="none">
<path d="M7588 3270 c-612 -48 -1164 -281 -1647 -694 -241 -206 -444 -495
-501 -712 -33 -126 -36 -206 -11 -303 24 -99 56 -156 125 -230 169 -179 412
-258 821 -268 384 -9 652 31 1002 151 471 162 915 462 1192 806 183 227 273
432 275 625 2 267 -179 463 -521 564 -188 55 -490 80 -735 61z m140 -370 c217
-28 364 -124 404 -265 58 -210 -121 -540 -437 -803 -232 -194 -481 -322 -744
-384 -122 -28 -388 -36 -490 -14 -257 54 -377 215 -327 440 20 90 94 243 165
344 68 96 225 258 325 336 341 266 740 391 1104 346z"/>
<path d="M3970 3210 c-444 -7 -454 -8 -590 -52 -125 -40 -268 -124 -384 -224
-62 -53 -366 -391 -480 -532 -105 -132 -137 -212 -116 -293 23 -86 114 -139
271 -159 46 -5 425 -15 843 -21 419 -6 768 -15 777 -20 25 -13 32 -44 18 -71
-16 -31 -165 -214 -211 -259 -49 -50 -121 -73 -228 -73 -47 -1 -435 1 -863 2
l-777 4 -285 -213 c-157 -116 -285 -216 -285 -220 0 -10 2181 -17 2320 -7 133
9 247 40 375 103 159 78 222 130 411 339 221 246 307 354 355 450 35 70 39 86
39 153 0 45 -6 85 -15 102 -36 70 -134 113 -294 130 -47 5 -423 13 -836 17
-412 3 -760 10 -772 15 -18 6 -23 16 -23 42 0 28 18 54 123 172 75 85 137 146
162 159 39 20 54 21 430 21 215 0 652 -4 971 -9 l581 -9 114 94 c63 52 187
153 276 224 89 71 161 130 160 131 -8 6 -1726 9 -2067 4z"/>
<path d="M10915 3209 c-169 -25 -261 -72 -565 -293 -91 -65 -681 -506 -1313
-980 l-1147 -861 397 -6 c394 -6 398 -6 430 15 41 27 537 404 945 717 174 134
408 314 520 398 111 85 313 239 448 341 135 103 255 192 267 198 43 23 143 11
143 -17 0 -9 -39 -148 -87 -308 -47 -161 -84 -295 -82 -297 3 -3 97 8 209 24
113 15 279 38 370 50 91 11 179 23 195 25 l30 5 90 303 c131 444 195 668 195
683 0 12 -81 14 -492 13 -271 -1 -520 -5 -553 -10z"/>
<path d="M13218 3048 c-90 -95 -184 -194 -207 -220 l-43 -48 1020 -2 c987 -3
1021 -4 1041 -22 37 -33 27 -65 -46 -152 -162 -191 -226 -254 -293 -287 l-65
-32 -872 -5 -873 -5 -226 -225 c-124 -124 -348 -353 -497 -510 -149 -157 -308
-324 -354 -372 -46 -48 -83 -89 -83 -92 0 -4 181 -6 403 -6 l404 0 209 232
c115 128 264 292 332 366 l124 132 236 -2 236 -3 78 -265 c43 -146 91 -308
106 -360 l28 -95 387 -3 c213 -1 387 0 387 3 0 2 -36 116 -79 252 -44 137 -95
298 -114 358 l-34 110 100 7 c199 14 327 48 466 124 151 83 233 163 691 680
181 204 229 285 230 387 1 112 -76 171 -262 204 -81 14 -234 16 -1179 20
l-1086 4 -165 -173z"/>
<path d="M80 3050 c156 -147 374 -303 560 -403 346 -186 841 -328 1300 -372
201 -20 183 -23 215 39 15 30 63 99 105 153 l77 98 -91 7 c-794 64 -1505 236
-2147 519 -50 21 -93 39 -97 39 -4 -1 31 -37 78 -80z"/>
<path d="M12939 2545 c-285 -144 -556 -244 -894 -330 -270 -68 -468 -104 -900
-160 -385 -50 -529 -77 -714 -130 -412 -118 -738 -304 -1235 -704 -193 -156
-227 -185 -206 -177 8 3 87 37 175 77 320 144 659 234 977 260 111 9 206 9
428 -1 219 -9 316 -10 420 -1 403 34 740 151 1008 348 85 63 220 188 211 197
-3 3 -37 -7 -75 -22 -366 -151 -784 -228 -1369 -252 -382 -16 -540 -42 -845
-139 -68 -22 -126 -38 -128 -37 -4 5 242 86 363 120 207 58 275 75 375 94 130
25 215 39 300 47 148 14 532 67 630 86 460 90 907 259 1222 463 137 88 442
336 413 335 -5 0 -76 -33 -156 -74z"/>
<path d="M610 2394 c295 -301 781 -534 1240 -595 162 -22 478 -15 412 8 -7 3
-34 22 -61 43 -53 42 -87 101 -99 171 l-8 44 -174 18 c-424 42 -801 133 -1145
274 -60 25 -131 56 -157 69 -26 13 -51 24 -55 24 -4 0 17 -25 47 -56z"/>
<path d="M1032 1822 c13 -15 48 -50 78 -78 162 -146 333 -248 536 -320 66 -24
79 -26 98 -14 32 20 225 174 226 180 0 3 -64 14 -142 23 -245 30 -588 127
-760 213 -61 31 -65 30 -36 -4z"/>
<path d="M11379 1366 c-10 -10 -196 -47 -292 -58 -56 -6 -194 -12 -306 -12
l-204 -1 -33 -115 c-18 -63 -34 -118 -34 -123 0 -4 187 -6 417 -5 l416 3 38
145 c21 80 39 151 39 158 0 11 -31 17 -41 8z"/>
<path d="M3956 278 c-81 -83 -170 -178 -197 -210 l-51 -58 49 0 c45 0 53 4 93
45 l44 45 98 0 98 0 0 -45 0 -45 48 0 48 0 11 202 c6 112 9 206 6 211 -2 4
-26 7 -52 7 l-49 0 -146 -152z m147 -25 c-3 -38 -7 -69 -8 -71 -2 -2 -31 -2
-65 0 l-62 3 62 68 c34 37 66 67 71 67 4 0 6 -30 2 -67z"/>
<path d="M4673 418 c-6 -7 -53 -102 -106 -211 l-96 -197 50 0 49 0 30 60 30
60 75 0 c128 0 233 57 270 147 29 69 15 116 -40 139 -45 18 -248 20 -262 2z
m195 -80 c22 -22 13 -59 -22 -94 -32 -32 -38 -34 -105 -34 -39 0 -71 2 -71 5
0 2 14 34 32 70 l32 65 61 0 c34 0 66 -5 73 -12z"/>
<path d="M5268 263 c-44 -93 -88 -187 -99 -210 l-18 -43 49 0 50 0 30 60 30
60 79 0 c70 0 87 4 143 33 101 52 154 151 117 219 -19 35 -70 48 -189 48
l-111 0 -81 -167z m276 71 c20 -19 20 -28 1 -64 -22 -42 -63 -60 -139 -60
l-64 0 31 70 31 70 62 0 c44 0 67 -5 78 -16z"/>
<path d="M6017 418 c-3 -7 -48 -102 -101 -210 l-95 -198 158 0 159 0 20 34
c11 19 18 37 15 40 -4 3 -53 6 -109 6 l-103 0 73 148 c100 202 98 192 38 192
-31 0 -52 -5 -55 -12z"/>
<path d="M6596 353 c-22 -43 -67 -138 -102 -210 l-63 -133 50 0 50 0 100 203
c54 112 99 207 99 210 0 4 -22 7 -48 7 l-48 0 -38 -77z"/>
<path d="M7047 258 c-90 -95 -179 -190 -197 -211 l-32 -37 51 0 c47 0 53 3 92
45 l42 45 98 0 99 0 0 -45 0 -45 48 0 49 0 6 152 c4 83 7 177 7 210 l0 58 -49
0 -49 0 -165 -172z m163 -8 l0 -70 -66 0 -65 0 62 70 c35 39 64 70 66 70 2 0
3 -31 3 -70z"/>
<path d="M7736 333 c-27 -54 -73 -149 -102 -210 l-53 -113 50 0 50 0 63 131
63 132 31 -81 c17 -45 36 -98 41 -119 17 -59 23 -65 71 -61 l43 3 93 199 c52
109 94 203 94 208 0 5 -21 8 -47 6 l-48 -3 -57 -125 c-31 -69 -60 -124 -65
-122 -4 1 -20 39 -35 85 -58 173 -54 167 -102 167 l-41 0 -49 -97z"/>
<path d="M8623 412 c-99 -35 -176 -104 -219 -196 -28 -59 -30 -93 -9 -142 33
-80 170 -96 299 -36 67 32 76 44 52 74 -16 22 -24 22 -67 1 -19 -9 -59 -19
-89 -21 -46 -3 -59 0 -79 19 -19 18 -22 29 -18 61 12 86 101 167 196 175 37 4
53 0 82 -20 l37 -25 41 25 c23 13 41 28 41 33 0 5 -16 22 -37 37 -30 23 -47
28 -107 31 -50 2 -87 -3 -123 -16z"/>
<path d="M9140 230 c-55 -110 -100 -204 -100 -210 0 -6 61 -10 165 -10 l165 0
20 32 c11 18 20 36 20 41 0 4 -54 7 -120 7 l-120 0 24 48 24 48 81 -4 c106 -5
123 0 144 43 l17 35 -105 0 -105 0 22 45 22 45 118 0 117 0 16 30 c8 16 15 34
15 40 0 6 -55 10 -160 10 l-160 0 -100 -200z"/>
<path d="M10252 418 c-5 -7 -53 -102 -105 -210 l-96 -198 53 0 53 0 26 61 26
60 48 -3 48 -3 10 -55 10 -55 58 -3 c56 -3 57 -2 52 20 -13 59 -25 114 -25
119 0 4 10 9 23 13 31 7 104 72 123 107 8 16 15 45 16 64 3 71 -48 95 -200 95
-76 0 -113 -4 -120 -12z m192 -74 c25 -9 20 -66 -6 -92 -33 -30 -71 -42 -133
-42 l-54 0 32 70 32 69 57 1 c31 0 63 -3 72 -6z"/>
<path d="M10946 421 c-16 -25 -161 -313 -182 -359 l-23 -52 173 0 172 0 17 35
c9 20 17 38 17 40 0 3 -54 5 -120 5 l-120 0 26 51 26 51 50 -6 c28 -4 74 -4
103 -1 47 6 54 10 68 41 l17 34 -101 0 c-92 0 -101 2 -94 18 4 9 12 29 17 45
l10 27 119 0 118 0 16 30 c8 16 15 34 15 40 0 13 -316 14 -324 1z"/>
<path d="M11496 221 l-106 -211 50 0 50 0 30 60 30 60 84 0 c76 0 91 3 147 33
84 43 123 97 124 169 0 44 -4 53 -28 72 -25 18 -45 21 -152 25 l-124 3 -105
-211z m295 119 c23 -13 24 -31 4 -70 -22 -42 -63 -60 -140 -60 l-65 0 35 70
35 70 56 0 c30 0 64 -5 75 -10z"/>
<path d="M12184 223 l-196 -208 47 -3 c45 -3 51 -1 94 42 l47 46 97 0 97 0 0
-45 0 -45 48 0 49 0 6 137 c4 75 7 169 7 210 l0 73 -49 0 -50 0 -197 -207z
m198 30 c-2 -38 -6 -69 -7 -71 -1 -2 -30 -2 -63 0 l-60 3 61 67 c34 37 64 67
67 67 3 1 4 -29 2 -66z"/>
<path d="M12852 226 c-56 -112 -102 -206 -102 -210 0 -3 22 -6 50 -6 l50 0
100 200 c55 110 100 204 100 210 0 5 -22 10 -48 10 l-49 0 -101 -204z"/>
<path d="M13336 338 c-79 -169 -128 -273 -142 -301 l-15 -27 49 0 48 0 29 60
29 60 48 0 c44 0 48 -2 54 -27 21 -95 15 -88 73 -91 51 -3 53 -2 48 20 -3 13
-9 46 -12 73 l-6 50 50 27 c76 42 126 143 98 198 -18 36 -68 49 -195 49 l-113
1 -43 -92z m242 0 c33 -33 -16 -109 -79 -122 -35 -7 -119 -8 -119 -2 0 2 13
34 30 70 l29 66 64 0 c36 0 68 -5 75 -12z"/>
<path d="M14426 212 c-223 -2 -250 -4 -262 -20 -7 -9 -14 -20 -14 -23 0 -11
820 -21 1093 -14 l265 8 11 23 11 24 -153 1 c-416 3 -725 4 -951 1z"/>
<path d="M1907 185 l-18 -25 702 0 c657 0 703 1 715 18 7 9 14 20 14 25 0 4
-314 7 -697 7 l-698 -1 -18 -24z"/>
</g>
</svg>
